<?xml version="1.0" encoding="utf-8"?>
<!-- Generator: Adobe Illustrator 18.1.1, SVG Export Plug-In . SVG Version: 6.00 Build 0)  -->
<!DOCTYPE svg PUBLIC "-//W3C//DTD SVG 1.1//EN" "http://www.w3.org/Graphics/SVG/1.1/DTD/svg11.dtd">
<svg version="1.1" id="Layer_1" xmlns="http://www.w3.org/2000/svg" xmlns:xlink="http://www.w3.org/1999/xlink" x="0px" y="0px"
	 viewBox="0 0 100 100" enable-background="new 0 0 100 100" xml:space="preserve">
<path fill="#0101FF" d="M50,31.6c-10.1,0-18.4,8.2-18.4,18.4S39.9,68.4,50,68.4S68.4,60.1,68.4,50S60.1,31.6,50,31.6z M50,62.6
	c-7,0-12.6-5.7-12.6-12.6c0-7,5.7-12.6,12.6-12.6c7,0,12.6,5.7,12.6,12.6C62.6,57,57,62.6,50,62.6z M94,39.3h-6.6
	c-0.8-2.8-1.9-5.5-3.4-8.1l4.7-4.7c1.1-1.1,1.1-2.9,0-4.1L77.6,11.3c-0.5-0.5-1.3-0.8-2-0.8c-0.8,0-1.5,0.3-2,0.8L68.9,16
	c-2.6-1.4-5.3-2.6-8.1-3.4V6c0-1.6-1.3-2.9-2.9-2.9H42.1c-1.6,0-2.9,1.3-2.9,2.9v6.6c-2.8,0.8-5.5,1.9-8.1,3.4l-4.7-4.7
	c-1.1-1.1-3-1.1-4.1,0l-11,11.1c-1.1,1.1-1.1,2.9,0,4.1l4.7,4.7c-1.4,2.6-2.6,5.3-3.4,8.1H6c-1.6,0-2.9,1.3-2.9,2.9v15.7
	c0,1.6,1.3,2.9,2.9,2.9h6.6c0.8,2.8,1.9,5.5,3.4,8.1l-4.7,4.7c-1.1,1.1-1.1,2.9,0,4.1l11.1,11.1c1.1,1.1,2.9,1.1,4.1,0l4.7-4.7
	c2.6,1.4,5.3,2.6,8.1,3.4V94c0,1.6,1.3,2.9,2.9,2.9h15.7c1.6,0,2.9-1.3,2.9-2.9v-6.6c2.8-0.8,5.5-1.9,8.1-3.4l4.7,4.7
	c1.1,1.1,3,1.1,4.1,0l11.1-11.1c1.1-1.1,1.1-2.9,0-4.1l-4.7-4.7c1.4-2.6,2.6-5.3,3.4-8.1H94c1.6,0,2.9-1.3,2.9-2.9V42.1
	C96.9,40.5,95.6,39.3,94,39.3z M91.1,55h-5.9c-1.3,0-2.5,0.9-2.8,2.2c-0.8,3.7-2.3,7.3-4.4,10.5c-0.7,1.1-0.6,2.6,0.4,3.6l4.2,4.2
	l-7.1,7.1l-4.2-4.2c-0.9-1-2.4-1.1-3.6-0.4c-3.3,2.1-6.8,3.5-10.5,4.4c-1.3,0.3-2.2,1.5-2.2,2.8v5.9H45v-5.9c0-1.3-0.9-2.5-2.2-2.8
	c-3.7-0.8-7.3-2.3-10.5-4.4c-1.1-0.7-2.6-0.6-3.6,0.4l-4.2,4.2l-7.1-7.1l4.2-4.2c1-1,1.1-2.4,0.4-3.6c-2.1-3.3-3.5-6.8-4.4-10.5
	c-0.3-1.3-1.5-2.2-2.8-2.2H8.9V45h5.9c1.3,0,2.5-0.9,2.8-2.2c0.8-3.7,2.3-7.3,4.4-10.5c0.7-1.1,0.6-2.6-0.4-3.6l-4.2-4.2l7.1-7.1
	l4.2,4.2c1,1,2.4,1.1,3.6,0.4c3.3-2.1,6.8-3.5,10.5-4.4c1.3-0.3,2.2-1.5,2.2-2.8V8.9h10v5.9c0,1.3,0.9,2.5,2.2,2.8
	c3.7,0.8,7.3,2.3,10.5,4.4c1.1,0.7,2.6,0.6,3.6-0.4l4.2-4.2l7.1,7.1l-4.2,4.2c-1,1-1.1,2.4-0.4,3.6c2.1,3.3,3.5,6.8,4.4,10.5
	c0.3,1.3,1.5,2.2,2.8,2.2h5.9V55L91.1,55z"/>
</svg>
