<?xml version="1.0" encoding="utf-8"?>
<!-- Generator: Adobe Illustrator 18.1.1, SVG Export Plug-In . SVG Version: 6.00 Build 0)  -->
<!DOCTYPE svg PUBLIC "-//W3C//DTD SVG 1.1//EN" "http://www.w3.org/Graphics/SVG/1.1/DTD/svg11.dtd">
<svg version="1.1" id="Layer_1" xmlns="http://www.w3.org/2000/svg" xmlns:xlink="http://www.w3.org/1999/xlink" x="0px" y="0px"
	 viewBox="0 0 100 100" enable-background="new 0 0 100 100" xml:space="preserve">
<path fill="#0101FF" d="M54.8,32.2c-9.8-2.6-19.9,3.2-22.5,13s3.3,19.9,13,22.5c9.8,2.6,19.9-3.3,22.5-13
	C70.4,45,64.5,34.8,54.8,32.2z M46.7,62.2C40,60.4,36,53.4,37.8,46.7c1.8-6.8,8.8-10.7,15.4-8.9c6.8,1.8,10.7,8.8,8.9,15.4
	C60.4,60,53.5,64,46.7,62.2z M95.3,51.1l-6.4-1.7c0-2.9-0.4-5.8-1.2-8.7l5.8-3.3c1.3-0.8,1.8-2.5,1.1-4l-7.8-13.6
	c-0.4-0.6-1-1.1-1.7-1.3c-0.8-0.2-1.5-0.1-2.1,0.3l-5.8,3.3c-2.1-2-4.4-3.9-6.9-5.4l1.7-6.4c0.4-1.5-0.5-3.1-2.1-3.6l-15.4-4
	c-1.5-0.5-3.1,0.5-3.5,2l-1.7,6.4c-2.9,0-5.8,0.4-8.7,1.2l-3.3-5.8c-0.8-1.3-2.6-1.8-4-1.1l-13.5,7.9c-1.3,0.8-1.8,2.5-1.1,4L22,23
	c-2,2.1-3.9,4.4-5.4,6.9l-6.4-1.7c-1.5-0.4-3.1,0.5-3.6,2.1L2.7,45.5c-0.5,1.5,0.5,3.1,2,3.5l6.4,1.7c0,2.9,0.4,5.8,1.2,8.7
	l-5.8,3.3c-1.3,0.8-1.8,2.5-1.1,4l7.8,13.6c0.8,1.3,2.5,1.8,4,1.1l5.8-3.3c2.1,2,4.4,3.9,6.9,5.4l-1.7,6.3c-0.4,1.5,0.5,3.1,2.1,3.6
	l15.2,4.1c1.5,0.4,3.1-0.5,3.6-2.1l1.7-6.4c2.9,0,5.8-0.4,8.7-1.2l3.3,5.8c0.8,1.3,2.6,1.8,4,1.1l13.6-7.8c1.3-0.8,1.8-2.5,1.1-4
	L78.1,77c2-2.1,3.9-4.4,5.4-6.9l6.3,1.7c1.5,0.4,3.1-0.5,3.6-2.1l4.1-15.2C97.8,53,96.8,51.5,95.3,51.1z M88.4,65.5L82.7,64
	c-1.3-0.3-2.6,0.2-3.3,1.4c-1.7,3.4-4.1,6.5-7,9c-1,0.9-1.3,2.4-0.5,3.6l3,5.1l-8.7,5l-3-5.1c-0.6-1.2-2-1.7-3.4-1.3
	c-3.7,1.2-7.5,1.6-11.3,1.5c-1.3,0-2.5,0.9-2.8,2.1L44.2,91l-9.7-2.6l1.5-5.7c0.3-1.3-0.2-2.6-1.4-3.3c-3.4-1.7-6.5-4.1-9-7
	c-0.9-1-2.4-1.3-3.6-0.5l-5.1,3l-5-8.7l5.1-3c1.2-0.7,1.7-2,1.3-3.4c-1.2-3.7-1.6-7.5-1.5-11.3c0-1.3-0.9-2.5-2.1-2.8L9,44.2
	l2.6-9.7l5.7,1.5c1.3,0.3,2.6-0.2,3.3-1.4c1.7-3.4,4.1-6.5,7-9c1-0.9,1.3-2.4,0.5-3.6l-3-5.1l8.7-5l3,5.1c0.7,1.2,2,1.7,3.4,1.3
	c3.7-1.2,7.5-1.6,11.3-1.5c1.3,0,2.5-0.9,2.8-2.1L55.8,9l9.7,2.6L64,17.3c-0.3,1.3,0.2,2.6,1.4,3.3c3.4,1.7,6.5,4.1,9,7
	c0.9,1,2.4,1.3,3.6,0.5l5.1-3l5,8.7l-5.1,3c-1.2,0.7-1.7,2-1.3,3.4c1.2,3.7,1.6,7.5,1.5,11.3c0,1.3,0.9,2.5,2.1,2.8l5.7,1.5
	L88.4,65.5L88.4,65.5z"/>
</svg>
