<?xml version="1.0" encoding="utf-8"?>
<!-- Generator: Adobe Illustrator 18.1.1, SVG Export Plug-In . SVG Version: 6.00 Build 0)  -->
<!DOCTYPE svg PUBLIC "-//W3C//DTD SVG 1.1//EN" "http://www.w3.org/Graphics/SVG/1.1/DTD/svg11.dtd">
<svg version="1.1" id="Layer_1" xmlns="http://www.w3.org/2000/svg" xmlns:xlink="http://www.w3.org/1999/xlink" x="0px" y="0px"
	 viewBox="0 0 100 100" enable-background="new 0 0 100 100" xml:space="preserve">
<path fill="#0101FF" d="M67.7,45.3c-2.6-9.7-12.7-15.6-22.5-13s-15.6,12.8-13,22.5s12.8,15.6,22.5,13S70.4,55,67.7,45.3z M37.8,53.3
	C36,46.6,40,39.7,46.7,37.9c6.7-1.8,13.6,2.2,15.4,8.9c1.8,6.7-2.2,13.6-8.9,15.4C46.5,64.1,39.6,60.1,37.8,53.3z M71.7,89.8
	L70,83.4c2.5-1.5,4.8-3.3,6.9-5.4l5.7,3.3c1.4,0.8,3.1,0.3,4-1.1l7.8-13.6c0.3-0.6,0.4-1.5,0.3-2.1c-0.2-0.8-0.7-1.3-1.3-1.7
	l-5.7-3.3c0.7-2.8,1.2-5.8,1.2-8.7l6.4-1.7c1.5-0.4,2.5-2,2.1-3.6l-4.1-15.3c-0.4-1.5-2-2.5-3.6-2L83.3,30c-1.5-2.5-3.3-4.8-5.4-6.9
	l3.3-5.7c0.8-1.4,0.3-3.2-1.1-4L66.7,5.5c-1.4-0.8-3.1-0.3-4,1.1l-3.3,5.7c-2.8-0.7-5.8-1.2-8.7-1.2L49,4.7c-0.4-1.5-2-2.5-3.6-2.1
	L30.2,6.7c-1.5,0.4-2.5,2-2,3.6l1.7,6.4c-2.5,1.5-4.8,3.3-6.9,5.4l-5.7-3.3c-1.4-0.8-3.1-0.3-4,1.1L5.4,33.4c-0.8,1.4-0.3,3.1,1.1,4
	l5.7,3.3c-0.7,2.8-1.2,5.8-1.2,8.7L4.7,51c-1.5,0.4-2.5,2-2,3.6l4.1,15.2c0.4,1.5,2,2.5,3.6,2.1l6.4-1.7c1.5,2.5,3.3,4.8,5.4,6.9
	l-3.3,5.7c-0.8,1.4-0.3,3.2,1.1,4l13.6,7.8c1.4,0.8,3.1,0.3,4-1.1l3.3-5.7c2.8,0.7,5.8,1.2,8.7,1.2l1.7,6.3c0.4,1.5,2,2.5,3.6,2.1
	l15.2-4.1C71.3,92.9,72.1,91.3,71.7,89.8z M55.8,91l-1.5-5.7c-0.3-1.2-1.5-2.2-2.8-2.1c-3.8,0.2-7.6-0.4-11.2-1.5
	c-1.3-0.4-2.7,0.1-3.4,1.3l-3,5.1l-8.7-5l3-5.1c0.7-1.1,0.5-2.6-0.6-3.6c-2.9-2.6-5.2-5.6-6.9-9c-0.6-1.2-2-1.7-3.2-1.4l-5.7,1.5
	L9,55.8l5.7-1.5c1.2-0.3,2.2-1.5,2.1-2.8c-0.2-3.8,0.4-7.6,1.5-11.2c0.4-1.3-0.1-2.7-1.3-3.4l-5.1-3l5-8.7l5.1,3
	c1.2,0.7,2.6,0.5,3.6-0.6c2.6-2.9,5.6-5.2,9-6.9c1.2-0.6,1.7-2,1.4-3.2l-1.5-5.7L44.2,9l1.5,5.7c0.3,1.2,1.5,2.2,2.8,2.1
	c3.8-0.2,7.6,0.4,11.2,1.5c1.3,0.4,2.7-0.1,3.4-1.3l2.9-5.1l8.7,5l-2.9,5.1c-0.7,1.2-0.5,2.6,0.6,3.6c2.9,2.6,5.2,5.6,6.9,9
	c0.6,1.2,2,1.7,3.2,1.4l5.7-1.5l2.6,9.7l-5.7,1.5c-1.2,0.3-2.2,1.5-2.1,2.8c0.2,3.8-0.4,7.6-1.5,11.2c-0.4,1.3,0.1,2.7,1.3,3.4
	l5.1,3l-5,8.7l-5.1-3c-1.2-0.7-2.6-0.5-3.6,0.6c-2.6,2.9-5.6,5.2-9,6.9c-1.2,0.6-1.7,2-1.4,3.2l1.5,5.7L55.8,91L55.8,91z"/>
</svg>
