<?xml version="1.0" encoding="utf-8"?>
<!-- Generator: Adobe Illustrator 18.1.1, SVG Export Plug-In . SVG Version: 6.00 Build 0)  -->
<!DOCTYPE svg PUBLIC "-//W3C//DTD SVG 1.1//EN" "http://www.w3.org/Graphics/SVG/1.1/DTD/svg11.dtd">
<svg version="1.1" id="Layer_1" xmlns="http://www.w3.org/2000/svg" xmlns:xlink="http://www.w3.org/1999/xlink" x="0px" y="0px"
	 viewBox="0 0 228.3 208.5" enable-background="new 0 0 228.3 208.5" xml:space="preserve">
<line fill="none" stroke="#0000FF" stroke-width="6" stroke-linecap="round" stroke-miterlimit="10" x1="5.1" y1="8" x2="68.6" y2="8"/>
<line fill="none" stroke="#0000FF" stroke-width="6" stroke-linecap="round" stroke-miterlimit="10" x1="36.8" y1="8" x2="136.8" y2="143"/>
<g>
	<path fill="#FF0000" d="M126.4,143.4c0-0.8,0.4-1.1,1.2-1.1c0.8,0.1,1.8,0.3,2.4,0.5c0.8,0.3,1,0.7,1,1.9
		c0.2,5.9,1.1,15.8,2.5,21.7c0.2,0.7-0.1,0.9-0.7,0.9c-0.6,0-1.2,0-2-0.3c-0.8-0.2-1.1-0.5-1.3-1.5c-0.4-1.3-0.7-2.7-1-4.3
		c-1.3,1.3-2.9,3.1-4.2,4.8c0.4,2.4,0.8,4.6,1.3,6.6c0.2,0.7-0.1,0.9-0.7,0.9c-0.6,0-1.2-0.1-2-0.2c-0.9-0.2-1.2-0.5-1.5-1.5
		c-1.6-5.9-3-15.5-3.2-21.8c0-0.9,0.3-1.2,1.2-1.1c0.7,0.1,1.7,0.3,2.4,0.5c0.8,0.3,1,0.7,1.1,1.8c0.2,2.8,0.4,6.4,0.9,10
		c1.6-1.6,3-3,4.2-4C126.9,152.3,126.5,147.2,126.4,143.4z"/>
	<path fill="#FF0000" d="M140.4,146.6c0.6-0.4,1.1-0.6,1.7-0.4c0.5,0.1,1.2,0.4,1.6,0.7c0.5,0.3,0.5,0.7,0.2,1
		c-1.4,1.3-3.5,3.3-5.2,5.4c0.2,1.7,0.4,3.3,0.7,4.8c1.5-1.5,3-2.7,4.2-3.6c0.7-0.5,1.3-0.7,1.9-0.6c0.6,0.1,1.4,0.4,1.9,0.7
		c0.6,0.4,0.5,0.8,0.1,1.2c-1.9,1.8-4.8,4.5-6.4,6.6c-0.8,1.1-1.1,1.1-1.9,1c-0.6,0-1.3-0.1-1.8-0.2c-0.7-0.2-1.1-0.3-1.4-1.4
		c-1.2-4.8-2.5-12.7-2.9-18.3c-0.4-0.3-1-0.7-1.3-1c-0.6-0.5-0.5-0.9-0.1-1.4c2.2-2.5,5.7-5.4,8.2-7.1c0.8-0.6,1.5-0.7,2.2-0.6
		c0.6,0.1,1.4,0.5,2,0.9c0.5,0.4,0.4,0.8-0.1,1.2c-1.6,1.3-4.7,4.1-6.5,6.2c0.1,2,0.3,4.4,0.6,6.9
		C139.1,147.6,139.9,147,140.4,146.6z"/>
	<path fill="#FF0000" d="M150.9,153.7c-0.8-0.2-1.1-0.6-1.4-1.6c-1.7-5.9-3-16.1-3.2-22.4c0-0.8,0.4-1.1,1.2-1
		c0.8,0.1,1.8,0.3,2.4,0.5c0.8,0.3,1,0.7,1.1,1.8c0.2,6,1.2,16,2.7,22c0.2,0.6-0.1,0.9-0.8,0.8C152.4,153.8,151.7,153.8,150.9,153.7
		z"/>
	<path fill="#FF0000" d="M172.8,138.9c0.2,0.9-0.1,1.1-0.9,1.1c-0.6-0.1-0.9-0.1-1.7-0.1s-1.1-0.6-1.4-1.5
		c-0.8-2.9-1.5-7.7-2.1-12.4c-0.4,5.2-0.5,11.5-0.3,15.9c0.1,1-0.2,1.2-0.9,1.3c-0.8,0.1-1.5,0.2-2.3,0.2c-0.8,0-1.4-0.4-2-1.3
		c-1.1-2-2.6-5-3.8-8.1c0.4,4.5,1.4,11.4,2.1,15.1c0.1,0.6-0.3,0.9-0.8,0.9c-0.8,0-1.7-0.2-2.2-0.4c-0.4-0.2-0.7-0.6-0.9-1.2
		c-1.5-5.6-2.8-16.6-2.8-22.1c0-0.9,0.3-1.2,1.2-1.4c1-0.1,2.3-0.2,3.4,0c0.8,0.2,1.1,0.9,1.4,1.6c1.1,3.3,2.4,6.7,3.8,9.9
		c-0.3-5.2,0.4-13.9,1.3-18.6c0.2-1.1,0.5-1.2,1.4-1.2c1,0,2.5,0.3,3.5,0.7c1.1,0.4,1.3,1.1,1.4,2.5
		C170.8,126.5,171.9,133.6,172.8,138.9z"/>
</g>
</svg>
