<?xml version="1.0" encoding="utf-8"?>
<!-- Generator: Adobe Illustrator 18.1.1, SVG Export Plug-In . SVG Version: 6.00 Build 0)  -->
<!DOCTYPE svg PUBLIC "-//W3C//DTD SVG 1.1//EN" "http://www.w3.org/Graphics/SVG/1.1/DTD/svg11.dtd">
<svg version="1.1" id="Layer_1" xmlns="http://www.w3.org/2000/svg" xmlns:xlink="http://www.w3.org/1999/xlink" x="0px" y="0px"
	 viewBox="0 0 404 208.5" enable-background="new 0 0 404 208.5" xml:space="preserve">
<line fill="none" stroke="#0000FF" stroke-width="6" stroke-linecap="round" stroke-miterlimit="10" x1="180.8" y1="8" x2="244.2" y2="8"/>
<line fill="none" stroke="#0000FF" stroke-width="6" stroke-linecap="round" stroke-miterlimit="10" x1="212.5" y1="8" x2="212.5" y2="173"/>
<circle fill="#0000FF" cx="212.5" cy="173" r="30.2"/>
<line fill="none" stroke="#0000FF" stroke-width="6" stroke-linecap="round" stroke-miterlimit="10" x1="105" y1="8" x2="168.5" y2="8"/>
<line fill="none" stroke="#0000FF" stroke-width="6" stroke-linecap="round" stroke-miterlimit="10" x1="136.8" y1="8" x2="136.8" y2="173"/>
<line fill="none" stroke="#0000FF" stroke-width="6" stroke-linecap="round" stroke-miterlimit="10" x1="257.6" y1="8" x2="321.1" y2="8"/>
<line fill="none" stroke="#0000FF" stroke-width="6" stroke-linecap="round" stroke-miterlimit="10" x1="289.3" y1="8" x2="289.3" y2="173"/>
<circle fill="#0000FF" cx="289.4" cy="173" r="30.2"/>
<line fill="none" stroke="#0000FF" stroke-width="6" stroke-linecap="round" stroke-miterlimit="10" x1="334.4" y1="8" x2="397.9" y2="8"/>
<line fill="none" stroke="#0000FF" stroke-width="6" stroke-linecap="round" stroke-miterlimit="10" x1="366.2" y1="8" x2="366.2" y2="173"/>
<circle fill="#0000FF" cx="366.2" cy="173" r="30.2"/>
<g>
	<path fill="#FF0000" d="M92.8,181.2c-0.8,0.2-1.3,0-1.7-0.4c-0.4-0.4-0.7-0.6-1-1.1c-0.4-0.6-0.5-0.9,0.2-1.2
		c1.7-0.8,3.9-1.4,5.6-1.7c1.2-0.2,1.7,0.1,2.2,1c0.4,0.7,0.7,1.5,1,2.3c0.2,0.8,0.2,1.4-0.4,2.3c-3.8,5-8.7,7.4-12.9,4.4
		c-2.8-2-3.4-4-2.6-7.1c1.4-4.9,6.7-12.5,11.3-15c1.5-0.8,2.8-1.2,4.4-0.4c1,0.5,2.2,1.4,3,2.1c0.7,0.8,0.7,1.9,0.4,3
		c-0.6,2.1-2,4.6-3.1,6.1c-0.4,0.5-0.8,0.7-1.3,0.3c-0.5-0.4-1.1-1.1-1.4-1.5c-0.3-0.6-0.3-1.4,0.1-2.1c0.4-1,2.2-4.2,1.5-4.6
		c-0.7-0.4-4.2,2.5-7.3,7.3c-3.4,5.2-4.2,9.3-3.1,10.1c1,0.8,4.3-1.3,7-4.2C94,180.9,93.2,181.1,92.8,181.2z"/>
	<path fill="#FF0000" d="M112.5,166.1c0.5,0.8,0.4,1.8-0.3,2.9c-5.2,7.8-8.2,15.1-6.9,15.9c1.8,1,8.6-6,14.8-20.4
		c0.3-0.6,0.7-0.8,1.3-0.3c0.6,0.5,1.1,0.9,1.5,1.5s0.4,1.2,0.1,2.3c-2.5,7.6-6.6,13.9-10,17.4c-3.2,3.5-5.8,3-7.4,2.4
		c-1-0.4-2.5-1.1-3.6-2.3c-1.3-1.4-1.3-3.4-0.6-6c0.9-3.3,5.1-11,8.6-14.8c0.6-0.6,0.9-0.7,1.5,0C112,165.2,112.2,165.6,112.5,166.1
		z"/>
	<path fill="#FF0000" d="M129.4,181.2c-0.8,0.2-1.3,0-1.7-0.4c-0.4-0.4-0.7-0.6-1-1.1c-0.4-0.6-0.5-0.9,0.2-1.2
		c1.7-0.8,3.9-1.4,5.6-1.7c1.2-0.2,1.7,0.1,2.2,1c0.4,0.7,0.7,1.5,1,2.3c0.2,0.8,0.2,1.4-0.4,2.3c-3.8,5-8.7,7.4-12.9,4.4
		c-2.8-2-3.4-4-2.6-7.1c1.4-4.9,6.7-12.5,11.3-15c1.5-0.8,2.8-1.2,4.4-0.4c1,0.5,2.2,1.4,3,2.1c0.7,0.8,0.7,1.9,0.4,3
		c-0.6,2.1-2,4.6-3.1,6.1c-0.4,0.5-0.8,0.7-1.3,0.3c-0.5-0.4-1.1-1.1-1.4-1.5c-0.3-0.6-0.3-1.4,0.1-2.1c0.4-1,2.2-4.2,1.5-4.6
		c-0.7-0.4-4.2,2.5-7.3,7.3c-3.4,5.2-4.2,9.3-3.1,10.1c1,0.8,4.3-1.3,7-4.2C130.6,180.9,129.8,181.1,129.4,181.2z"/>
	<path fill="#FF0000" d="M147.5,181.2c-0.8,0.2-1.3,0-1.7-0.4c-0.4-0.4-0.7-0.6-1-1.1c-0.4-0.6-0.5-0.9,0.2-1.2
		c1.7-0.8,3.9-1.4,5.6-1.7c1.2-0.2,1.7,0.1,2.2,1c0.4,0.7,0.7,1.5,1,2.3c0.2,0.8,0.2,1.4-0.4,2.3c-3.8,5-8.7,7.4-12.9,4.4
		c-2.8-2-3.4-4-2.6-7.1c1.4-4.9,6.7-12.5,11.3-15c1.5-0.8,2.8-1.2,4.4-0.4c1,0.5,2.2,1.4,3,2.1c0.7,0.8,0.7,1.9,0.4,3
		c-0.6,2.1-2,4.6-3.1,6.1c-0.4,0.5-0.8,0.7-1.3,0.3c-0.5-0.4-1.1-1.1-1.4-1.5c-0.3-0.6-0.3-1.4,0.1-2.1c0.4-1,2.2-4.2,1.5-4.6
		c-0.7-0.4-4.2,2.5-7.3,7.3c-3.4,5.2-4.2,9.3-3.1,10.1c1,0.8,4.3-1.3,7-4.2C148.7,180.9,147.9,181.1,147.5,181.2z"/>
	<path fill="#FF0000" d="M166.8,174.9c0.8,0,1.3,0.1,1.7,0.6c0.3,0.4,0.8,1.1,1,1.5c0.3,0.6,0.1,0.8-0.4,0.9
		c-1.9,0.3-4.7,0.7-7.4,1.4c-0.8,1.5-1.5,3-2.2,4.3c2.1-0.4,4-0.6,5.5-0.6c0.8,0,1.4,0.1,1.9,0.6c0.4,0.5,0.9,1.1,1.1,1.6
		c0.3,0.7,0,1-0.6,1c-2.6,0.4-6.5,1-9,1.7c-1.3,0.4-1.5,0.2-2.1-0.2c-0.4-0.3-1-0.8-1.3-1.2c-0.5-0.6-0.7-0.9-0.3-2
		c1.8-4.6,5.2-11.8,8.1-16.6c-0.2-0.5-0.4-1.1-0.5-1.5c-0.2-0.7,0.1-1,0.7-1.2c3.2-0.8,7.8-1.2,10.8-1.2c1,0,1.6,0.2,2.2,0.8
		c0.4,0.4,0.8,1.2,1.1,1.9c0.2,0.7-0.1,0.8-0.8,0.9c-2.1,0.2-6.2,0.7-8.9,1.3c-1.1,1.7-2.2,3.8-3.5,6
		C165.1,175,166.1,174.9,166.8,174.9z"/>
	<path fill="#FF0000" d="M174.2,187.8c-0.3,0.6-0.6,0.6-1.1,0.3c-0.7-0.4-1.3-1.1-1.6-1.6c-0.2-0.4-0.4-0.9-0.2-1.5
		c1.7-5,6.7-14.9,9.6-20c0.5-0.9,1.1-0.8,1.8-0.6c0.8,0.3,2,1,3.1,1.7c0.8,0.6,0.7,1.1,0.4,2.2c-0.6,2.9-1.3,7.9-1.7,11.8
		c2.4-4.8,6.2-11.7,8.8-15.2c0.3-0.5,0.7-0.7,1.3,0c0.8,1.3,1,2.5,0.1,4.2c-2.1,4-6.1,11.5-8.9,17.9c-0.4,0.8-0.8,0.9-1.7,0.6
		c-0.9-0.4-1.7-0.9-2.4-1.4c-0.7-0.5-1.1-1.3-1.1-2.4c0-2.7,0.3-7.2,0.9-10.6C178.8,177.7,175.7,184.3,174.2,187.8z"/>
</g>
</svg>
