<?xml version="1.0" encoding="utf-8"?>
<!-- Generator: Adobe Illustrator 18.1.1, SVG Export Plug-In . SVG Version: 6.00 Build 0)  -->
<!DOCTYPE svg PUBLIC "-//W3C//DTD SVG 1.1//EN" "http://www.w3.org/Graphics/SVG/1.1/DTD/svg11.dtd">
<svg version="1.1" id="Layer_1" xmlns="http://www.w3.org/2000/svg" xmlns:xlink="http://www.w3.org/1999/xlink" x="0px" y="0px"
	 viewBox="0 0 100 100" enable-background="new 0 0 100 100" xml:space="preserve">
<g enable-background="new    ">
	<path fill="#FF0000" d="M34.6,84.7c0.4,1.2-0.2,1.3-1.1,1.4c-0.8,0.1-1.3,0.1-2.3-0.1c-1-0.1-1.7-0.6-2.2-1.7
		c-2.3-5.5-5-14.3-6.3-20.8c-1-0.1-1.8-0.2-2.7-0.4c-1-0.2-1.3-0.6-1-1.5c1.2-3.2,3.1-6.5,5.4-8.9c2.3-2.4,5.7-3.5,8.7-3.3
		c3.8,0.2,4.3,2.9,4.9,4.9c1.1,3.6,0.8,12.2-2.5,17c-1.1,1.6-2.1,2.3-4.5,1.9C32.1,77.3,33.4,81.2,34.6,84.7z M31.3,53.1
		c-1-0.4-2.9,2.3-4,4.7c0.7,4,1.8,8.7,3.1,13.3C33.8,66.2,33.3,53.9,31.3,53.1z"/>
	<path fill="#FF0000" d="M42.3,61.1c-2.8-5.1-4.6-14.5-3.5-20.6c0.4-2.5,1.6-4.5,4.4-5.2c1.5-0.3,2.8-0.5,4.4-0.4
		c2,0.2,4.1,1.8,5.9,4.4c2.7,3.9,6.8,13.5,5,21.3c-0.5,2-1.8,3.7-4.1,4.8c-1.3,0.6-3,0.9-4.6,0.9C47.8,66.4,45,66,42.3,61.1z
		 M51.5,63.3c1.7-0.1,2.6-4.4,0.4-12.7c-2.2-8.4-5.2-12.5-6.5-12.5c-1.7,0-2,6.6-0.2,13.7C47,58.9,50.1,63.4,51.5,63.3z"/>
	<path fill="#FF0000" d="M67.7,51.7c0.4,1.2-0.2,1.3-1.1,1.4c-0.8,0.1-1.3,0.1-2.3-0.1c-1-0.1-1.7-0.6-2.2-1.7
		c-2.3-5.6-5-14.3-6.3-20.8c-1-0.1-1.8-0.2-2.7-0.4c-1-0.2-1.3-0.6-1-1.5c1.2-3.2,3.1-6.5,5.4-8.9c2.3-2.4,5.7-3.5,8.7-3.3
		c3.8,0.2,4.3,2.9,4.9,4.9c1.1,3.6,0.8,12.2-2.5,17c-1.1,1.6-2.1,2.3-4.5,1.9C65.2,44.3,66.4,48.1,67.7,51.7z M64.4,20.1
		c-1-0.4-2.9,2.3-4,4.7c0.7,4,1.8,8.7,3.1,13.3C66.8,33.1,66.4,20.8,64.4,20.1z"/>
</g>
<line fill="none" stroke="#FF0000" stroke-width="6" stroke-linecap="round" stroke-miterlimit="10" x1="69.6" y1="82.8" x2="63" y2="71.9"/>
<line fill="none" stroke="#FF0000" stroke-width="6" stroke-linecap="round" stroke-miterlimit="10" x1="34.4" y1="31.4" x2="27.7" y2="20.6"/>
<line fill="none" stroke="#FF0000" stroke-width="6" stroke-linecap="round" stroke-miterlimit="10" x1="16.4" y1="75.6" x2="6.9" y2="84.9"/>
<line fill="none" stroke="#FF0000" stroke-width="6" stroke-linecap="round" stroke-miterlimit="10" x1="87.7" y1="9.6" x2="78.2" y2="18.9"/>
</svg>
