<?xml version="1.0" encoding="utf-8"?>
<!-- Generator: Adobe Illustrator 19.2.1, SVG Export Plug-In . SVG Version: 6.00 Build 0)  -->
<!DOCTYPE svg PUBLIC "-//W3C//DTD SVG 1.1//EN" "http://www.w3.org/Graphics/SVG/1.1/DTD/svg11.dtd">
<svg version="1.1" id="Layer_1" xmlns="http://www.w3.org/2000/svg" xmlns:xlink="http://www.w3.org/1999/xlink" x="0px" y="0px"
	 viewBox="0 0 800 600" enable-background="new 0 0 800 600" xml:space="preserve">
<rect width="80" height="75"/>
<rect x="160" width="80" height="75"/>
<rect x="320" width="80" height="75"/>
<rect x="480" width="80" height="75"/>
<rect x="640" width="80" height="75"/>
<rect x="80" y="75" width="80" height="75"/>
<rect x="240" y="75" width="80" height="75"/>
<rect x="400" y="75" width="80" height="75"/>
<rect x="560" y="75" width="80" height="75"/>
<rect x="720" y="75" width="80" height="75"/>
<rect y="150" width="80" height="75"/>
<rect x="160" y="150" width="80" height="75"/>
<rect x="320" y="150" width="80" height="75"/>
<rect x="480" y="150" width="80" height="75"/>
<rect x="640" y="150" width="80" height="75"/>
<rect x="80" y="225" width="80" height="75"/>
<rect x="240" y="225" width="80" height="75"/>
<rect x="400" y="225" width="80" height="75"/>
<rect x="560" y="225" width="80" height="75"/>
<rect x="720" y="225" width="80" height="75"/>
<rect y="300" width="80" height="75"/>
<rect x="160" y="300" width="80" height="75"/>
<rect x="320" y="300" width="80" height="75"/>
<rect x="480" y="300" width="80" height="75"/>
<rect x="640" y="300" width="80" height="75"/>
<rect x="80" y="375" width="80" height="75"/>
<rect x="240" y="375" width="80" height="75"/>
<rect x="400" y="375" width="80" height="75"/>
<rect x="560" y="375" width="80" height="75"/>
<rect x="720" y="375" width="80" height="75"/>
<rect y="450" width="80" height="75"/>
<rect x="160" y="450" width="80" height="75"/>
<rect x="320" y="450" width="80" height="75"/>
<rect x="480" y="450" width="80" height="75"/>
<rect x="640" y="450" width="80" height="75"/>
<rect x="80" y="525" width="80" height="75"/>
<rect x="240" y="525" width="80" height="75"/>
<rect x="400" y="525" width="80" height="75"/>
<rect x="560" y="525" width="80" height="75"/>
<rect x="720" y="525" width="80" height="75"/>
</svg>
