<?xml version="1.0" encoding="utf-8"?>
<!-- Generator: Adobe Illustrator 19.2.1, SVG Export Plug-In . SVG Version: 6.00 Build 0)  -->
<!DOCTYPE svg PUBLIC "-//W3C//DTD SVG 1.1//EN" "http://www.w3.org/Graphics/SVG/1.1/DTD/svg11.dtd">
<svg version="1.1" id="Layer_1" xmlns="http://www.w3.org/2000/svg" xmlns:xlink="http://www.w3.org/1999/xlink" x="0px" y="0px"
	 viewBox="0 0 800 600" enable-background="new 0 0 800 600" xml:space="preserve">
<rect x="23" y="10" width="14" height="50"/>
<rect x="23" y="10" transform="matrix(4.495497e-11 1 -1 4.495497e-11 65 5)" width="14" height="50"/>
<rect x="136.3" y="186" width="37" height="132.2"/>
<rect x="136.3" y="186" transform="matrix(4.495319e-11 1 -1 4.495319e-11 406.8871 97.2516)" width="37" height="132.2"/>
<rect x="187.2" y="28" width="7.2" height="25.8"/>
<rect x="187.2" y="28" transform="matrix(4.490789e-11 1 -1 4.490789e-11 231.7553 -149.9335)" width="7.2" height="25.8"/>
<rect x="430.9" y="435.6" width="28" height="100"/>
<rect x="430.9" y="435.6" transform="matrix(4.504201e-11 1 -1 4.504201e-11 930.4362 40.7296)" width="28" height="100"/>
<rect x="500.8" y="69" width="16.5" height="58.8"/>
<rect x="500.8" y="69" transform="matrix(4.506066e-11 1 -1 4.506066e-11 607.5089 -410.6298)" width="16.5" height="58.8"/>
<rect x="427.4" y="234.1" width="11.9" height="42.6"/>
<rect x="427.4" y="234.1" transform="matrix(4.498694e-11 1 -1 4.498694e-11 688.8221 -177.9723)" width="11.9" height="42.6"/>
<rect x="79.3" y="505.6" width="18.9" height="67.5"/>
<rect x="79.3" y="505.6" transform="matrix(4.505711e-11 1 -1 4.505711e-11 628.0324 450.5556)" width="18.9" height="67.5"/>
<rect x="272.6" y="345.3" width="5.6" height="20.2"/>
<rect x="272.6" y="345.3" transform="matrix(4.511484e-11 1 -1 4.511484e-11 630.8326 79.9541)" width="5.6" height="20.2"/>
<rect x="684.3" y="196" width="50.8" height="181.5"/>
<rect x="684.3" y="196" transform="matrix(4.509796e-11 1 -1 4.509796e-11 996.4955 -422.8964)" width="50.8" height="181.5"/>
<rect x="597.7" y="394.8" width="7.5" height="26.8"/>
<rect x="597.7" y="394.8" transform="matrix(4.511306e-11 1 -1 4.511306e-11 1009.72 -193.2749)" width="7.5" height="26.8"/>
<rect x="657.4" y="526.2" width="10.2" height="36.3"/>
<rect x="657.4" y="526.2" transform="matrix(4.521876e-11 1 -1 4.521876e-11 1206.9103 -118.1451)" width="10.2" height="36.3"/>
<rect x="719.3" y="23.9" width="7.5" height="26.8"/>
<rect x="719.3" y="23.9" transform="matrix(4.511306e-11 1 -1 4.511306e-11 760.3839 -685.7922)" width="7.5" height="26.8"/>
</svg>
