<?xml version="1.0" encoding="utf-8"?>
<!-- Generator: Adobe Illustrator 19.2.1, SVG Export Plug-In . SVG Version: 6.00 Build 0)  -->
<!DOCTYPE svg PUBLIC "-//W3C//DTD SVG 1.1//EN" "http://www.w3.org/Graphics/SVG/1.1/DTD/svg11.dtd">
<svg version="1.1" id="Layer_1" xmlns="http://www.w3.org/2000/svg" xmlns:xlink="http://www.w3.org/1999/xlink" x="0px" y="0px"
	 viewBox="0 0 800 600" enable-background="new 0 0 800 600" xml:space="preserve">
<g>
	<path d="M182.4,383.1v45.7H10c1.9-17.3,7.5-33.6,16.8-49.1c9.3-15.5,27.8-36,55.3-61.5c22.2-20.6,35.8-34.6,40.8-42
		c6.8-10.2,10.1-20.2,10.1-30.1c0-11-2.9-19.4-8.8-25.3c-5.9-5.9-14-8.8-24.4-8.8c-10.3,0-18.4,3.1-24.5,9.3
		c-6.1,6.2-9.6,16.5-10.5,30.8l-49-4.9c2.9-27.1,12.1-46.5,27.5-58.3c15.4-11.8,34.6-17.7,57.7-17.7c25.3,0,45.2,6.8,59.7,20.5
		c14.5,13.6,21.7,30.6,21.7,50.9c0,11.5-2.1,22.5-6.2,33c-4.1,10.4-10.7,21.4-19.7,32.8c-6,7.6-16.7,18.5-32.2,32.7
		c-15.5,14.2-25.3,23.7-29.5,28.3c-4.1,4.7-7.5,9.2-10.1,13.7H182.4z"/>
	<path d="M302.1,428.8l67-95.7L304.9,243h60l32.9,51.1l34.6-51.1h57.8l-63,88l68.8,97.8h-60.4l-37.8-57.6l-38.1,57.6H302.1z"/>
	<path d="M710.5,428.8v-51.6h-105v-43l111.3-162.9h41.3v162.7H790v43.2h-31.9v51.6H710.5z M710.5,333.9v-87.7l-59,87.7H710.5z"/>
</g>
</svg>
