<?xml version="1.0" encoding="utf-8"?>
<!-- Generator: Adobe Illustrator 19.2.1, SVG Export Plug-In . SVG Version: 6.00 Build 0)  -->
<!DOCTYPE svg PUBLIC "-//W3C//DTD SVG 1.1//EN" "http://www.w3.org/Graphics/SVG/1.1/DTD/svg11.dtd">
<svg version="1.1" id="Layer_1" xmlns="http://www.w3.org/2000/svg" xmlns:xlink="http://www.w3.org/1999/xlink" x="0px" y="0px"
	 viewBox="0 0 800 600" style="enable-background:new 0 0 800 600;" xml:space="preserve">
<style type="text/css">
	.st0{fill:none;stroke:#000000;stroke-miterlimit:10;}
</style>
<g>
	<g>
		<path class="st0" d="M399,47c-139.2,0-252,112.8-252,252h252V47z"/>
		<path class="st0" d="M399,551c139.2,0,252-112.8,252-252H399V551z"/>
	</g>
	<g>
		<path class="st0" d="M399,51.7c-136.6,0-247.3,110.7-247.3,247.3H399V51.7z"/>
		<path class="st0" d="M399,546.3c136.6,0,247.3-110.7,247.3-247.3H399V546.3z"/>
	</g>
	<g>
		<path class="st0" d="M399,56.4C265,56.4,156.4,165,156.4,299H399V56.4z"/>
		<path class="st0" d="M399,541.6c134,0,242.6-108.6,242.6-242.6H399V541.6z"/>
	</g>
	<g>
		<path class="st0" d="M399,61.1c-131.4,0-237.9,106.5-237.9,237.9H399V61.1z"/>
		<path class="st0" d="M399,536.9c131.4,0,237.9-106.5,237.9-237.9H399V536.9z"/>
	</g>
	<g>
		<path class="st0" d="M399,65.9c-128.8,0-233.1,104.4-233.1,233.1H399V65.9z"/>
		<path class="st0" d="M399,532.1c128.8,0,233.1-104.4,233.1-233.1H399V532.1z"/>
	</g>
	<g>
		<path class="st0" d="M399,70.6c-126.2,0-228.4,102.3-228.4,228.4H399V70.6z"/>
		<path class="st0" d="M399,527.4c126.2,0,228.4-102.3,228.4-228.4H399V527.4z"/>
	</g>
	<g>
		<path class="st0" d="M399,75.3c-123.5,0-223.7,100.2-223.7,223.7H399V75.3z"/>
		<path class="st0" d="M399,522.7c123.5,0,223.7-100.2,223.7-223.7H399V522.7z"/>
	</g>
	<g>
		<path class="st0" d="M399,80c-120.9,0-219,98-219,219h219V80z"/>
		<path class="st0" d="M399,518c120.9,0,219-98,219-219H399V518z"/>
	</g>
	<g>
		<path class="st0" d="M399,84.7c-118.3,0-214.3,95.9-214.3,214.3H399V84.7z"/>
		<path class="st0" d="M399,513.3c118.3,0,214.3-95.9,214.3-214.3H399V513.3z"/>
	</g>
	<g>
		<path class="st0" d="M399,89.4c-115.7,0-209.6,93.8-209.6,209.6H399V89.4z"/>
		<path class="st0" d="M399,508.6c115.7,0,209.6-93.8,209.6-209.6H399V508.6z"/>
	</g>
	<g>
		<path class="st0" d="M399,94.2c-113.1,0-204.8,91.7-204.8,204.8H399V94.2z"/>
		<path class="st0" d="M399,503.8c113.1,0,204.8-91.7,204.8-204.8H399V503.8z"/>
	</g>
	<g>
		<path class="st0" d="M399,98.9c-110.5,0-200.1,89.6-200.1,200.1H399V98.9z"/>
		<path class="st0" d="M399,499.1c110.5,0,200.1-89.6,200.1-200.1H399V499.1z"/>
	</g>
	<g>
		<path class="st0" d="M399,103.6c-107.9,0-195.4,87.5-195.4,195.4H399V103.6z"/>
		<path class="st0" d="M399,494.4c107.9,0,195.4-87.5,195.4-195.4H399V494.4z"/>
	</g>
	<g>
		<path class="st0" d="M399,108.3c-105.3,0-190.7,85.4-190.7,190.7H399V108.3z"/>
		<path class="st0" d="M399,489.7c105.3,0,190.7-85.4,190.7-190.7H399V489.7z"/>
	</g>
	<g>
		<path class="st0" d="M399,113c-102.7,0-186,83.3-186,186h186V113z"/>
		<path class="st0" d="M399,485c102.7,0,186-83.3,186-186H399V485z"/>
	</g>
	<g>
		<path class="st0" d="M399,117.7c-100.1,0-181.3,81.2-181.3,181.3H399V117.7z"/>
		<path class="st0" d="M399,480.3c100.1,0,181.3-81.2,181.3-181.3H399V480.3z"/>
	</g>
	<g>
		<path class="st0" d="M399,122.5c-97.5,0-176.5,79-176.5,176.5H399V122.5z"/>
		<path class="st0" d="M399,475.5c97.5,0,176.5-79,176.5-176.5H399V475.5z"/>
	</g>
	<g>
		<path class="st0" d="M399,127.2c-94.9,0-171.8,76.9-171.8,171.8H399V127.2z"/>
		<path class="st0" d="M399,470.8c94.9,0,171.8-76.9,171.8-171.8H399V470.8z"/>
	</g>
	<g>
		<path class="st0" d="M399,131.9c-92.3,0-167.1,74.8-167.1,167.1H399V131.9z"/>
		<path class="st0" d="M399,466.1c92.3,0,167.1-74.8,167.1-167.1H399V466.1z"/>
	</g>
	<g>
		<path class="st0" d="M399,136.6c-89.7,0-162.4,72.7-162.4,162.4H399V136.6z"/>
		<path class="st0" d="M399,461.4c89.7,0,162.4-72.7,162.4-162.4H399V461.4z"/>
	</g>
	<g>
		<path class="st0" d="M399,141.3c-87.1,0-157.7,70.6-157.7,157.7H399V141.3z"/>
		<path class="st0" d="M399,456.7c87.1,0,157.7-70.6,157.7-157.7H399V456.7z"/>
	</g>
	<g>
		<path class="st0" d="M399,146c-84.5,0-153,68.5-153,153h153V146z"/>
		<path class="st0" d="M399,452c84.5,0,153-68.5,153-153H399V452z"/>
	</g>
	<g>
		<path class="st0" d="M399,150.7c-81.9,0-148.3,66.4-148.3,148.3H399V150.7z"/>
		<path class="st0" d="M399,447.3c81.9,0,148.3-66.4,148.3-148.3H399V447.3z"/>
	</g>
	<g>
		<path class="st0" d="M399,155.5c-79.3,0-143.5,64.3-143.5,143.5H399V155.5z"/>
		<path class="st0" d="M399,442.5c79.3,0,143.5-64.3,143.5-143.5H399V442.5z"/>
	</g>
	<g>
		<path class="st0" d="M399,160.2c-76.7,0-138.8,62.2-138.8,138.8H399V160.2z"/>
		<path class="st0" d="M399,437.8c76.7,0,138.8-62.2,138.8-138.8H399V437.8z"/>
	</g>
	<g>
		<path class="st0" d="M399,164.9c-74.1,0-134.1,60-134.1,134.1H399V164.9z"/>
		<path class="st0" d="M399,433.1c74.1,0,134.1-60,134.1-134.1H399V433.1z"/>
	</g>
	<g>
		<path class="st0" d="M399,169.6c-71.5,0-129.4,57.9-129.4,129.4H399V169.6z"/>
		<path class="st0" d="M399,428.4c71.5,0,129.4-57.9,129.4-129.4H399V428.4z"/>
	</g>
	<g>
		<path class="st0" d="M399,174.3c-68.9,0-124.7,55.8-124.7,124.7H399V174.3z"/>
		<path class="st0" d="M399,423.7c68.9,0,124.7-55.8,124.7-124.7H399V423.7z"/>
	</g>
	<g>
		<path class="st0" d="M399,179c-66.3,0-120,53.7-120,120h120V179z"/>
		<path class="st0" d="M399,419c66.3,0,120-53.7,120-120H399V419z"/>
	</g>
	<g>
		<path class="st0" d="M399,183.8c-63.6,0-115.2,51.6-115.2,115.2H399V183.8z"/>
		<path class="st0" d="M399,414.2c63.6,0,115.2-51.6,115.2-115.2H399V414.2z"/>
	</g>
	<g>
		<path class="st0" d="M399,188.5c-61,0-110.5,49.5-110.5,110.5H399V188.5z"/>
		<path class="st0" d="M399,409.5c61,0,110.5-49.5,110.5-110.5H399V409.5z"/>
	</g>
	<g>
		<path class="st0" d="M399,193.2c-58.4,0-105.8,47.4-105.8,105.8H399V193.2z"/>
		<path class="st0" d="M399,404.8c58.4,0,105.8-47.4,105.8-105.8H399V404.8z"/>
	</g>
	<g>
		<path class="st0" d="M399,197.9c-55.8,0-101.1,45.3-101.1,101.1H399V197.9z"/>
		<path class="st0" d="M399,400.1c55.8,0,101.1-45.3,101.1-101.1H399V400.1z"/>
	</g>
	<g>
		<path class="st0" d="M399,202.6c-53.2,0-96.4,43.2-96.4,96.4H399V202.6z"/>
		<path class="st0" d="M399,395.4c53.2,0,96.4-43.2,96.4-96.4H399V395.4z"/>
	</g>
	<g>
		<path class="st0" d="M399,207.3c-50.6,0-91.7,41-91.7,91.7H399V207.3z"/>
		<path class="st0" d="M399,390.7c50.6,0,91.7-41,91.7-91.7H399V390.7z"/>
	</g>
	<g>
		<path class="st0" d="M399,212c-48,0-87,38.9-87,87h87V212z"/>
		<path class="st0" d="M399,386c48,0,87-38.9,87-87h-87V386z"/>
	</g>
	<g>
		<path class="st0" d="M399,216.8c-45.4,0-82.2,36.8-82.2,82.2H399V216.8z"/>
		<path class="st0" d="M399,381.2c45.4,0,82.2-36.8,82.2-82.2H399V381.2z"/>
	</g>
	<g>
		<path class="st0" d="M399,221.5c-42.8,0-77.5,34.7-77.5,77.5H399V221.5z"/>
		<path class="st0" d="M399,376.5c42.8,0,77.5-34.7,77.5-77.5H399V376.5z"/>
	</g>
	<g>
		<path class="st0" d="M399,226.2c-40.2,0-72.8,32.6-72.8,72.8H399V226.2z"/>
		<path class="st0" d="M399,371.8c40.2,0,72.8-32.6,72.8-72.8H399V371.8z"/>
	</g>
	<g>
		<path class="st0" d="M399,230.9c-37.6,0-68.1,30.5-68.1,68.1H399V230.9z"/>
		<path class="st0" d="M399,367.1c37.6,0,68.1-30.5,68.1-68.1H399V367.1z"/>
	</g>
	<g>
		<path class="st0" d="M399,235.6c-35,0-63.4,28.4-63.4,63.4H399V235.6z"/>
		<path class="st0" d="M399,362.4c35,0,63.4-28.4,63.4-63.4H399V362.4z"/>
	</g>
	<g>
		<path class="st0" d="M399,240.3c-32.4,0-58.7,26.3-58.7,58.7H399V240.3z"/>
		<path class="st0" d="M399,357.7c32.4,0,58.7-26.3,58.7-58.7H399V357.7z"/>
	</g>
	<g>
		<path class="st0" d="M399,245.1c-29.8,0-53.9,24.2-53.9,53.9H399V245.1z"/>
		<path class="st0" d="M399,352.9c29.8,0,53.9-24.2,53.9-53.9H399V352.9z"/>
	</g>
	<g>
		<path class="st0" d="M399,249.8c-27.2,0-49.2,22-49.2,49.2H399V249.8z"/>
		<path class="st0" d="M399,348.2c27.2,0,49.2-22,49.2-49.2H399V348.2z"/>
	</g>
	<g>
		<path class="st0" d="M399,254.5c-24.6,0-44.5,19.9-44.5,44.5H399V254.5z"/>
		<path class="st0" d="M399,343.5c24.6,0,44.5-19.9,44.5-44.5H399V343.5z"/>
	</g>
	<g>
		<path class="st0" d="M399,259.2c-22,0-39.8,17.8-39.8,39.8H399V259.2z"/>
		<path class="st0" d="M399,338.8c22,0,39.8-17.8,39.8-39.8H399V338.8z"/>
	</g>
	<g>
		<path class="st0" d="M399,263.9c-19.4,0-35.1,15.7-35.1,35.1H399V263.9z"/>
		<path class="st0" d="M399,334.1c19.4,0,35.1-15.7,35.1-35.1H399V334.1z"/>
	</g>
	<g>
		<path class="st0" d="M399,268.6c-16.8,0-30.4,13.6-30.4,30.4H399V268.6z"/>
		<path class="st0" d="M399,329.4c16.8,0,30.4-13.6,30.4-30.4H399V329.4z"/>
	</g>
	<g>
		<path class="st0" d="M399,273.4c-14.2,0-25.6,11.5-25.6,25.6H399V273.4z"/>
		<path class="st0" d="M399,324.6c14.2,0,25.6-11.5,25.6-25.6H399V324.6z"/>
	</g>
	<g>
		<path class="st0" d="M399,278.1c-11.6,0-20.9,9.4-20.9,20.9H399V278.1z"/>
		<path class="st0" d="M399,319.9c11.6,0,20.9-9.4,20.9-20.9H399V319.9z"/>
	</g>
	<g>
		<path class="st0" d="M399,282.8c-9,0-16.2,7.3-16.2,16.2H399V282.8z"/>
		<path class="st0" d="M399,315.2c9,0,16.2-7.3,16.2-16.2H399V315.2z"/>
	</g>
	<g>
		<path class="st0" d="M399,287.5c-6.4,0-11.5,5.1-11.5,11.5H399V287.5z"/>
		<path class="st0" d="M399,310.5c6.4,0,11.5-5.1,11.5-11.5H399V310.5z"/>
	</g>
</g>
</svg>
