<?xml version="1.0" encoding="utf-8"?>
<!-- Generator: Adobe Illustrator 19.2.1, SVG Export Plug-In . SVG Version: 6.00 Build 0)  -->
<!DOCTYPE svg PUBLIC "-//W3C//DTD SVG 1.1//EN" "http://www.w3.org/Graphics/SVG/1.1/DTD/svg11.dtd">
<svg version="1.1" id="Layer_1" xmlns="http://www.w3.org/2000/svg" xmlns:xlink="http://www.w3.org/1999/xlink" x="0px" y="0px"
	 viewBox="0 0 800 600" style="enable-background:new 0 0 800 600;" xml:space="preserve">
<path d="M442.3,507.9c-29,0-55.4,0-83.3,0c0-110.7,0-221.1,0-332.6c-28.6,0-55.6,0-83.8,0c0,110.6,0,220.6,0,331.8
	c-28.2,0-55.2,0-83.2,0c0-138,0-275.9,0-414.9c138.3,0,276.6,0,416,0c0,138.1,0,275.9,0,414.9c-26.6,0-53.7,0-82.4,0
	c0-110.4,0-220.8,0-332c-28.3,0-55,0-83.3,0C442.3,285.8,442.3,396.1,442.3,507.9z"/>
</svg>
