<?xml version="1.0" encoding="utf-8"?>
<!-- Generator: Adobe Illustrator 19.2.1, SVG Export Plug-In . SVG Version: 6.00 Build 0)  -->
<!DOCTYPE svg PUBLIC "-//W3C//DTD SVG 1.1//EN" "http://www.w3.org/Graphics/SVG/1.1/DTD/svg11.dtd">
<svg version="1.1" id="Layer_1" xmlns="http://www.w3.org/2000/svg" xmlns:xlink="http://www.w3.org/1999/xlink" x="0px" y="0px"
	 viewBox="0 0 800 600" style="enable-background:new 0 0 800 600;" xml:space="preserve">
<g>
	<path d="M373.7,247.8l25.3-78.1c58.3,20.5,100.7,38.3,127.1,53.4c-7-66.4-10.6-112.1-11-137h79.8c-1.1,36.3-5.3,81.8-12.7,136.5
		c37.8-19.1,81.1-36.7,129.9-52.8l25.3,78.1c-46.6,15.4-92.3,25.7-137,30.8c22.4,19.4,53.9,54.1,94.6,104l-66,46.8
		c-21.3-29-46.4-68.4-75.4-118.3c-27.1,51.7-51,91.2-71.5,118.3l-64.9-46.8c42.5-52.5,73-87.1,91.3-104
		C461.2,269.4,416.2,259.1,373.7,247.8z"/>
</g>
<g>
	<path d="M148.2,461.3l9.1-28c20.9,7.4,36.1,13.7,45.6,19.1c-2.5-23.8-3.8-40.2-3.9-49.1h28.6c-0.4,13-1.9,29.3-4.5,48.9
		c13.5-6.8,29.1-13.1,46.5-18.9l9.1,28c-16.7,5.5-33.1,9.2-49.1,11c8,7,19.3,19.4,33.9,37.3l-23.7,16.8c-7.6-10.4-16.6-24.5-27-42.4
		c-9.7,18.5-18.3,32.7-25.6,42.4l-23.3-16.8c15.2-18.8,26.2-31.2,32.7-37.3C179.5,469.1,163.4,465.4,148.2,461.3z"/>
</g>
<g>
	<path d="M77.5,123.4l14-43.2c32.2,11.4,55.7,21.2,70.3,29.5c-3.9-36.7-5.9-61.9-6.1-75.7h44.1c-0.6,20.1-2.9,45.2-7,75.4
		c20.9-10.5,44.8-20.3,71.8-29.2l14,43.2c-25.8,8.5-51,14.2-75.7,17c12.4,10.7,29.8,29.9,52.3,57.5l-36.5,25.8
		c-11.8-16-25.7-37.8-41.7-65.4c-15,28.6-28.2,50.4-39.5,65.4l-35.9-25.8c23.5-29,40.3-48.2,50.5-57.5
		C125.8,135.3,101,129.6,77.5,123.4z"/>
</g>
</svg>
