<?xml version="1.0" encoding="utf-8"?>
<!-- Generator: Adobe Illustrator 19.2.1, SVG Export Plug-In . SVG Version: 6.00 Build 0)  -->
<!DOCTYPE svg PUBLIC "-//W3C//DTD SVG 1.1//EN" "http://www.w3.org/Graphics/SVG/1.1/DTD/svg11.dtd">
<svg version="1.1" id="Layer_1" xmlns="http://www.w3.org/2000/svg" xmlns:xlink="http://www.w3.org/1999/xlink" x="0px" y="0px"
	 viewBox="0 0 800 600" enable-background="new 0 0 800 600" xml:space="preserve">
<path d="M97.6,197.7c3.1-20.4,10.1-39.1,26.4-51.3c34.1-25.7,80.9-16.2,118.3-33.9c23.6-11.2,41-32.1,62.3-47.4
	C341,39,388,30.8,432.7,34.3s87.8,18,129.7,33.8c31.3,11.8,48.9,25.3,60.9,56.8c4.3,11.3,10.2,23.1,21.1,28.4
	c10,4.9,21.7,3.2,32.8,2.5c29.2-1.6,40.4,17.9,42.6,44.7c6.5,77.7-17.7,160.1-55.1,227.8c-25.5,46-59.5,71.6-112.8,75
	c-55.1,3.6-110.1-4-165.2-1c-28.9,1.5-57.4,7.4-84.6,17.4c-27.3,10.1-50.6,26.8-76.8,38.9c-32,14.8-67.2,19.9-98.3-0.2
	c-28.4-18.3-41.1-52.5-45.9-84.6C70.8,404.1,93,334,95.1,263.7C95.7,244,94.2,219.9,97.6,197.7z"/>
</svg>
