<?xml version="1.0" encoding="utf-8"?>
<!-- Generator: Adobe Illustrator 19.2.1, SVG Export Plug-In . SVG Version: 6.00 Build 0)  -->
<!DOCTYPE svg PUBLIC "-//W3C//DTD SVG 1.1//EN" "http://www.w3.org/Graphics/SVG/1.1/DTD/svg11.dtd">
<svg version="1.1" id="Layer_1" xmlns="http://www.w3.org/2000/svg" xmlns:xlink="http://www.w3.org/1999/xlink" x="0px" y="0px"
	 viewBox="0 0 800 600" style="enable-background:new 0 0 800 600;" xml:space="preserve">
<style type="text/css">
	.st0{stroke:#000000;stroke-miterlimit:10;}
</style>
<g>
	<line class="st0" x1="363" y1="428.8" x2="494" y2="243"/>
	<line class="st0" x1="357.9" y1="428.8" x2="488.9" y2="243"/>
	<line class="st0" x1="352.8" y1="428.8" x2="483.8" y2="243"/>
	<line class="st0" x1="347.6" y1="428.8" x2="478.6" y2="243"/>
	<line class="st0" x1="342.5" y1="428.8" x2="473.5" y2="243"/>
	<line class="st0" x1="337.4" y1="428.8" x2="468.4" y2="243"/>
	<line class="st0" x1="332.3" y1="428.8" x2="463.3" y2="243"/>
	<line class="st0" x1="327.1" y1="428.8" x2="458.1" y2="243"/>
	<line class="st0" x1="322" y1="428.8" x2="453" y2="243"/>
	<line class="st0" x1="316.9" y1="428.8" x2="447.9" y2="243"/>
	<line class="st0" x1="311.8" y1="428.8" x2="442.8" y2="243"/>
	<line class="st0" x1="306.7" y1="428.8" x2="437.7" y2="243"/>
</g>
<g>
	<line class="st0" x1="370" y1="243" x2="500.5" y2="428.8"/>
	<line class="st0" x1="365.1" y1="243" x2="495.6" y2="428.8"/>
	<line class="st0" x1="360.1" y1="243" x2="490.6" y2="428.8"/>
	<line class="st0" x1="355.2" y1="243" x2="485.7" y2="428.8"/>
	<line class="st0" x1="350.3" y1="243" x2="480.8" y2="428.8"/>
	<line class="st0" x1="345.3" y1="243" x2="475.8" y2="428.8"/>
	<line class="st0" x1="340.4" y1="243" x2="470.9" y2="428.8"/>
	<line class="st0" x1="335.5" y1="243" x2="466" y2="428.8"/>
	<line class="st0" x1="330.5" y1="243" x2="461" y2="428.8"/>
	<line class="st0" x1="325.6" y1="243" x2="456.1" y2="428.8"/>
	<line class="st0" x1="320.7" y1="243" x2="451.2" y2="428.8"/>
	<line class="st0" x1="315.7" y1="243" x2="446.2" y2="428.8"/>
	<line class="st0" x1="310.8" y1="243" x2="441.3" y2="428.8"/>
</g>
</svg>
