<?xml version="1.0" encoding="utf-8"?>
<!-- Generator: Adobe Illustrator 19.2.1, SVG Export Plug-In . SVG Version: 6.00 Build 0)  -->
<!DOCTYPE svg PUBLIC "-//W3C//DTD SVG 1.1//EN" "http://www.w3.org/Graphics/SVG/1.1/DTD/svg11.dtd">
<svg version="1.1" id="Layer_1" xmlns="http://www.w3.org/2000/svg" xmlns:xlink="http://www.w3.org/1999/xlink" x="0px" y="0px"
	 viewBox="0 0 800 600" style="enable-background:new 0 0 800 600;" xml:space="preserve">
<path d="M607.9,257.8c0,29,0,55.4,0,83.3c-110.7,0-221.1,0-332.6,0c0,28.6,0,55.6,0,83.8c110.6,0,220.6,0,331.8,0
	c0,28.2,0,55.2,0,83.2c-138,0-275.9,0-414.9,0c0-138.3,0-276.6,0-416c138.1,0,275.9,0,414.9,0c0,26.6,0,53.7,0,82.4
	c-110.4,0-220.8,0-332,0c0,28.3,0,55,0,83.3C385.8,257.8,496.1,257.8,607.9,257.8z"/>
</svg>
