<?xml version="1.0" encoding="utf-8"?>
<!-- Generator: Adobe Illustrator 19.2.1, SVG Export Plug-In . SVG Version: 6.00 Build 0)  -->
<!DOCTYPE svg PUBLIC "-//W3C//DTD SVG 1.1//EN" "http://www.w3.org/Graphics/SVG/1.1/DTD/svg11.dtd">
<svg version="1.1" id="Layer_1" xmlns="http://www.w3.org/2000/svg" xmlns:xlink="http://www.w3.org/1999/xlink" x="0px" y="0px"
	 viewBox="0 0 800 600" style="enable-background:new 0 0 800 600;" xml:space="preserve">
<rect x="784.7" y="0" width="10.8" height="600"/>
<rect x="706.2" y="0" width="56.6" height="600"/>
<rect x="644.1" y="0" width="40.2" height="600"/>
<rect x="468.2" y="0" width="143" height="600"/>
<rect x="47.2" y="0" width="37.8" height="600"/>
<rect y="0" width="20.7" height="600"/>
<rect x="430.2" y="0" width="18.5" height="600"/>
<rect x="395.5" y="0" width="18.5" height="600"/>
<rect x="360.8" y="0" width="18.5" height="600"/>
<rect x="326.1" y="0" width="18.5" height="600"/>
<rect x="314.2" y="0" width="4.5" height="600"/>
<rect x="305.4" y="0" width="4.5" height="600"/>
<rect x="296.5" y="0" width="4.5" height="600"/>
<rect x="287.7" y="0" width="4.5" height="600"/>
<rect x="278.9" y="0" width="4.5" height="600"/>
<rect x="270" y="0" width="4.5" height="600"/>
<rect x="211.8" y="0" width="18.5" height="600"/>
<rect x="177.1" y="0" width="18.5" height="600"/>
<rect x="165.2" y="0" width="4.5" height="600"/>
<rect x="156.4" y="0" width="4.5" height="600"/>
<rect x="147.5" y="0" width="4.5" height="600"/>
<rect x="138.7" y="0" width="4.5" height="600"/>
<rect x="129.9" y="0" width="4.5" height="600"/>
<rect x="121" y="0" width="4.5" height="600"/>
</svg>
