<?xml version="1.0" encoding="utf-8"?>
<!-- Generator: Adobe Illustrator 19.2.1, SVG Export Plug-In . SVG Version: 6.00 Build 0)  -->
<!DOCTYPE svg PUBLIC "-//W3C//DTD SVG 1.1//EN" "http://www.w3.org/Graphics/SVG/1.1/DTD/svg11.dtd">
<svg version="1.1" id="Layer_1" xmlns="http://www.w3.org/2000/svg" xmlns:xlink="http://www.w3.org/1999/xlink" x="0px" y="0px"
	 viewBox="0 0 800 600" enable-background="new 0 0 800 600" xml:space="preserve">
<path d="M157.8,549.5c-10.4-14.1-15.3-32.2-11.1-49.2c4.2-16.8,16.5-33,11.9-49.7c-3.5-12.7-15.7-20.6-26.2-28.6
	c-15.5-11.7-29.1-25.9-40.2-41.9c-6.5-9.3-12.2-19.7-12.3-31c0-10.5,4.8-20.2,9.8-29.4c11.9-21.8,27.3-44.5,51.2-51.6
	c11.1-3.3,24.1-3.3,32.4-11.4c10.1-9.8,8.2-26.1,7-40.1c-1.9-22.9-3.7-58.5,13.8-75.2c18.9-18,45.1-31.4,69-41.1
	c14.8-6,30.6-10.8,46.6-10c16,0.8,32.4,7.9,41.1,21.3c11,16.8,8.2,39.4,17.5,57.2c10.7,20.4,38,30.2,59.2,21.1
	c17.5-7.5,28.5-24.6,38.5-40.7c17.4-28.2,34.8-56.5,52.2-84.7c5.8-9.4,11.9-19.1,21.1-25.1c9.9-6.4,22.2-7.7,34-8
	c33.4-0.7,74.6,1.7,103,22.4c34.6,25.2,25,75.9,28.6,113.2c1.3,13.6,2.6,27.8-1.9,40.7c-10,28.9-43.5,40.8-66.5,60.9
	c-5.9,5.2-11.5,11.7-12.1,19.5c-0.7,9.5,6.1,17.7,12.4,24.9c13.6,15.1,28.5,29,42.5,43.8c9.7,10.3,25.7,20.6,29.4,35.6
	c5,20.6-14.4,31.5-27.8,42.9c-13.9,11.9-28.7,22.7-43.7,33.1c-15.5,10.7-32.5,20.8-51.3,21.9c-29.6,1.7-55.6-19.1-75.2-41.4
	c-19.5-22.3-36.6-48.1-62.6-62.5c-25.9-14.4-64.7-11.7-78.3,14.6c-12.4,24.1,2.1,53.3,19.2,74.4c9.2,11.4,15.2,24.7-0.3,33.5
	c-23.6,13.5-50.7,17.3-75.3,28.5c-21.9,10-40.9,25.8-63.5,34.1c-24.1,8.9-52.4,8.2-74.2-5.3C168.9,561.8,162.7,556.1,157.8,549.5z"
	/>
</svg>
