<?xml version="1.0" encoding="utf-8"?>
<!-- Generator: Adobe Illustrator 19.2.1, SVG Export Plug-In . SVG Version: 6.00 Build 0)  -->
<!DOCTYPE svg PUBLIC "-//W3C//DTD SVG 1.1//EN" "http://www.w3.org/Graphics/SVG/1.1/DTD/svg11.dtd">
<svg version="1.1" id="Layer_1" xmlns="http://www.w3.org/2000/svg" xmlns:xlink="http://www.w3.org/1999/xlink" x="0px" y="0px"
	 viewBox="0 0 800 600" enable-background="new 0 0 800 600" xml:space="preserve">
<path d="M800,22.9c0,0-233.2,0-447.8,0c-2.7,0-5.4,0-8.1,0c-27-0.9-53-0.9-79.7,0c-2.6,0-5.2,0-7.7,0c-2.6,0-5.1,0-7.7,0
	c-2.9,0-5.7,0.1-8.5,0.8C222,31,218,52,204,64c-2,2-5,2-8,0c-18-13-28-36-49.9-41c-2.4-0.1-4.8-0.1-7.1-0.1c-82.7,0-138.9,0-138.9,0
	V0c0,0,56.2,0,138.9,0c2.4,0,4.7,0,7.1,0C165-3,178,15,196,16c16,1,27-17,44.4-15.9c2.8-0.1,5.6-0.1,8.5-0.1C483.7,0,800,0,800,0
	V22.9z"/>
<path d="M800,62c0,0-105,0-238.9,0c-2.5,0-5.1,0-7.6,0C536,65,527,49,517,37c-3-3-9-2-13-1c-27,8-50,27-78.1,26c-2.7,0-5.5,0-8.2,0
	c-10.8,0-21.5,0-32.3,0c-3.6,0-7.2,0-10.9-0.1C356,62,340,54,322,49c-6-1-11-2-17-1c-16,4-30,14-46.1,13.9
	c-3.3,0.1-6.7,0.1-10.1,0.1c-2.8,0-5.6,0-8.4,0.3C224,67,221,86,208,95c-2,1-6,1-8,0c-14.2-7.5-23.5-22.6-37.5-29.6
	c-2.8-1.4-5.8-2.5-9.1-3.1C123,67,95,70,65.2,62.2c-2.3-0.1-4.5-0.1-6.6-0.2C21.9,62,0,62,0,62V39.1c0,0,25.9,0,68.4,0
	c2.2,0,4.5,0,6.8,0C96,39,118,39,138.9,39.1c2.4,0,4.7,0,7.2,0C156,40,163,47,170,53c11,10,22,36,37,27c15-10,15-34,33.5-40.3
	c2.7-0.5,5.5-0.6,8.4-0.6c3.7,0,7.4,0,11.1,0c31.1-5,61.1-6,91.7,0c3.9,0,7.8,0,11.7,0c23.5,0,47.2,0,70.7,0c2.7,0,5.4,0,8.2,0
	C468,41,489,26,513,19c4-1,8-2,12-1c17,4,26,24,43.7,21c2.5,0,5,0,7.5,0c126.6,0,223.8,0,223.8,0V62z"/>
<path d="M800,101.1c0,0-121.2,0-269.3,0c-2.7,0-5.4,0-8-0.1C503,103,504,78,492,69c-7-6-17,2-25,6c-19,11-38,25-61.4,26
	c-2.9,0-5.7,0.1-8.6,0.1C375,101,353,95,333,85c-4-2-8-3-13-2c-17,4-26,25-45.5,18.2c-2.8-0.1-5.7-0.1-8.5-0.2
	c-33.6,0-65.7,0-95.4,0c-2.7,0-5.4,0-8,0C137,98,129,127,113,141c-3,2-8,4-12,1c-15-14-22-39-45.5-40.9c-3.5,0-6.8,0-10,0
	c-28.7,0-45.5,0-45.5,0V78.1c0,0,18.4,0,49.5,0c3.1,0,6.4,0,9.7,0.1C77,79,88,93,102,100c4,2,9,1,13-1c14-11,28-23,45.7-20.8
	c2.5,0,5,0,7.5,0c25.4,0,52.8,0,81.3,0c3.6,0,7.2,0,10.7,0C278,79,290,66,305,59c4-1,9-2,13-1c23,6,41,20,65.3,19.7
	c4,0.2,7.9,0.3,11.8,0.4c3.8,0,7.6,0,11.5,0c2.7,0,5.4,0,8.1,0C439,79,459,63,481,54c8-2,16-10,23-4c13,10,18,32,37.9,28.1
	c2.6,0,5.1,0,7.6,0c139.4,0,250.4,0,250.4,0V101.1z"/>
<path d="M800,140.1c0,0-69.4,0-167.4,0c-2.4,0-4.9,0-7.4,0C607,140,593,128,577,126c-25-3-48,13-73,14.1c-2.9,0-5.7,0-8.6,0
	c-29.4-9.1-58.4-3.1-87.5,0c-3.7,0-7.4,0-11.1,0c-2.8,0-5.5,0-8.3,0s-5.5,0-8.3,0c-15.2,1.9-31.2-4.1-44.6,4.5
	c-2.7,1.4-5.4,3.1-8,4.8c-13.3,8.5-25,20.5-40.6,25.5c-1,0-4-1-5-1c-12-11-12-36-33.1-33.9c-2.8,0-5.6,0-8.4,0
	c-27.5,0-53.9,0-78.3,0c-2.7,0-5.4,0-8.1,0.1c-20,2.7-26,26.7-44,34.7c-4,1-8-1-11-3c-13-12-22-29-40.7-31.7
	c-3.6-0.1-7.2-0.1-10.5-0.1c-30.1,0-47.8,0-47.8,0v-22.9c0,0,18.4,0,49.7,0c3.5,0,7.1,0,10.9,0.2C78,123,85,140,96,153
	c5,5,10,10,17,4c14-12,19-33,38.5-39.3c2.7-0.4,5.4-0.5,8.2-0.5c27.6,0,57.7,0,89.2,0c2.8,0,5.7,0,8.5,0C271,116,282,127,296,129
	c2.8,0.2,5.6,0,8.3-0.6C316,127,322,113,333,111c19-3,37,6,56,6c4,0.2,7.8,0.2,11.7,0.2C424,118,443,105,463,95c6-3,13-7,18-3
	c12,8,15,28,33.5,25.2c2.7,0,5.4,0,8.2,0C547,118,567,103,590,102c3-1,7-1,11,1c12,6,22,15,36.1,14.2c2.3,0.1,4.6,0.1,6.9,0.1
	c91.9,0,156,0,156,0V140.1z"/>
<path d="M800,179.2c0,0-4.1,0-11.8,0c-1.9,0-4,0-6.4,0C759,179,754,146,734,143c-19-3-28,23-44.1,32c-2.6,1.6-5.3,2.7-8,4.2
	c-23.7,0-50.1,0-78.4,0c-2.5,0-5,0-7.6,0c-19-0.2-19-24.2-30-34.2c-6-5-12,0-18,2c-22,10-39,31-65.3,32.2c-2.8,0-5.6,0-8.5,0
	c-24.7,0-49.9,0-75,0c-3.6,0-7.2,0-10.8,0C358,186,319,175,298,204.8c-1.5,1.8-3,3.7-4.6,5.2c-1.6,1.6-3.4,3-5.4,4s-4.1,1.5-6.1,1.5
	c-2.1,0-4.2-0.3-6.3-1.1c-2.1-0.7-4.2-1.8-6.2-3.1c-6.1-3.9-11.8-10-16.1-15.7c-1.2-2.2-2.1-4.4-3.2-6.5c-2.1-4.1-5.1-7.6-10.1-9.3
	c-2.4-0.6-5.2-0.7-8-0.7c-22,0-43.3,0-63.3,0c-3.3,0-6.6,0-9.9,0C154,178,149,179,145,181c-14,7-24,23-41,19c-18-5-30-21-49-20.8
	c-2.9,0-5.7,0-8.3,0c-29.4,0-46.7,0-46.7,0v-22.9c0,0,17.7,0,47.8,0c3.3,0,6.9,0,10.5,0.2C78,158,87,180,107,184c4,1,8,0,11-2
	c11-10,20-24,36-25.5c2.7-0.2,5.4-0.2,8.1-0.2c24.5,0,50.8,0,78.3,0c2.8,0,5.6,0,8.3,0.3c16.1,3.7,15.3,20.2,19.8,33.2
	c0.9,2.6,2.1,5,3.9,7.2c2.3,2,6,2,7.7,1c2.7-1.5,5.5-3.2,8.2-4.9c2.4-1.5,4.7-3.2,7-4.8c2.3-1.7,4.6-3.4,6.8-5.1
	C318,172,334,156,354.6,156.3c3.8,0,7.5,0,11.3,0c13.8,0,27.6,0,41.5,0c3.5,0,6.9,0,10.4,0c21.2-0.3,41.2-0.3,61.8,0
	c3.4,0,6.8,0,10.2,0c2.8,0,5.5,0,8.3,0c27-2.2,51-33.2,75-22.2c11,6,17,26,35.3,22.2c2.4,0.1,4.8,0.1,7.3,0.1c23.4,0,45.3,0,65.4,0
	c2.9-1.5,5.8-1.9,8.6-2.6C707,151,719,131,737,135c13,3,19,18,32.9,19.9c3.2,0.7,6.1,1.1,8.9,1.4c13.7,0,21.3,0,21.3,0V179.2z"/>
<path d="M800,218.3c0,0-5.8,0-16.4,0c-2.1,0-4.4,0-6.9,0C754,215,752,187,737,173c-2-2-6-3-9-2c-19,11-20,40-42.9,45.4
	c-2.5,0.7-5,1.1-7.6,1.9c-27.9,0-59.4,0-93.1,0c-2.7,0-5.4,0-8.2-0.1C560,220,557,202,550,191c-2-2-5-3-7-2c-26,6-43,29-70.5,29
	c-3.1,0.1-6.1,0.2-9.2,0.3c-2.7,0-5.5,0-8.2,0c-11.8-0.1-23.6-0.2-35.5-0.2c-3.9,0-7.9,0-11.7,0.2C387,219,390,243,377,255
	c-1,1-4,0-6,0c-25-9-42-34-69.5-35.7c-4.1-0.2-8-0.1-11.9-0.1c-13.6-0.2-27.6,1.8-41.5,0.4c-3.5,0-6.9,0-10.4,0
	c-25.3,0.1-50.6,0-75.9-0.4c-3.2-0.1-6.3-0.1-9.5-0.2c-18.6,0.8-25.9,17.6-36.5,30.1c-2.1,2.5-4.4,4.9-6.9,6.9
	c-3.2,2.7-6,3.9-8.6,3.9c-12.9,0.5-19.7-26.6-31.4-35c-6-5-12-6-18.7-6.7c-2.4,0-4.8,0-7.1,0c-27.3,0-43.2,0-43.2,0v-22.9
	c0,0,14.5,0,39.7,0c3.6,0,7.4,0,11.4,0C66,194,79,203,92,210c7,3,14,1,21-1c12-6,23-15,36.7-13.6c3.5,0.1,7,0.1,10.5,0.1
	c38.6,0.5,76.2,0.4,114.6-0.1c2.6,0,5.2,0,7.9,0s5.3,0,8,0c2.8-0.1,5.6-0.2,8.3-0.1c20-0.2,36,11.8,55,16.8c4,1,8,1,12-1
	c10-5,16-15,27.8-15.8c3-0.1,6.1-0.1,9.1-0.1c9.2,0,18.4,0.1,27.5,0.2c2.8,0,5.5,0,8.3,0c8.3,0,16.5,0,24.7,0c3,0,6-0.1,9-0.1
	C505,197,522,163,552,156c19-4,14,26,26,36c2,2,4,3,6.9,2.7c2.4,0.5,5,0.6,7.7,0.6c29.6,0,57.4,0,82.4,0c2.8-0.1,5.5-0.2,8.3-0.7
	C698,189,705,174,715,162c5-7,14-15,22-9c15,11,20,31,35.6,41.1c2.9,1.2,5.6,1.3,8.1,1.3c12.4,0,19.3,0,19.3,0V218.3z"/>
<path d="M800,257.3c0,0-6.1,0-17.2,0c-2.2,0-4.6,0-7.2,0c-12.6-3.3-25.3-5-38.1-5.4c-3.2-0.1-6.4-0.1-9.5,0
	c-27,5.1-52,14.1-79.9,5.5c-2.8-0.1-5.6-0.1-8.5-0.1c-20,0-41.2,0-63.4,0c-5.5,0-11.1,0-16.7,0c-22.6-0.3-46.6-0.3-69.3-0.1
	c-6,0-11.9,0.1-17.9,0.1c-2.8,0-5.5,0-8.3,0c-8-0.1-16-0.2-24-0.2c-4,0-8,0-11.9,0.1C421,258,413,259,409,266c-5,11-10,31-26,23
	c-15.8-8.2-29.8-20.4-46.1-27c-2.7-1.1-5.5-2-8.4-2.8C313,256,311,273,301,281c-3,2-6,1-9,1c-27-6-48-25-74.8-23.7
	c-3.8,0-7.5,0-11.3,0c-13.7,0-27.4-0.1-41.1-0.3c-2.7,0-5.5,0-8.2,0c-16.6-2-26.6,13-34.6,26c-6,10-7,27-17,28c-8,0-13-12-17.3-20.8
	c-1.5-2.5-3-4.9-4.5-7.2c-7.4-11.8-14.1-24.8-29-26.3c-4.2-0.3-8.3-0.3-12.1-0.3c-26.6,0-42.1,0-42.1,0v-22.9c0,0,15.9,0,43.2,0
	c2.3,0,4.6,0,7.1,0c19.9,1.4,28.5,21.5,39,37.8c1.5,2.4,3,4.8,4.6,7.2C95,281,96,284,98,285c22,5,20-33,36.2-41.7
	c2.5-2.2,5.2-4.1,8.2-5.4s6.4-2.1,10.2-2.1c3.2,0.1,6.4,0.2,9.5,0.3c19.1,0.6,38.1,0.8,57.2,0.8c3.5,0,7.1,0,10.7,0.1
	c24.9,2,50.9,9,75-1c3.2-0.1,6.4,0.4,9.6,1.1c21.9,5,38.2,22.5,58.4,33.9c4,2,9,4,11,1c13-11,11-40,34.1-38c3.8,0,7.6,0,11.3,0
	c11.3,0,22.7,0.2,34,0.4c3-0.1,6-0.1,9.1-0.2C489,234,505,229,522,224c14-3,25,6,38.2,9.3c2.5,0.5,5.2,0.7,7.7,1.1
	c32.3,0,62.9,0,90.5,0c3.1,0,6.1,0,9.1,0c8.4-1.4,16.4,1.6,23.6-3.3c2.3-1.1,4.5-2.4,6.5-3.9c10.4-7.4,18.7-18.8,29.3-26.3
	c3-2,7,0,10,3c11,12,20,28,37.6,29.8c2.7,0.3,5.2,0.4,7.5,0.6c11.5,0,17.9,0,17.9,0V257.3z"/>
<path d="M800,296.4c0,0-16.7,0-45.2,0c-3.2,0-6.5,0-9.9,0C738,297,733,301,729,306c-9,11-13,39-29,29c-21-13-35-38-61.4-38.6
	c-2.6,0-5.3,0-8,0c-29.4,0-61.4,0-94.8,0c-2.8-0.1-5.5-0.2-8.3-0.3C506,295,490,278,469,279c-16,1-27,19-44,17.4c-2.9,0-5.8,0-8.7,0
	c-14.5,0-29,0-43.5,0c-3,0-6,0-9.1,0C348,299,333,306,323,321c-2,3-6,6-11,5c-26-7-45-24-70.6-28.5c-3.4-0.7-6.4-0.9-9.3-1.1
	c-10.9,0-21.6,0-32,0c-2.1,0-4.2,0-6.2,0C168,294,151,315,129,324c-2,1-5,1-7,0c-15-8-23-29-42-27.5c-2.2-0.1-4.4-0.1-6.6-0.1
	c-45.5,0-73.4,0-73.4,0v-22.9c0,0,31.6,0,82.3,0c2.4,0.1,4.9,0.1,7.4,0.2c26.3,5.3,51.3,13.3,76,1.2c3.4-0.6,6.7-0.8,10-1
	c9.9,0.1,19.8,0.1,29.6,0.1c3.9,0,7.9,0,11.8,0C251,273,276,299,306,310c2,0,6,1,8-1c9-13,2-36,21.6-35.7c3.9,0,7.9,0,11.8-0.1
	c21.3-0.1,42.7-0.2,64.1-0.1c3.6,0,7.1,0,10.7,0c34.8-8.1,68.8-7.1,103.4,0.3c4.1,0,8.1,0,12.1,0c32.2,0,63,0,91.5,0
	c3.6,0,7.1,0,10.6,0C657,272,671,283,685,292c4,2,8,5,13,5c17-4,22-27,41.3-24.1c2.8,0,5.5,0.1,8.3,0.2c5.5,0.1,11.1,0.3,16.6,0.4
	c5.7,0,10.8,0,15.2,0c13.3,0,20.6,0,20.6,0V296.4z"/>
<path d="M800,335.5c0,0-11.7,0-32.4,0c-2.9,0-6.1,0-9.4,0.1C737,334,730,357,715,366c-14,8-24-13-36-21c-9-7-19-9-29-9.5
	c-2.8,0-5.6,0-8.4,0c-31.1,0-65.2,0-101.1,0c-2.8,0-5.6,0-8.5,0c-4-0.5-8-0.5-12-2.5c-17-8-26-33-47-30c-18,2-17,30-37.4,32.1
	c-3,0.4-5.9,0.4-8.9,0.4c-11.9,0-23.9,0-35.8,0c-2.9,0.1-5.9,0.2-8.7,0.5C367,335,359,351,347,355c-24,7-46-16-70.7-17.1
	c-3.3-0.6-6.5-1.1-10.4-2.4c-30.5,0-59.9,0-87.2,0c-2.7,0-5.5,0.1-8.3,0.6c-22.5,4-35.5,25-56.5,31c-2,0-4,0-6-1
	c-11-10-13-29-30.2-30.1c-3.8-0.4-7.7-0.4-11.5-0.4c-41.3,0-66.4,0-66.4,0v-22.9c0,0,26.4,0,69.7,0c3.9,0,8,0,12.2,0
	C91,313,99,319,103,327c4,9,9,25,20,20c22-9,37-35,64.1-34.3c2.9,0,5.7-0.1,8.6-0.1c14.4,0,29.4,0,44.7,0c2.8,0,5.6,0,8.6,0.2
	C274,313,294,330,319,334c9,1,19,4,26-3c6-7,9-17,19-18c2.7-0.5,5.7-0.5,8.7-0.5c17.4,0,34.8,0,52.2,0c2.9,0,5.8,0,8.7-0.1
	C448,311,454,295,465,289c4-2,9-2,13-1c18,6,30,22,49.5,24.4c2.8,0.2,5.6,0.2,8.3,0.2c36.4,0,71.2,0,102.8,0c2.6,0,5.2,0,7.9,0.1
	C650,313,654,314,658,315c21,8,31,40,52,36c16-3,17-31,35.1-37.8c3.3-0.6,6.6-0.6,9.7-0.6c28.5,0,45.2,0,45.2,0V335.5z"/>
<path d="M800,374.5c0,0-9.3,0-26,0c-3.3,0-7,0-10.8,0.2C743,375,737,399,719,405c-4,1-7-1-10-2c-15-9-24-26-42.5-28.4
	c-2.2,0-4.3,0-6.5-0.1c-22-2.4-32-26.4-46-40.4c-3-2-7-5-10-3c-18,10-16,38-37.6,43.1c-2.5,0.5-5.1,0.5-7.7,0.5c-3.3,0-6.7,0-10,0
	c-3.4,0-6.7,0-10.1,0C529,375,520,374,511,368c-11-8-22-25-36-18s-24,24-41.8,24.4c-3.9,0.2-7.8,0.2-11.7,0.2
	C403,371,392,389,378,392c-45,6-82-28-113-58c-3-1-7,0-9,3c-10,13-15,32-32.3,37.1c-2.7,0.3-5.5,0.4-8.2,0.4c-15.3,0-30.2,0-44.4,0
	c-2.9,0-5.7,0-8.7,0.4C131,383,94,423,70,379c-3-5-12-4-19.3-4.5c-3.5,0-6.9,0-10.1,0c-25.7,0-40.6,0-40.6,0v-22.9
	c0,0,24.8,0,65.6,0c2.1,0,4.3,0,6.5,0.1C87,353,87,373,98,378c23,10,45-24,70.9-25.9c2.2-0.2,4.3-0.4,6.4-0.5c10.4,0,21.1,0,32.1,0
	c2.7,0,5.4,0,8.1,0c20.4,2,24.5-19.9,36.3-31.3c2.7-1.9,5.6-3.5,9.3-4.1c1.9,0.8,4.9,0.8,6.9,1.8c32,42,82,64,127.7,34
	c3.5-0.3,7.3-0.4,11.1-0.4c7,0,14.1,0,21.1,0c3.5,0,7-0.1,10.5-1.1C453,345,460,331,469,318c3-4,8-5,12-3c19,8,28,33,50,36.6
	c3.3,0,6.7,0,10,0s6.6,0,9.9,0c2.6,0,5.2,0,7.8,0C580,350,585,326,600,314c2-1,5-2,7-1c16.6,11.4,26.4,30.4,44.6,36.7
	c2.6,0.9,5.4,1.5,8.4,1.9c23-1.5,33,24.5,53,30.5c2,0,4,0,6-1c15-10,24-31,44.2-29.4c3.9,0,7.5,0,10.9,0c16.7,0,26,0,26,0V374.5z"/>
<path d="M800,413.6c0,0-53.8,0-133.5,0c-2.2-0.1-4.3-0.2-6.5-0.4c-18-1.2-28-17.2-43-27.2c-4-3-7-3-11-1c-16,11-26,29-47.3,28.6
	c-2.6,0-5.2,0-7.8,0c-10.6,0-21.4,0-32.3,0c-3.6,0-7.3-0.1-10.9-0.1c-14.7-1.5-29.7,0.5-44.5-0.1c-3.7,0.1-7.5,0.2-11.2,0.2
	c-41.3,0-83.4,0-124.4,0c-3,0-6,0-9,0C302,414,289,401,274,396c-16-6-28,11-42,16c-3,1-5,1-8.3,1.3c-2.7,0.3-5.5,0.3-8.2,0.3
	c-122.6,0-215.5,0-215.5,0v-22.9c0,0,93,0,215.5,0c2.7,0,5.4-0.1,8.2-0.8C240,384,248,369,258,355c2-2,5-4,8-3c22,7,28,38,52.7,38.7
	c3,0,6,0,9,0c33.6,0,67.8,0,101.8,0c3.8-0.1,7.5-0.2,11.3-0.5c30.3-13.2,59.3-7.2,88.8,0.5c3.6,0,7.2,0,10.8,0c3.6,0,7.1,0,10.7,0
	c2.6,0,5.2,0,7.8,0C585,391,587,353,606,350c24-4,27,37,54,40.4c2.2,0.3,4.4,0.3,6.5,0.3c79.7,0,133.5,0,133.5,0V413.6z"/>
<path d="M800,452.7c0,0-56.9,0-140.4,0c-2.5,0-4.9,0-7.4,0c-2.5,0-5,0-7.6,0C625,451,611,467,592,472c-3,1-5,0-8-1
	c-13-7-23-19-39-18.3c-2.9,0-5.9,0-8.9,0c-20.8,0-42.2,0-63.8,0c-3-0.2-6-0.3-8.9-0.6C442,449,441,425,427,412c-2-1-4-2-6-1
	c-21,12-32,37-57.2,41c-3.1,0.3-6.1,0.5-9.1,0.7c-21.4,0-42.7,0-63.5,0c-3,0-5.9,0-8.9,0c-12.2,0.3-23.2,0.3-35,0
	c-2.9,0-5.7,0-8.6,0c-133.8,0-238.6,0-238.6,0v-22.9c0,0,96.1,0,221.7,0c2.8,0,5.6,0,8.4-0.2c28.9-8.6,57.9-1.6,88,0.2
	c3,0,6.1,0,9.1,0c9.1,0,18.3,0,27.5,0c3,0,6,0,9,0C385,428,399,411,412,395c2.5-2.5,6-6,9.8-7.9s7.8-2.1,11.2,1.9c3,4,5,8,7.5,12
	c1.1,2.1,2.1,4.3,3.2,6.4c3.2,6.4,6.8,12.6,12.2,17.6c1,2,4,5,7.5,4.3c2.9,0.5,5.8,0.5,8.8,0.5c23.8,0,47.3,0,70,0
	c3.3,0,6.5,0,9.7,0C571,433,587,425,604,420c9-3,18,0,27.5,2.9c2.3,0.8,4.7,1.5,7,2.3c6.9,2.2,13.8,4.1,21.1,4.4
	c2.5,0.1,4.9,0.1,7.3,0.2c79.5,0,133.1,0,133.1,0V452.7z"/>
<path d="M800,491.8c0,0-1.2,0-3.6,0c-31.4,6.2-61.4,3.2-92.1,0c-2.7,0-5.4,0-8.1,0c-13.7,0-28.5,0-44.1,0c-2.5,0-5,0-7.6,0
	C621,491,607,512,589,526c-23,17-24-19-36-30c-2-2-5-3-8.1-3.6c-2.8-0.5-5.7-0.6-8.7-0.6c-20.8,0-42.2,0-63.8,0
	c-6-0.2-12-0.4-18-0.7c-24.4-3-48.4-9-72.6-1.2c-3,0.5-6.1,0.8-9.1,1.1c-3,0.3-6,0.5-9.1,0.8C341,492,337,465,321,453c-3-1-6-3-9-2
	c-18,10-25,32-43.9,39.6c-3.9,1.1-7.8,1.2-11.6,1.2c-34.5,0-67.4,0-97.4,0c-2.4,0-4.8,0-7.1-0.2c-20-3.6-18-26.6-27-41.6
	c-4-6-12-5-17,0c-17,15-29,36-52,41.2c-3.3,0.5-6.4,0.5-9.3,0.5c-29.4,0-46.6,0-46.6,0v-22.9c0,0,19,0,51.1,0c3.2,0,6.6,0,10.1-0.3
	C83,466,95,444,113,435c20-11,23,19,35,29c3,3,7,3,10.1,4.3c2.4,0.5,4.9,0.5,7.4,0.5c28.1,0,58.5,0,90.4,0c3.5,0,7.1-0.1,10.8-0.8
	c17.4-5,28.4-19,40.4-31c4-3,9-4,13-1c16,11,22,35,43.7,32.1c2.7-0.6,5.5-0.8,8.2-1.4s5.2-1.3,7.2-2.8c28-27,52-23,75.5,2.7
	c2.9,0.7,5.9,1.1,8.9,2.2c22.1,0,43.9,0,65.2,0c3,0,6.1,0,9.1,0C563,464,566,500,584,501c21,1,33-28,55.6-31.7
	c2.7-0.3,5.3-0.4,8-0.4c32.1,0,60.8,0,84.3,0c4.7,0,9.2,0,13.5,0c7.6,0.1,14.6,0.1,23,0c3.4,0,6.5,0,9.4,0c14.3,0,22.3,0,22.3,0
	V491.8z"/>
<path d="M800,530.9c-23,3.1-32,26.1-50,39.1c-3,2-7,2-10,0c-13-12-15-34-34.2-38.6c-2.7-0.5-5.5-0.5-8.3-0.5c-17,0-35.6,0-55.6,0
	c-2.4,0-4.8,0-7.2,0C610,529,594,551,573,562c-4,2-8,2-11,0c-13-11-17-33-37.7-31.2c-2.8,0-5.6,0-8.4,0c-47.8,0-98,0-147.6,0
	c-2.7-0.3-5.3-0.4-8-0.5C341,530,331,512,316,503c-3-1-7-1-10,1c-14,8-22,23-39.4,25.7c-2.5,0.4-5.1,0.6-7.6,1.2
	c-37.7,0-73.5,0-105.7,0c-2.4,0-4.9,0-7.3,0C125,531,125,505,111,495c-16-12-28,16-41,25c-9,6-18,11-29.4,10.8c-2.9,0-5.6,0-8.2,0
	c-20.7,0-32.4,0-32.4,0v-22.9c0,0,14.9,0,40.6,0c2.9,0,5.8,0,9-0.1C78,501,89,470,114,458c3-1,6,3,7,5c6,17,9,45,32.3,44.9
	c2.4,0,4.9,0,7.4,0c27.3,0,57,0,88.1,0c3.9,0,7.8,0,11.7-0.1C286,505,291,477,311,465c2-1,5-1,7,0c16,12,18,35,36.6,41.7
	c3,1,6,1.2,9,1.2c6,0,12.1-0.1,18.1-0.2c24.2-2.7,48.2,0.3,72.6,0.3c12,0,24,0,35.8,0c12.8,0,25.4,0,37.8,0c3.1,0,6.2,0,9.2,0.3
	C553,509,557,525,564,537c4,8,13,9,19,4c16-13,30-28,50.4-32.8c2.8-0.3,5.5-0.3,8.2-0.3c20,0,38.7,0,55.7,0c2.8,0,5.6,0.1,8.4,0.2
	C722,508,733,524,748,525c19,2,32-20,52-16c1,0,0,6,0,10.4C800,525.2,800,530.9,800,530.9z"/>
<path d="M800,569.9c0,0-0.7,0-1.9,0C773,571,761,597,741,608c-3,1-7,0-9-2c-10-11-13-29-27.7-35c-3.7-0.8-7.6-1.1-11.7-1.1
	c-81.4,0-198.4,0-313.2,0c-10.9,0-21.7,0-32.5,0C326,570,304,568,283,569.7c-10.5,0.2-20.8,0.2-31,0.2c-40.8,0-79.2,0-113.1,0
	c-2.4,0-4.7,0-7,0c-26.9-1.9-54.9-1.9-82.4,0c-3.1,0-6.1,0-9,0c-25.7,0-40.6,0-40.6,0V547c0,0,11.8,0,32.4,0c2.6,0,5.3,0,8.2,0
	C62,549,78,529,98,528c18-1,28,24,48.1,19c2.4,0,4.8,0,7.3,0c32.3,0,68,0,105.7,0c2.5-0.3,5-0.4,7.6-0.5C299,535,328,538,360.3,547
	c2.7,0,5.3,0,8,0c116.7,0,236.9,0,320.8,0c4.2,0,8.3,0,12.3,0c19.6,3,22.6,25,33.6,39c6,8,13,2,18-2c15-13,25-35,47-37
	c0,0,0,5.7,0,11.5S800,569.9,800,569.9z"/>
<path d="M800,609H0v-22.9c0,0,22.2,0,59.3,0c3.4,0,6.9,0,10.5,0c12.3-0.1,23.3-0.1,35.5,0c4.3,0,8.6,0,13.1,0
	c222.6,0,681.7,0,681.7,0V609z"/>
</svg>
