<!DOCTYPE svg PUBLIC "-//W3C//DTD SVG 1.1//EN" 
"http://www.w3.org/Graphics/SVG/1.1/DTD/svg11.dtd">
<?xml-stylesheet type="text/css" href="../style.css" ?>
<svg preserveAspectRatio="none" xmlns="http://www.w3.org/2000/svg" viewBox="0 0 45.51 880.2"><defs>100%</defs><title>!</title><path class="a" d="M0.33,880.2V866.65H24.18a32.63,32.63,0,0,0,7.35-.5A7.55,7.55,0,0,0,35.88,862a20.26,20.26,0,0,0,1.64-8.95q0-5.77-1.54-8.69a6.33,6.33,0,0,0-3.79-3.52,32.75,32.75,0,0,0-7.47-.59H0.37V826.71H23.5q7.92,0,11.2,1.1a11.41,11.41,0,0,1,5.52,4,22.7,22.7,0,0,1,3.58,7.89,50.84,50.84,0,0,1,1.32,12.9q0,9.61-1.47,14.57a22.54,22.54,0,0,1-3.79,7.85,11.45,11.45,0,0,1-4.88,3.8q-3.78,1.33-11.17,1.33H0.33Z"/><path class="a" d="M44.41,812.07H0.76V798.52H37l0-33.68h7.41Z"/><path class="a" d="M44.47,747H7.91l0,19.9H0.44L0.5,713.65H7.94l0,19.86H44.48V747Z"/><path class="a" d="M44.51,704.86h-44l0-28.51q0-10.75,1.2-15.63A15.72,15.72,0,0,1,6,652.93a9.72,9.72,0,0,1,15.11,1.51q3.22,4.44,4.05,13.27a33.44,33.44,0,0,1,3.7-7.25A57.44,57.44,0,0,1,36,652.75l8.59-8.19,0,16.2L35,670.55a72.19,72.19,0,0,0-6.48,7.14,11.69,11.69,0,0,0-1.83,4.07,33.47,33.47,0,0,0-.5,6.82v2.75H44.53v13.54ZM19.13,691.32v-10q0-9.75-.53-12.17a7.77,7.77,0,0,0-1.86-3.8,4.39,4.39,0,0,0-3.3-1.37,4.29,4.29,0,0,0-3.59,1.81,10.24,10.24,0,0,0-1.73,5.1Q8,672.51,8,680.75v10.57H19.13Z"/><path class="a" d="M44.64,576.75v14.73l-10,5.86,0,26.81,10,5.54v14.37l-44-26.13V603.61ZM27.2,601.68l-16.34,9.24L27.18,620Z"/><path class="a" d="M44.64,569.2H1V555.65H37.24l0-33.68h7.42Z"/><path class="a" d="M44.7,512.73h-44V499.19h44v13.54Z"/><path class="a" d="M28.58,455.08H21.16l0-29.19H38.72q2.7,4.26,4.75,12.33a66.06,66.06,0,0,1,2,16.36,52.8,52.8,0,0,1-2.92,18.35q-2.9,7.83-8.3,11.76a19.48,19.48,0,0,1-11.73,3.93,18.68,18.68,0,0,1-12.21-4.39Q5,479.84,2.18,471.37A50.46,50.46,0,0,1,0,455.31q0-12.49,3.46-19.52t9.51-9l1.64,13.45a10.39,10.39,0,0,0-5.12,5.33,22.56,22.56,0,0,0-1.88,9.77q0,8.88,3.68,14.12t11,5.24q7.83,0,11.76-5.31t3.93-13.91a34.27,34.27,0,0,0-1.09-8.53,35.83,35.83,0,0,0-2.65-7.34H28.59v15.51Z"/><path class="a" d="M44.8,413.36h-44V399.81H18.13l0-26.54H0.83V359.73h44v13.54H25.6l0,26.54H44.81v13.54Z"/><path class="a" d="M44.88,330.63H8.32l0,19.9H0.85l0.05-53.3H8.35l0,19.86H44.89v13.54Z"/><path class="a" d="M0.94,262.41l0-26.81a117.4,117.4,0,0,1,.45-11.87,23.42,23.42,0,0,1,1.82-7,15.09,15.09,0,0,1,3.68-5.15,7.52,7.52,0,0,1,5.15-2.06,7.94,7.94,0,0,1,5.67,2.54,15.69,15.69,0,0,1,3.87,6.89q1.18-6.13,4-9.42a8.51,8.51,0,0,1,6.64-3.29,9.62,9.62,0,0,1,5.84,2.13,14.82,14.82,0,0,1,4.53,5.81,26.23,26.23,0,0,1,2.08,9.08q0.24,3.39.28,16.33l0,22.83h-44Zm7.34-13.54H18.45V240q0-7.91-.14-9.84a11.56,11.56,0,0,0-1.57-5.47,4,4,0,0,0-6.75-.27,9.87,9.87,0,0,0-1.55,5.1q-0.15,2-.16,11.58v7.78Zm17.5,0H37.54V236.33q0-7.32-.26-9.29a10.21,10.21,0,0,0-1.75-4.92,4.4,4.4,0,0,0-3.74-1.9,4.45,4.45,0,0,0-3.36,1.46,9,9,0,0,0-2,4.23q-0.63,2.77-.64,12v10.94Z"/><path class="a" d="M45,194.78H1l0-49.74H8.5l0,36.19h9.75l0-33.68h7.42l0,33.68h12l0-37.47h7.41Z"/><path class="a" d="M45.13,71.79V86.52l-10,5.86,0,26.81,10,5.54V139.1L1.09,113V98.65ZM27.7,96.73L11.36,106,27.68,115Z"/><path class="a" d="M45.14,64.79h-44l0-20.27,30-12.17-30-12L1.2,0h44V12.58H10.55L45.18,25.9v13L10.51,52.21H45.15V64.79Z"/></svg>