<!DOCTYPE svg PUBLIC "-//W3C//DTD SVG 1.1//EN" 
"http://www.w3.org/Graphics/SVG/1.1/DTD/svg11.dtd">
<?xml-stylesheet type="text/css" href="../style.css" ?>
<svg preserveAspectRatio="none"  xmlns="http://www.w3.org/2000/svg" viewBox="0 0 46.42 1577.97"><defs>100%</defs><title>!</title><path class="a" d="M44.35,1578h-44l0-46H7.83l0,32.44H18.22l0-28h7.44l0,28h18.7V1578Z"/><path class="a" d="M44.46,1465.5v14.73l-10,5.86,0,26.81,10,5.54v14.37l-44-26.13v-14.32ZM27,1490.44l-16.34,9.24L27,1508.74Z"/><path class="a" d="M44.47,1450.17H7.91l0,19.9H0.45l0.05-53.31H7.94l0,19.86H44.49v13.54Z"/><path class="a" d="M44.51,1408h-44v-13.54H17.84l0-26.54H0.55v-13.54h44v13.54H25.31l0,26.54H44.53V1408Z"/><path class="a" d="M44.58,1340.36h-44l0-49.74H8.07l0,36.19h9.75l0-33.68h7.41l0,33.68h12l0-37.47h7.41Z"/><path class="a" d="M44.64,1277.81h-44l0-28.51q0-10.75,1.2-15.63a15.74,15.74,0,0,1,4.22-7.8,9.72,9.72,0,0,1,15.11,1.51q3.22,4.44,4.05,13.27a33.53,33.53,0,0,1,3.7-7.25,57.51,57.51,0,0,1,7.15-7.71l8.59-8.19,0,16.2-9.58,9.79a72.24,72.24,0,0,0-6.48,7.14,11.73,11.73,0,0,0-1.83,4.07,33.47,33.47,0,0,0-.5,6.82v2.75H44.66v13.54Zm-25.38-13.54v-10q0-9.75-.53-12.17a7.78,7.78,0,0,0-1.86-3.8,4.39,4.39,0,0,0-3.3-1.37,4.29,4.29,0,0,0-3.59,1.81,10.24,10.24,0,0,0-1.73,5.1q-0.15,1.65-.16,9.88v10.57H19.26Z"/><path class="a" d="M30.41,1187.58l-0.83-13.18a10,10,0,0,0,6.4-4.83q2-3.64,2.05-9.81,0-6.54-1.81-9.86T32,1146.59a3.28,3.28,0,0,0-2.66,1.4,13.12,13.12,0,0,0-1.91,4.87q-0.54,2.38-1.93,10.84-1.78,10.89-4.37,15.28-3.64,6.18-8.86,6.18A8.82,8.82,0,0,1,6,1182.25a18.61,18.61,0,0,1-4.45-8.37A49.48,49.48,0,0,1,0,1160.68q0-12.63,3.65-19t9.7-6.7l0.38,13.54a7.24,7.24,0,0,0-4.88,3.73q-1.49,2.86-1.49,8.58a21.9,21.9,0,0,0,1.58,9.24q1,2.15,2.73,2.15t2.67-2q1.41-2.56,3-12.45a91.34,91.34,0,0,1,3.18-14.62,18.13,18.13,0,0,1,4.48-7.41,9.83,9.83,0,0,1,7-2.68,10,10,0,0,1,7.08,3.2,19.48,19.48,0,0,1,4.9,9.06,56.16,56.16,0,0,1,1.59,14.6q0,12.72-3.88,19.54A15.62,15.62,0,0,1,30.41,1187.58Z"/><path class="a" d="M44.81,1106.55H8.25l0,19.9H0.78l0.05-53.3H8.28l0,19.86H44.82v13.54Z"/><path class="a" d="M44.85,1064.36h-44l0-28.51q0-10.75,1.2-15.63a15.72,15.72,0,0,1,4.23-7.8,9.72,9.72,0,0,1,15.11,1.51q3.22,4.44,4.05,13.27a33.48,33.48,0,0,1,3.7-7.25,57.46,57.46,0,0,1,7.15-7.71l8.59-8.19,0,16.2L35.31,1030a72.06,72.06,0,0,0-6.48,7.14,11.69,11.69,0,0,0-1.83,4.07,33.45,33.45,0,0,0-.5,6.82v2.75H44.87v13.54Zm-25.38-13.54v-10q0-9.75-.53-12.17a7.78,7.78,0,0,0-1.86-3.8,4.39,4.39,0,0,0-3.3-1.37,4.29,4.29,0,0,0-3.59,1.81,10.23,10.23,0,0,0-1.73,5.1q-0.15,1.65-.16,9.88v10.57H19.47Z"/><path class="a" d="M44.92,996.74h-44L1,947H8.41l0,36.19h9.76l0-33.68h7.41l0,33.68h12l0-37.47H45Z"/><path class="a" d="M45,919.13H8.43l0,19.9H1L1,885.73H8.46l0,19.86H45v13.54Z"/><path class="a" d="M28.9,834.08l2.74-13.13a20.39,20.39,0,0,1,10.69,10q3.49,7,3.48,17.82,0,13.36-6,22a18.94,18.94,0,0,1-16.38,8.6q-11,0-17.06-8.65T0.31,848q0-12.31,4.79-20a17.34,17.34,0,0,1,8.11-6.86l2.09,13.41a9.71,9.71,0,0,0-5.41,5,19.55,19.55,0,0,0-2,9.17q0,7.46,3.5,12.1t11.37,4.64q8.35,0,11.89-4.58t3.55-11.9A18.23,18.23,0,0,0,36,839.66,12.62,12.62,0,0,0,28.9,834.08Z"/><path class="a" d="M45.1,809.28h-44V795.73H18.43l0-26.54H1.13V755.65h44V769.2H25.9l0,26.54H45.11v13.54Z"/><path class="a" d="M45.19,715.8h-44l0-20.27,30-12.17-30-12,0-20.32h44v12.58H10.6l34.63,13.31v13L10.56,703.22H45.21V715.8Z"/><path class="a" d="M45.29,619.94H26.77L1.26,644.51l0-15.88L18.7,612.85,1.3,597.38l0-15.6,25.52,24.66H45.3v13.5Z"/><path class="a" d="M45.35,550.67h-44V537.12H18.68l0-26.54H1.39V497h44v13.54H26.15l0,26.54H45.37v13.54Z"/><path class="a" d="M45.48,422.55v14.73l-10,5.86,0,26.81,10,5.54v14.37l-44-26.13V449.41ZM28,447.49l-16.34,9.24L28,465.79Z"/><path class="a" d="M45.49,415.23h-44V402.05L30.91,374.6H1.52V362h44v13.59l-28.72,27H45.5v12.58Z"/><path class="a" d="M1.55,347.74l0-24.75a72.9,72.9,0,0,1,.85-12.77,26.38,26.38,0,0,1,4.06-10.11,19.69,19.69,0,0,1,7.14-6.41,22.34,22.34,0,0,1,10.4-2.2,19.94,19.94,0,0,1,9.36,2.06,20.19,20.19,0,0,1,7.77,7.18,28.79,28.79,0,0,1,3.5,9.52,61.47,61.47,0,0,1,.92,12l0,25.49h-44ZM9,334.2H38.15V324.09a55.84,55.84,0,0,0-.41-8.19,15.62,15.62,0,0,0-1.83-5.47,9.26,9.26,0,0,0-4.24-3.55,19.46,19.46,0,0,0-8.06-1.37,17.88,17.88,0,0,0-7.84,1.37,10.39,10.39,0,0,0-4.27,3.84A16.16,16.16,0,0,0,9.44,317,93.26,93.26,0,0,0,9,328.11v6.08Z"/><path class="a" d="M31.3,283.46l-0.83-13.18a10,10,0,0,0,6.4-4.83q2-3.64,2.05-9.81,0-6.54-1.81-9.86t-4.24-3.32a3.28,3.28,0,0,0-2.66,1.4,13.12,13.12,0,0,0-1.91,4.87q-0.54,2.38-1.93,10.84Q24.59,270.46,22,274.85,18.36,281,13.14,281a8.83,8.83,0,0,1-6.29-2.91,18.62,18.62,0,0,1-4.45-8.37,49.45,49.45,0,0,1-1.52-13.2q0-12.63,3.65-19t9.7-6.7l0.38,13.54a7.23,7.23,0,0,0-4.88,3.73q-1.49,2.86-1.5,8.58a21.9,21.9,0,0,0,1.58,9.24q1,2.15,2.73,2.15,1.56,0,2.67-2,1.41-2.56,3-12.45A91.42,91.42,0,0,1,21.36,239a18.12,18.12,0,0,1,4.48-7.41,9.83,9.83,0,0,1,7-2.68,10,10,0,0,1,7.08,3.2,19.48,19.48,0,0,1,4.9,9.06,56.16,56.16,0,0,1,1.59,14.6q0,12.72-3.88,19.54A15.62,15.62,0,0,1,31.3,283.46Z"/><path class="a" d="M45.71,191.49H1.7l0-21.73q0-12.35.68-16.11A19.71,19.71,0,0,1,6.72,144a10.75,10.75,0,0,1,8.57-3.89,10.45,10.45,0,0,1,6.81,2.24,15.45,15.45,0,0,1,4.33,5.7,25.52,25.52,0,0,1,2.08,7,117,117,0,0,1,.62,14v8.83h16.6v13.54ZM9.16,177.94H21.65v-7.41q0-8-.68-10.71a9.32,9.32,0,0,0-2.16-4.23,4.6,4.6,0,0,0-3.42-1.53,4.73,4.73,0,0,0-4,2.15,11.42,11.42,0,0,0-2,5.45q-0.3,2.43-.31,9.75v6.54Z"/><path class="a" d="M45.78,113.89H9.22l0,19.9H1.76L1.81,80.48H9.25l0,19.86H45.8v13.54Z"/><path class="a" d="M45.81,82.22H37.38V69.36h8.43V82.22Z"/><path class="a" d="M45.89,0V12.86H14.09a52.94,52.94,0,0,1,6.38,16.61H12.82A45.17,45.17,0,0,0,8.73,18.53q-3-5.9-7-8.1V0H45.89Z"/></svg>