<!DOCTYPE svg PUBLIC "-//W3C//DTD SVG 1.1//EN" 
"http://www.w3.org/Graphics/SVG/1.1/DTD/svg11.dtd">
<?xml-stylesheet type="text/css" href="../style.css" ?>
<svg preserveAspectRatio="none"  xmlns="http://www.w3.org/2000/svg" viewBox="0 0 46.42 1588.49"><defs>100%</defs><title>!</title><path class="a" d="M44.35,1588.49h-44l0-46H7.83l0,32.44H18.22l0-28h7.44l0,28h18.7v13.54Z"/><path class="a" d="M44.46,1476v14.73l-10,5.86,0,26.81,10,5.54v14.37l-44-26.13v-14.32ZM27,1501l-16.34,9.24L27,1519.26Z"/><path class="a" d="M44.47,1460.7H7.91l0,19.9H0.45L0.5,1427.3H7.94l0,19.86H44.49v13.54Z"/><path class="a" d="M44.51,1418.51h-44V1405H17.84l0-26.54H0.55v-13.54h44v13.54H25.31l0,26.54H44.53v13.54Z"/><path class="a" d="M44.58,1350.88h-44l0-49.74H8.07l0,36.19h9.75l0-33.68h7.41l0,33.68h12l0-37.47h7.41Z"/><path class="a" d="M44.64,1288.34h-44l0-28.51q0-10.75,1.2-15.63a15.74,15.74,0,0,1,4.22-7.8,9.72,9.72,0,0,1,15.11,1.51q3.22,4.44,4.05,13.27a33.53,33.53,0,0,1,3.7-7.25,57.51,57.51,0,0,1,7.15-7.71L44.7,1228l0,16.2L35.1,1254a72.24,72.24,0,0,0-6.48,7.14,11.73,11.73,0,0,0-1.83,4.07,33.47,33.47,0,0,0-.5,6.82v2.75H44.66v13.54Zm-25.38-13.54v-10q0-9.75-.53-12.17a7.78,7.78,0,0,0-1.86-3.8,4.39,4.39,0,0,0-3.3-1.37,4.29,4.29,0,0,0-3.59,1.81,10.24,10.24,0,0,0-1.73,5.1q-0.15,1.65-.16,9.88v10.57H19.26Z"/><path class="a" d="M30.41,1198.11l-0.83-13.18a10,10,0,0,0,6.4-4.83q2-3.64,2.05-9.81,0-6.54-1.81-9.86T32,1157.11a3.28,3.28,0,0,0-2.66,1.4,13.12,13.12,0,0,0-1.91,4.87q-0.54,2.38-1.93,10.84-1.78,10.89-4.37,15.28-3.64,6.18-8.86,6.18A8.82,8.82,0,0,1,6,1192.78a18.61,18.61,0,0,1-4.45-8.37A49.48,49.48,0,0,1,0,1171.2q0-12.63,3.65-19t9.7-6.7L13.73,1159a7.24,7.24,0,0,0-4.88,3.73q-1.49,2.86-1.49,8.58a21.9,21.9,0,0,0,1.58,9.24q1,2.15,2.73,2.15t2.67-2q1.41-2.56,3-12.45a91.34,91.34,0,0,1,3.18-14.62,18.13,18.13,0,0,1,4.48-7.41,9.83,9.83,0,0,1,7-2.68,10,10,0,0,1,7.08,3.2,19.48,19.48,0,0,1,4.9,9.06,56.16,56.16,0,0,1,1.59,14.6q0,12.72-3.88,19.54A15.62,15.62,0,0,1,30.41,1198.11Z"/><path class="a" d="M44.81,1117.08H8.25l0,19.9H0.78l0.05-53.3H8.28l0,19.86H44.82v13.54Z"/><path class="a" d="M44.85,1074.89h-44l0-28.51q0-10.75,1.2-15.63A15.72,15.72,0,0,1,6.3,1023a9.72,9.72,0,0,1,15.11,1.51q3.22,4.44,4.05,13.27a33.48,33.48,0,0,1,3.7-7.25,57.46,57.46,0,0,1,7.15-7.71l8.59-8.19,0,16.2-9.58,9.79a72.06,72.06,0,0,0-6.48,7.14,11.69,11.69,0,0,0-1.83,4.07,33.45,33.45,0,0,0-.5,6.82v2.75H44.87v13.54Zm-25.38-13.54v-10q0-9.75-.53-12.17a7.78,7.78,0,0,0-1.86-3.8,4.39,4.39,0,0,0-3.3-1.37,4.29,4.29,0,0,0-3.59,1.81,10.23,10.23,0,0,0-1.73,5.1q-0.15,1.65-.16,9.88v10.57H19.47Z"/><path class="a" d="M44.92,1007.26h-44l0-49.74H8.41l0,36.19h9.76l0-33.68h7.41l0,33.68h12l0-37.47H45Z"/><path class="a" d="M45,929.66H8.43l0,19.9H1L1,896.26H8.46l0,19.86H45v13.54Z"/><path class="a" d="M28.9,844.6l2.74-13.13a20.39,20.39,0,0,1,10.69,10q3.49,7,3.48,17.82,0,13.36-6,22a18.94,18.94,0,0,1-16.38,8.6q-11,0-17.06-8.65T0.31,858.51q0-12.31,4.79-20a17.34,17.34,0,0,1,8.11-6.86l2.09,13.41a9.71,9.71,0,0,0-5.41,5,19.55,19.55,0,0,0-2,9.17q0,7.46,3.5,12.1t11.37,4.64q8.35,0,11.89-4.58t3.55-11.9A18.23,18.23,0,0,0,36,850.18,12.62,12.62,0,0,0,28.9,844.6Z"/><path class="a" d="M45.1,819.8h-44V806.26H18.43l0-26.54H1.13V766.18h44v13.54H25.9l0,26.54H45.11V819.8Z"/><path class="a" d="M45.19,726.32h-44l0-20.27,30-12.17-30-12,0-20.32h44v12.58H10.6l34.63,13.31v13L10.56,713.74H45.21v12.58Z"/><path class="a" d="M45.29,630.46H26.77L1.26,655l0-15.88L18.7,623.37,1.3,607.91l0-15.6L26.84,617H45.3v13.5Z"/><path class="a" d="M45.35,561.19h-44V547.65H18.68l0-26.54H1.39V507.57h44v13.54H26.15l0,26.54H45.37v13.54Z"/><path class="a" d="M45.48,433.08v14.73l-10,5.86,0,26.81,10,5.54v14.37l-44-26.13V459.93ZM28,458l-16.34,9.24L28,476.31Z"/><path class="a" d="M45.49,425.75h-44V412.58l29.42-27.45H1.52V372.54h44v13.59l-28.72,27H45.5v12.58Z"/><path class="a" d="M1.55,358.27l0-24.75a72.9,72.9,0,0,1,.85-12.77,26.38,26.38,0,0,1,4.06-10.11,19.69,19.69,0,0,1,7.14-6.41A22.34,22.34,0,0,1,24,302a19.94,19.94,0,0,1,9.36,2.06,20.19,20.19,0,0,1,7.77,7.18,28.79,28.79,0,0,1,3.5,9.52,61.47,61.47,0,0,1,.92,12l0,25.49h-44ZM9,344.72H38.15V334.61a55.84,55.84,0,0,0-.41-8.19A15.62,15.62,0,0,0,35.92,321a9.26,9.26,0,0,0-4.24-3.55A19.46,19.46,0,0,0,23.62,316a17.88,17.88,0,0,0-7.84,1.37,10.39,10.39,0,0,0-4.27,3.84,16.16,16.16,0,0,0-2.08,6.27A93.26,93.26,0,0,0,9,338.64v6.08Z"/><path class="a" d="M31.3,294L30.47,280.8a10,10,0,0,0,6.4-4.83q2-3.64,2.05-9.81,0-6.54-1.81-9.86T32.87,253a3.28,3.28,0,0,0-2.66,1.4,13.12,13.12,0,0,0-1.91,4.87q-0.54,2.38-1.93,10.84Q24.59,281,22,285.38q-3.64,6.18-8.86,6.18a8.83,8.83,0,0,1-6.29-2.91,18.62,18.62,0,0,1-4.45-8.37,49.45,49.45,0,0,1-1.52-13.2q0-12.63,3.65-19t9.7-6.7l0.38,13.54a7.23,7.23,0,0,0-4.88,3.73q-1.49,2.86-1.5,8.58a21.9,21.9,0,0,0,1.58,9.24q1,2.15,2.73,2.15,1.56,0,2.67-2,1.41-2.56,3-12.45a91.42,91.42,0,0,1,3.18-14.62,18.12,18.12,0,0,1,4.48-7.41,9.83,9.83,0,0,1,7-2.68,10,10,0,0,1,7.08,3.2,19.48,19.48,0,0,1,4.9,9.06,56.16,56.16,0,0,1,1.59,14.6q0,12.72-3.88,19.54A15.62,15.62,0,0,1,31.3,294Z"/><path class="a" d="M45.71,202H1.7l0-21.73q0-12.35.68-16.11a19.71,19.71,0,0,1,4.32-9.65,10.75,10.75,0,0,1,8.57-3.89,10.45,10.45,0,0,1,6.81,2.24,15.45,15.45,0,0,1,4.33,5.7,25.52,25.52,0,0,1,2.08,7,117,117,0,0,1,.62,14v8.83h16.6V202ZM9.16,188.47H21.65v-7.41q0-8-.68-10.71a9.32,9.32,0,0,0-2.16-4.23,4.6,4.6,0,0,0-3.42-1.53,4.73,4.73,0,0,0-4,2.15,11.42,11.42,0,0,0-2,5.45q-0.3,2.43-.31,9.75v6.54Z"/><path class="a" d="M45.78,124.41H9.22l0,19.9H1.76L1.81,91H9.25l0,19.86H45.8v13.54Z"/><path class="a" d="M45.81,92.75H37.38V79.89h8.43V92.75Z"/><path class="a" d="M38.07,0h7.83l0,45.07a16.32,16.32,0,0,1-8.42-4.39q-4-3.66-10.54-14.46-5.3-8.69-7.19-10.66-2.61-2.65-5.16-2.65a4.89,4.89,0,0,0-4.34,2.31A11.57,11.57,0,0,0,8.69,21.6,11.38,11.38,0,0,0,10.28,28a6.74,6.74,0,0,0,5.28,2.75L14.7,43.56a12.85,12.85,0,0,1-10-7.18q-3-6-3-15.1,0-9.93,3.53-15.6T14,0a10.76,10.76,0,0,1,5.66,1.62,23.59,23.59,0,0,1,5.62,5.15,74.64,74.64,0,0,1,5.6,8.42q3.66,6.08,4.86,7.71A17,17,0,0,0,38,25.53Z"/></svg>