<!DOCTYPE svg PUBLIC "-//W3C//DTD SVG 1.1//EN" 
"http://www.w3.org/Graphics/SVG/1.1/DTD/svg11.dtd">
<?xml-stylesheet type="text/css" href="../style.css" ?>
<svg preserveAspectRatio="none"  xmlns="http://www.w3.org/2000/svg" viewBox="0 0 45.67 389.38"><defs>100%</defs><title>!</title><path class="a" d="M44.53,389.38h-44l0-46H8l0,32.44H18.4l0-28h7.44l0,28h18.7v13.54Z"/><path class="a" d="M44.64,276.91v14.73l-10,5.86,0,26.81,10,5.54v14.37l-44-26.13V303.77ZM27.21,301.85l-16.34,9.24,16.32,9.06Z"/><path class="a" d="M44.65,269.91h-44l0-20.27,30-12.17-30-12,0-20.31h44V217.7H10.06L44.69,231v13L10,257.33H44.66v12.58Z"/><path class="a" d="M23,194.42a19.77,19.77,0,0,1-11.28-3.07,22.9,22.9,0,0,1-6-6.25,29.12,29.12,0,0,1-4-8.67A54.18,54.18,0,0,1,0,162q0-14.82,6.06-23.72a19.19,19.19,0,0,1,16.79-8.9,19.07,19.07,0,0,1,16.67,8.83q6,8.83,6,23.61,0,15-6,23.79A18.91,18.91,0,0,1,23,194.42Zm-0.29-14q7.48,0,11.34-5.26t3.87-13.36q0-8.1-3.81-13.29t-11.48-5.19q-7.56,0-11.29,5.06T7.59,161.84q0,8.37,3.75,13.5T22.71,180.46Z"/><path class="a" d="M0.79,118.87V105.33H24.64a32.63,32.63,0,0,0,7.35-.5,7.55,7.55,0,0,0,4.34-4.14A20.26,20.26,0,0,0,38,91.74Q38,86,36.44,83a6.33,6.33,0,0,0-3.79-3.52,32.75,32.75,0,0,0-7.47-.59H0.83V65.38H24q7.92,0,11.2,1.1a11.41,11.41,0,0,1,5.52,4,22.7,22.7,0,0,1,3.58,7.89,50.93,50.93,0,0,1,1.32,12.9q0,9.61-1.47,14.57a22.53,22.53,0,0,1-3.79,7.85,11.46,11.46,0,0,1-4.88,3.8q-3.78,1.33-11.17,1.33H0.79Z"/><path class="a" d="M30.54,54.54L29.72,41.36a10,10,0,0,0,6.4-4.83q2-3.64,2.05-9.81,0-6.54-1.81-9.86t-4.24-3.32a3.28,3.28,0,0,0-2.66,1.4,13.12,13.12,0,0,0-1.91,4.87Q27,22.19,25.61,30.66q-1.78,10.89-4.37,15.28-3.64,6.18-8.86,6.18A8.82,8.82,0,0,1,6.1,49.21a18.62,18.62,0,0,1-4.45-8.37A49.45,49.45,0,0,1,.13,27.64q0-12.63,3.65-19t9.7-6.7l0.38,13.54A7.24,7.24,0,0,0,9,19.19q-1.49,2.86-1.49,8.58A21.9,21.9,0,0,0,9.07,37q1,2.15,2.73,2.15t2.67-2q1.41-2.56,3-12.45a91.32,91.32,0,0,1,3.18-14.62,18.12,18.12,0,0,1,4.48-7.41A9.83,9.83,0,0,1,32.1,0a10,10,0,0,1,7.08,3.2,19.48,19.48,0,0,1,4.9,9.06,56.11,56.11,0,0,1,1.59,14.59q0,12.72-3.88,19.54A15.62,15.62,0,0,1,30.54,54.54Z"/></svg>