<!DOCTYPE svg PUBLIC "-//W3C//DTD SVG 1.1//EN" 
"http://www.w3.org/Graphics/SVG/1.1/DTD/svg11.dtd">
<?xml-stylesheet type="text/css" href="../style.css" ?>
<svg preserveAspectRatio="none"  xmlns="http://www.w3.org/2000/svg" viewBox="0 0 45.51 513.51"><defs>100%</defs><title>!</title><path class="a" d="M44.35,513.51h-44l0-46H7.83L7.8,500H18.22l0-28h7.44l0,28h18.7v13.54Z"/><path class="a" d="M44.41,456.37H0.4l0-49.74H7.89l0,36.19h9.76l0-33.68h7.41l0,33.68H37l0-37.47h7.41Z"/><path class="a" d="M44.47,393.86h-44l0-49.74H8l0,36.19h9.76l0-33.68h7.42l0,33.68h12l0-37.47h7.42Z"/><path class="a" d="M0.52,331.41l0-24.75a72.83,72.83,0,0,1,.85-12.77,26.38,26.38,0,0,1,4.06-10.11,19.7,19.7,0,0,1,7.14-6.41,22.35,22.35,0,0,1,10.4-2.2,19.94,19.94,0,0,1,9.36,2.06,20.18,20.18,0,0,1,7.77,7.18,28.76,28.76,0,0,1,3.5,9.52,61.47,61.47,0,0,1,.92,12l0,25.49h-44ZM8,317.86H37.13V307.75a55.84,55.84,0,0,0-.41-8.19,15.62,15.62,0,0,0-1.83-5.47,9.25,9.25,0,0,0-4.24-3.55,19.45,19.45,0,0,0-8.06-1.37,17.89,17.89,0,0,0-7.84,1.37,10.39,10.39,0,0,0-4.27,3.84,16.18,16.18,0,0,0-2.08,6.27A93.26,93.26,0,0,0,8,311.78v6.09Z"/><path class="a" d="M0.59,263.64l0-26.81A117.4,117.4,0,0,1,1.06,225a23.43,23.43,0,0,1,1.82-7,15.09,15.09,0,0,1,3.68-5.15,7.52,7.52,0,0,1,5.15-2.06,7.94,7.94,0,0,1,5.67,2.54,15.68,15.68,0,0,1,3.87,6.89q1.18-6.13,4-9.43a8.51,8.51,0,0,1,6.64-3.29,9.62,9.62,0,0,1,5.84,2.13,14.81,14.81,0,0,1,4.53,5.81,26.23,26.23,0,0,1,2.08,9.08q0.24,3.39.28,16.33l0,22.83h-44ZM7.93,250.1H18.1v-8.88q0-7.91-.14-9.84a11.56,11.56,0,0,0-1.57-5.47,4,4,0,0,0-6.75-.27,9.87,9.87,0,0,0-1.55,5.1q-0.15,2-.16,11.58v7.78Zm17.5,0H37.19V237.56q0-7.32-.26-9.29a10.21,10.21,0,0,0-1.75-4.92,4.4,4.4,0,0,0-3.74-1.9,4.45,4.45,0,0,0-3.36,1.46,9,9,0,0,0-2,4.23q-0.63,2.77-.64,12V250.1Z"/><path class="a" d="M44.72,135.53v14.73l-10,5.86,0,26.81,10,5.54v14.37l-44-26.13V162.39ZM27.29,160.46l-16.34,9.24,16.32,9.06Z"/><path class="a" d="M28.59,85.43l2.74-13.13A20.39,20.39,0,0,1,42,82.34q3.49,7,3.48,17.82,0,13.36-6,22a18.93,18.93,0,0,1-16.38,8.6q-11,0-17.06-8.65T0,99.33Q0,87,4.79,79.34a17.34,17.34,0,0,1,8.11-6.86L15,85.88a9.71,9.71,0,0,0-5.41,5,19.55,19.55,0,0,0-2,9.17q0,7.46,3.5,12.1t11.37,4.64q8.35,0,11.89-4.58t3.55-11.9A18.23,18.23,0,0,0,35.67,91,12.62,12.62,0,0,0,28.59,85.43Z"/><path class="a" d="M44.79,60.49h-44V46.95H20.34L0.83,19.58l0-18.21L18,26.63,44.85,0l0,17.52L24.17,36l7.34,11h13.3V60.49Z"/></svg>