<!DOCTYPE svg PUBLIC "-//W3C//DTD SVG 1.1//EN" 
"http://www.w3.org/Graphics/SVG/1.1/DTD/svg11.dtd">
<?xml-stylesheet type="text/css" href="../style.css" ?>
<svg preserveAspectRatio="none"  xmlns="http://www.w3.org/2000/svg" viewBox="0 0 45.99 576.43"><defs>100%</defs><title>!</title><path class="a" d="M44.67,576.43H1V562.88H37.27l0-33.68h7.41Z"/><path class="a" d="M23,522.3a19.77,19.77,0,0,1-11.28-3.07,22.9,22.9,0,0,1-6-6.25,29.1,29.1,0,0,1-4-8.67A54.17,54.17,0,0,1,0,489.86Q0,475,6.06,466.13a19.19,19.19,0,0,1,16.79-8.9,19.07,19.07,0,0,1,16.67,8.83q6,8.83,6,23.61,0,15-6,23.79A18.91,18.91,0,0,1,23,522.3Zm-0.29-14q7.48,0,11.34-5.26t3.87-13.36q0-8.1-3.81-13.29t-11.48-5.19q-7.56,0-11.29,5.06T7.59,489.72q0,8.37,3.75,13.5T22.71,508.34Z"/><path class="a" d="M44.81,437.15l-44,16V439.3L31,429.18,0.82,416.92l0-16.11,30.75-11.76L0.86,378.76V365.13l44,16.29v14.37L11.94,409.14l32.89,13.32v14.69Z"/><path class="a" d="M44.91,331.82H1.27V318.27H37.51l0-33.67H45Z"/><path class="a" d="M45,275.36H1V261.81H45v13.54Z"/><path class="a" d="M28.84,217.7H21.43l0-29.19H39q2.7,4.26,4.75,12.33a66.05,66.05,0,0,1,2,16.36,52.8,52.8,0,0,1-2.92,18.35q-2.9,7.83-8.3,11.76a19.48,19.48,0,0,1-11.73,3.93,18.68,18.68,0,0,1-12.21-4.39Q5.29,242.46,2.44,234A50.49,50.49,0,0,1,.27,217.93q0-12.49,3.46-19.51t9.51-9l1.64,13.45a10.39,10.39,0,0,0-5.12,5.33,22.55,22.55,0,0,0-1.88,9.77q0,8.88,3.68,14.12t11,5.24q7.83,0,11.76-5.31t3.93-13.91a34.22,34.22,0,0,0-1.09-8.53,35.78,35.78,0,0,0-2.65-7.34H28.86V217.7Z"/><path class="a" d="M45.06,176h-44V162.43H18.39l0-26.54H1.1V122.35h44v13.54H25.86l0,26.54H45.08V176Z"/><path class="a" d="M45.15,93.25H8.58l0,19.9H1.12l0.05-53.3H8.62l0,19.86H45.16V93.25Z"/><path class="a" d="M30.86,54.54L30,41.36a10,10,0,0,0,6.4-4.83q2-3.64,2.05-9.81,0-6.54-1.81-9.86t-4.24-3.32a3.28,3.28,0,0,0-2.66,1.4,13.12,13.12,0,0,0-1.91,4.87q-0.54,2.38-1.93,10.84-1.78,10.89-4.37,15.28-3.64,6.18-8.86,6.18a8.82,8.82,0,0,1-6.29-2.91A18.62,18.62,0,0,1,2,40.84,49.48,49.48,0,0,1,.45,27.64q0-12.63,3.65-19t9.7-6.7l0.38,13.54A7.24,7.24,0,0,0,9.3,19.19q-1.49,2.86-1.49,8.58A21.9,21.9,0,0,0,9.39,37q1,2.15,2.73,2.15t2.67-2q1.41-2.56,3-12.45a91.27,91.27,0,0,1,3.18-14.62,18.12,18.12,0,0,1,4.48-7.41,9.83,9.83,0,0,1,7-2.68A10,10,0,0,1,39.5,3.2a19.48,19.48,0,0,1,4.9,9.06A56.1,56.1,0,0,1,46,26.86q0,12.72-3.88,19.54A15.62,15.62,0,0,1,30.86,54.54Z"/></svg>