<!DOCTYPE svg PUBLIC "-//W3C//DTD SVG 1.1//EN" 
"http://www.w3.org/Graphics/SVG/1.1/DTD/svg11.dtd">
<?xml-stylesheet type="text/css" href="../style.css" ?>
<svg preserveAspectRatio="none"  xmlns="http://www.w3.org/2000/svg" viewBox="0 0 45.94 566.41"><defs>100%</defs><title>!</title><path class="a" d="M44.63,566.41h-44V552.86H18l0-26.54H0.67V512.78h44v13.54H25.43l0,26.54H44.65v13.54Z"/><path class="a" d="M44.7,499.19h-44V485.65h44v13.54Z"/><path class="a" d="M28.58,441.54H21.16l0-29.19H38.72q2.7,4.26,4.75,12.33a66.06,66.06,0,0,1,2,16.36,52.8,52.8,0,0,1-2.92,18.35q-2.9,7.83-8.3,11.76a19.48,19.48,0,0,1-11.73,3.93,18.68,18.68,0,0,1-12.21-4.39Q5,466.29,2.17,457.83A50.49,50.49,0,0,1,0,441.77q0-12.49,3.46-19.52t9.51-9l1.64,13.45A10.39,10.39,0,0,0,9.48,432a22.55,22.55,0,0,0-1.88,9.77q0,8.88,3.68,14.12t11,5.24q7.83,0,11.76-5.31t3.93-13.91a34.22,34.22,0,0,0-1.09-8.53A35.77,35.77,0,0,0,34.18,426H28.59v15.51Z"/><path class="a" d="M44.8,399.81h-44V386.27H18.13l0-26.54H0.83V346.18h44v13.54H25.6l0,26.54H44.81v13.54Z"/><path class="a" d="M44.86,331.82H1.22V318.27H37.46l0-33.67h7.41Z"/><path class="a" d="M44.92,275.36h-44V261.81h44v13.54Z"/><path class="a" d="M28.8,217.7H21.38l0-29.19H38.94q2.7,4.26,4.75,12.33a66,66,0,0,1,2,16.36,52.78,52.78,0,0,1-2.92,18.35q-2.9,7.83-8.3,11.76a19.47,19.47,0,0,1-11.73,3.93,18.68,18.68,0,0,1-12.21-4.39Q5.24,242.46,2.39,234A50.51,50.51,0,0,1,.22,217.93q0-12.49,3.46-19.52t9.51-9l1.64,13.45a10.39,10.39,0,0,0-5.12,5.33,22.56,22.56,0,0,0-1.89,9.77q0,8.88,3.68,14.12t11,5.24q7.83,0,11.76-5.31t3.93-13.91A34.27,34.27,0,0,0,37,209.54a35.77,35.77,0,0,0-2.65-7.34H28.81Z"/><path class="a" d="M45,176H1V162.43H18.34l0-26.54H1V122.35h44v13.54H25.81l0,26.54H45V176Z"/><path class="a" d="M45.1,93.25H8.54l0,19.9H1.07l0.05-53.3H8.57l0,19.86H45.11V93.25Z"/><path class="a" d="M30.82,54.54L30,41.36a10,10,0,0,0,6.4-4.83q2-3.64,2.05-9.81,0-6.54-1.81-9.86t-4.24-3.32a3.28,3.28,0,0,0-2.66,1.4,13.11,13.11,0,0,0-1.91,4.87q-0.54,2.38-1.93,10.84-1.78,10.89-4.37,15.28-3.64,6.18-8.86,6.18a8.82,8.82,0,0,1-6.29-2.91,18.61,18.61,0,0,1-4.45-8.37A49.48,49.48,0,0,1,.41,27.64q0-12.63,3.65-19t9.7-6.7l0.38,13.54a7.24,7.24,0,0,0-4.88,3.73q-1.49,2.86-1.49,8.58A21.89,21.89,0,0,0,9.34,37q1,2.15,2.73,2.15t2.67-2q1.41-2.56,3-12.45a91.34,91.34,0,0,1,3.18-14.62,18.11,18.11,0,0,1,4.48-7.41,9.83,9.83,0,0,1,7-2.68,10,10,0,0,1,7.08,3.2,19.48,19.48,0,0,1,4.9,9.06,56.16,56.16,0,0,1,1.59,14.6q0,12.72-3.88,19.54A15.62,15.62,0,0,1,30.82,54.54Z"/></svg>