<!DOCTYPE svg PUBLIC "-//W3C//DTD SVG 1.1//EN" 
"http://www.w3.org/Graphics/SVG/1.1/DTD/svg11.dtd">
<?xml-stylesheet type="text/css" href="../style.css" ?>
<svg preserveAspectRatio="none"  xmlns="http://www.w3.org/2000/svg" viewBox="0 0 45.54 620.99"><defs>100%</defs><title>!</title><path class="a" d="M44.49,621h-44l0-46H8l0,32.44H18.36l0-28h7.44l0,28H44.5V621Z"/><path class="a" d="M44.54,563.8h-44l0-28.5q0-10.75,1.2-15.63A15.73,15.73,0,0,1,6,511.87a9.72,9.72,0,0,1,15.11,1.51q3.22,4.44,4.05,13.27a33.48,33.48,0,0,1,3.7-7.25A57.51,57.51,0,0,1,36,511.68l8.59-8.19,0,16.2L35,529.48a72.06,72.06,0,0,0-6.48,7.14,11.69,11.69,0,0,0-1.83,4.07,33.45,33.45,0,0,0-.5,6.82v2.75H44.56V563.8ZM19.16,550.26v-10q0-9.75-.53-12.17a7.78,7.78,0,0,0-1.86-3.8,4.39,4.39,0,0,0-3.3-1.37A4.29,4.29,0,0,0,9.9,524.7a10.23,10.23,0,0,0-1.73,5.1Q8,531.45,8,539.69v10.57H19.16Z"/><path class="a" d="M44.61,496.17H0.6l0-49.74H8.1l0,36.19h9.76l0-33.68h7.41l0,33.68h12l0-37.47h7.42Z"/><path class="a" d="M44.67,433.67h-44l0-49.74H8.16l0,36.19h9.76l0-33.68h7.42l0,33.68h12l0-37.47h7.42Z"/><path class="a" d="M30.41,374.6l-0.83-13.18A10,10,0,0,0,36,356.6Q38,353,38,346.78q0-6.54-1.81-9.86T32,333.6a3.28,3.28,0,0,0-2.66,1.4,13.12,13.12,0,0,0-1.91,4.87q-0.54,2.38-1.93,10.84Q23.7,361.61,21.11,366q-3.64,6.18-8.86,6.18A8.82,8.82,0,0,1,6,369.27a18.61,18.61,0,0,1-4.45-8.37A49.44,49.44,0,0,1,0,347.7q0-12.63,3.65-19t9.7-6.7l0.38,13.54a7.23,7.23,0,0,0-4.88,3.73q-1.49,2.86-1.49,8.58a21.9,21.9,0,0,0,1.58,9.24q1,2.15,2.73,2.15,1.56,0,2.67-2,1.41-2.56,3-12.44a91.42,91.42,0,0,1,3.18-14.62A18.12,18.12,0,0,1,25,322.74a9.83,9.83,0,0,1,7-2.68,10,10,0,0,1,7.08,3.2,19.47,19.47,0,0,1,4.9,9.06,56.2,56.2,0,0,1,1.59,14.6q0,12.72-3.88,19.54A15.62,15.62,0,0,1,30.41,374.6Z"/><path class="a" d="M44.81,293.57H8.25l0,19.9H0.78l0.05-53.31H8.28l0,19.86H44.82v13.54Z"/><path class="a" d="M44.87,233.81H26.35L0.84,258.38l0-15.88,17.43-15.79L0.88,211.25l0-15.6,25.52,24.66H44.88v13.5Z"/><path class="a" d="M44.91,188.56H1.27V175H37.51l0-33.67H45Z"/><path class="a" d="M45,131.69H1L1,81.95H8.46l0,36.19h9.76l0-33.68h7.42l0,33.68h12l0-37.47H45Z"/><path class="a" d="M45.08,20.77H36.22l0,27.45H28.81L0.89,19.13V8.33H28.82V0h7.41V8.33h8.86V20.77Zm-16.27,0h-15l15,15.42Z"/></svg>