<!DOCTYPE svg PUBLIC "-//W3C//DTD SVG 1.1//EN" 
"http://www.w3.org/Graphics/SVG/1.1/DTD/svg11.dtd">
<?xml-stylesheet type="text/css" href="../style.css" ?>
<svg preserveAspectRatio="none"  xmlns="http://www.w3.org/2000/svg" viewBox="0 0 45.51 650.19"><defs>100%</defs><title>!</title><path class="a" d="M44.62,650.19h-44V636.64h44v13.54Z"/><path class="a" d="M44.67,597.34H1V583.79H37.27l0-33.67h7.41Z"/><path class="a" d="M23,543.21a19.77,19.77,0,0,1-11.28-3.07,22.92,22.92,0,0,1-6-6.25,29.12,29.12,0,0,1-4-8.67A54.22,54.22,0,0,1,0,510.77Q0,495.94,6.06,487a19.19,19.19,0,0,1,16.79-8.9A19.07,19.07,0,0,1,39.51,487q6,8.83,6,23.61,0,15-6,23.79A18.91,18.91,0,0,1,23,543.21Zm-0.29-14q7.48,0,11.34-5.26t3.87-13.36q0-8.1-3.81-13.29t-11.48-5.19q-7.56,0-11.29,5.06T7.59,510.63q0,8.37,3.75,13.5T22.71,529.25Z"/><path class="a" d="M44.82,450.46l-44,24V459.75l32.59-17L0.83,426.35V412l44,24v14.46Z"/><path class="a" d="M44.86,405.07h-44l0-49.74H8.35l0,36.19h9.75l0-33.68h7.41l0,33.68h12l0-37.47h7.41Z"/><path class="a" d="M44.95,316.35h-44V302.81H20.5L1,275.45l0-18.21,17.12,25.26L45,255.87l0,17.52L24.32,291.83l7.34,11H45v13.54Z"/><path class="a" d="M45.07,188.38v14.73l-10,5.86,0,26.81,10,5.54v14.37L1,229.56V215.23ZM27.64,213.31L11.3,222.56l16.32,9.06Z"/><path class="a" d="M45.08,181.06h-44V167.88L30.5,140.42H1.11V127.84h44v13.59l-28.72,27h28.7v12.58Z"/><path class="a" d="M45.16,95.9H26.64L1.13,120.47l0-15.88L18.57,88.81,1.18,73.35l0-15.6L26.72,82.41H45.18V95.9Z"/><path class="a" d="M45.21,51H1.2l0-49.74H8.69l0,36.19h9.75l0-33.68h7.42l0,33.68h12L37.84,0h7.41Z"/></svg>