<!DOCTYPE svg PUBLIC "-//W3C//DTD SVG 1.1//EN" 
"http://www.w3.org/Graphics/SVG/1.1/DTD/svg11.dtd">
<?xml-stylesheet type="text/css" href="../style.css" ?>
<svg preserveAspectRatio="none"  xmlns="http://www.w3.org/2000/svg" viewBox="0 0 45.54 326.6"><defs>100%</defs><title>!</title><path class="a" d="M44.48,310.59l-44,16V312.74l30.24-10.11L0.49,290.36l0-16.11L31.26,262.5,0.53,252.2V238.57l44,16.29v14.37L11.61,282.58,44.49,295.9v14.69Z"/><path class="a" d="M44.61,176.34v14.73l-10,5.86,0,26.81,10,5.54v14.37l-44-26.13V203.2ZM27.18,201.28l-16.34,9.24,16.32,9.06Z"/><path class="a" d="M44.63,159l-44,24V168.29l32.59-17L0.65,134.89V120.52l44,24V159Z"/><path class="a" d="M44.67,113.61h-44l0-49.74H8.16l0,36.19h9.76l0-33.68h7.41l0,33.68h12l0-37.47h7.42Z"/><path class="a" d="M30.41,54.54L29.58,41.36A10,10,0,0,0,36,36.54Q38,32.9,38,26.72q0-6.54-1.81-9.86T32,13.54a3.28,3.28,0,0,0-2.66,1.4,13.11,13.11,0,0,0-1.91,4.87q-0.54,2.38-1.93,10.84Q23.7,41.55,21.12,45.94q-3.64,6.18-8.86,6.18A8.82,8.82,0,0,1,6,49.21a18.6,18.6,0,0,1-4.45-8.37A49.44,49.44,0,0,1,0,27.64Q0,15,3.65,8.63t9.7-6.7l0.38,13.54a7.23,7.23,0,0,0-4.88,3.73q-1.49,2.86-1.49,8.58A21.9,21.9,0,0,0,8.94,37q1,2.15,2.73,2.15,1.56,0,2.67-2,1.42-2.56,3-12.45a91.42,91.42,0,0,1,3.18-14.62A18.12,18.12,0,0,1,25,2.68,9.83,9.83,0,0,1,32,0,10,10,0,0,1,39,3.2a19.47,19.47,0,0,1,4.9,9.06,56.16,56.16,0,0,1,1.59,14.6q0,12.72-3.88,19.54A15.62,15.62,0,0,1,30.41,54.54Z"/></svg>