<!DOCTYPE svg PUBLIC "-//W3C//DTD SVG 1.1//EN" 
"http://www.w3.org/Graphics/SVG/1.1/DTD/svg11.dtd">
<?xml-stylesheet type="text/css" href="../style.css" ?>
<svg preserveAspectRatio="none"  xmlns="http://www.w3.org/2000/svg" viewBox="0 0 45.54 679.29"><defs>100%</defs><title>!</title><path class="a" d="M44.12,679.29h-44l0-28.51q0-10.75,1.2-15.63a15.73,15.73,0,0,1,4.22-7.8,9.72,9.72,0,0,1,15.11,1.51q3.22,4.44,4.05,13.27a33.53,33.53,0,0,1,3.7-7.25,57.44,57.44,0,0,1,7.15-7.71L44.18,619l0,16.2L34.58,645a72.32,72.32,0,0,0-6.48,7.14,11.71,11.71,0,0,0-1.83,4.07,33.47,33.47,0,0,0-.5,6.82v2.75H44.13v13.54ZM18.74,665.74v-10q0-9.75-.53-12.17a7.78,7.78,0,0,0-1.86-3.8,4.39,4.39,0,0,0-3.3-1.37,4.29,4.29,0,0,0-3.59,1.81,10.23,10.23,0,0,0-1.73,5.1q-0.15,1.65-.16,9.88v10.57H18.74Z"/><path class="a" d="M44.18,611.66h-44l0-49.74H7.67l0,36.19h9.75l0-33.68h7.42l0,33.68h12l0-37.47h7.42Z"/><path class="a" d="M44.31,488.67V503.4l-10,5.86,0,26.81,10,5.54V556l-44-26.13V515.53ZM26.87,513.6l-16.34,9.24,16.32,9.06Z"/><path class="a" d="M44.31,481.12H0.67V467.57H36.91l0-33.68h7.42Z"/><path class="a" d="M44.39,399.81h-44l0-46H7.88l0,32.44H18.26l0-28h7.44l0,28h18.7v13.54Z"/><path class="a" d="M44.45,342.62h-44l0-28.51q0-10.75,1.2-15.62a15.72,15.72,0,0,1,4.22-7.8A9.72,9.72,0,0,1,21,292.19q3.22,4.44,4.05,13.27a33.48,33.48,0,0,1,3.7-7.25,57.44,57.44,0,0,1,7.15-7.71l8.59-8.19,0,16.2-9.59,9.79a72.1,72.1,0,0,0-6.48,7.14,11.69,11.69,0,0,0-1.83,4.07,33.47,33.47,0,0,0-.5,6.82v2.75H44.46v13.54ZM19.07,329.07v-10q0-9.75-.53-12.17a7.77,7.77,0,0,0-1.86-3.8,4.39,4.39,0,0,0-3.3-1.37,4.29,4.29,0,0,0-3.59,1.81,10.23,10.23,0,0,0-1.73,5.1q-0.15,1.65-.16,9.88v10.57H19.07Z"/><path class="a" d="M44.51,275.4h-44V261.86h44V275.4Z"/><path class="a" d="M44.54,249h-44l0-49.74H8l0,36.19h9.75l0-33.68H25.2l0,33.68h12l0-37.47h7.41Z"/><path class="a" d="M44.6,186.32H0.6V173.14L30,145.68H0.63V133.1h44v13.59l-28.72,27h28.7v12.58Z"/><path class="a" d="M0.66,118.83l0-24.75a72.9,72.9,0,0,1,.85-12.77A26.36,26.36,0,0,1,5.6,71.2a19.68,19.68,0,0,1,7.14-6.41,22.34,22.34,0,0,1,10.4-2.2,19.94,19.94,0,0,1,9.36,2.06,20.19,20.19,0,0,1,7.77,7.18,28.76,28.76,0,0,1,3.5,9.52,61.39,61.39,0,0,1,.92,12l0,25.49h-44Zm7.46-13.54H37.27V95.17A55.66,55.66,0,0,0,36.86,87,15.62,15.62,0,0,0,35,81.51,9.26,9.26,0,0,0,30.79,78a19.46,19.46,0,0,0-8.06-1.37A17.88,17.88,0,0,0,14.9,78a10.38,10.38,0,0,0-4.27,3.84,16.15,16.15,0,0,0-2.08,6.27A93,93,0,0,0,8.13,99.2v6.09Z"/><path class="a" d="M30.41,54.54L29.58,41.36A10,10,0,0,0,36,36.54Q38,32.9,38,26.72q0-6.54-1.81-9.86T32,13.54a3.28,3.28,0,0,0-2.66,1.4,13.12,13.12,0,0,0-1.91,4.87q-0.54,2.38-1.93,10.84Q23.7,41.54,21.12,45.94q-3.64,6.18-8.86,6.18A8.82,8.82,0,0,1,6,49.21a18.61,18.61,0,0,1-4.45-8.37A49.48,49.48,0,0,1,0,27.64Q0,15,3.65,8.63t9.7-6.7l0.38,13.54a7.24,7.24,0,0,0-4.88,3.73q-1.49,2.86-1.49,8.58A21.9,21.9,0,0,0,8.94,37q1,2.15,2.73,2.15t2.67-2q1.41-2.56,3-12.45a91.19,91.19,0,0,1,3.18-14.62A18.12,18.12,0,0,1,25,2.68,9.83,9.83,0,0,1,32,0,10,10,0,0,1,39,3.2a19.48,19.48,0,0,1,4.9,9.06,56.15,56.15,0,0,1,1.59,14.59q0,12.72-3.88,19.54A15.62,15.62,0,0,1,30.41,54.54Z"/></svg>