<!DOCTYPE svg PUBLIC "-//W3C//DTD SVG 1.1//EN" 
"http://www.w3.org/Graphics/SVG/1.1/DTD/svg11.dtd">
<?xml-stylesheet type="text/css" href="../style.css" ?>
<svg preserveAspectRatio="none"  xmlns="http://www.w3.org/2000/svg" viewBox="0 0 45.78 394.23"><defs>100%</defs><title>!</title><path class="a" d="M44.65,378.21l-44,16V380.36l30.24-10.11L0.66,358l0-16.11,30.75-11.76L0.7,319.83V306.2l44,16.29v14.37L11.78,350.21l32.89,13.32v14.69Z"/><path class="a" d="M23,302A19.77,19.77,0,0,1,11.71,299a22.89,22.89,0,0,1-6-6.25,29.1,29.1,0,0,1-4-8.67A54.22,54.22,0,0,1,0,269.59q0-14.82,6.06-23.72A19.2,19.2,0,0,1,22.85,237a19.07,19.07,0,0,1,16.67,8.83q6,8.83,6,23.61,0,15-6,23.79A18.91,18.91,0,0,1,23,302Zm-0.29-14q7.48,0,11.34-5.26t3.87-13.36q0-8.1-3.81-13.29T22.62,251q-7.56,0-11.29,5.06T7.6,269.45q0,8.37,3.75,13.5T22.71,288.08Z"/><path class="a" d="M44.8,226H1.15V212.49H37.4l0-33.68h7.41Z"/><path class="a" d="M44.87,159l-44,24V168.29l32.59-17L0.88,134.89V120.52l44,24V159Z"/><path class="a" d="M44.91,113.61H0.9L1,63.87H8.4l0,36.19h9.76l0-33.68h7.41l0,33.68h12l0-37.47H45Z"/><path class="a" d="M30.65,54.54L29.82,41.36a10,10,0,0,0,6.4-4.83q2-3.64,2.05-9.81,0-6.54-1.81-9.86t-4.24-3.32a3.28,3.28,0,0,0-2.66,1.4,13.1,13.1,0,0,0-1.91,4.87q-0.54,2.38-1.93,10.84-1.78,10.89-4.37,15.28-3.64,6.18-8.86,6.18a8.82,8.82,0,0,1-6.29-2.91,18.61,18.61,0,0,1-4.45-8.37A49.44,49.44,0,0,1,.24,27.64q0-12.63,3.65-19t9.7-6.7L14,15.46a7.23,7.23,0,0,0-4.88,3.73Q7.6,22.05,7.59,27.77A21.89,21.89,0,0,0,9.17,37q1,2.15,2.73,2.15,1.56,0,2.67-2,1.42-2.56,3-12.45a91.34,91.34,0,0,1,3.18-14.62,18.13,18.13,0,0,1,4.48-7.41A9.83,9.83,0,0,1,32.2,0a10,10,0,0,1,7.08,3.2,19.48,19.48,0,0,1,4.9,9.06,56.15,56.15,0,0,1,1.59,14.59q0,12.72-3.88,19.54A15.62,15.62,0,0,1,30.65,54.54Z"/></svg>