<!DOCTYPE svg PUBLIC "-//W3C//DTD SVG 1.1//EN" 
"http://www.w3.org/Graphics/SVG/1.1/DTD/svg11.dtd">
<?xml-stylesheet type="text/css" href="../style.css" ?> 

<svg preserveAspectRatio="none"  xmlns="http://www.w3.org/2000/svg" viewBox="0 0 45.79 763.34"><defs>100%</defs><title>!</title><path class="a" d="M44.39,763.34h-44l0-46H7.87l0,32.44H18.25l0-28h7.45l0,28H44.4v13.54Z"/><path class="a" d="M44.44,706.14h-44l0-28.5q0-10.75,1.2-15.63a15.72,15.72,0,0,1,4.22-7.8A9.72,9.72,0,0,1,21,655.72q3.22,4.44,4.05,13.27a33.53,33.53,0,0,1,3.7-7.25A57.51,57.51,0,0,1,35.91,654l8.59-8.19,0,16.2-9.59,9.79A72.06,72.06,0,0,0,28.42,679,11.71,11.71,0,0,0,26.59,683a33.39,33.39,0,0,0-.5,6.82v2.75H44.46v13.54ZM19.06,692.6v-10q0-9.75-.53-12.17a7.79,7.79,0,0,0-1.86-3.8,4.39,4.39,0,0,0-3.3-1.37A4.29,4.29,0,0,0,9.79,667a10.23,10.23,0,0,0-1.73,5.1Q7.91,673.8,7.9,682V692.6H19.06Z"/><path class="a" d="M44.57,578v14.73l-10,5.86,0,26.81,10,5.54v14.37l-44-26.13V604.89ZM27.13,603l-16.34,9.24,16.32,9.06Z"/><path class="a" d="M44.58,570.71h-44V557.53L30,530.08H0.61V517.49h44v13.59l-28.72,27h28.7v12.58Z"/><path class="a" d="M44.64,503h-44V489.45H20.19L0.68,462.08l0-18.21,17.12,25.26L44.7,442.5l0,17.52L24,478.47l7.34,11h13.3V503Z"/><path class="a" d="M0.82,435.91V423.05h6a14.23,14.23,0,0,1,5.78,1,9.1,9.1,0,0,1,3.79,3.64,22.27,22.27,0,0,1,2.64,6.79L15.59,437a12.34,12.34,0,0,0-2.31-5.54,5.39,5.39,0,0,0-4-1.74v6.22H0.82Z"/><path class="a" d="M30.41,412.9l-0.83-13.18a10,10,0,0,0,6.4-4.83q2-3.64,2.05-9.81,0-6.54-1.81-9.86T32,371.9a3.28,3.28,0,0,0-2.66,1.4,13.12,13.12,0,0,0-1.91,4.87q-0.54,2.38-1.93,10.84-1.78,10.89-4.37,15.28-3.64,6.18-8.86,6.18A8.82,8.82,0,0,1,6,407.57a18.62,18.62,0,0,1-4.45-8.37A49.44,49.44,0,0,1,0,386q0-12.63,3.65-19t9.7-6.7l0.38,13.54a7.24,7.24,0,0,0-4.88,3.73q-1.49,2.86-1.49,8.58a21.88,21.88,0,0,0,1.58,9.24q1,2.15,2.73,2.15,1.56,0,2.67-2,1.41-2.56,3-12.44a91.42,91.42,0,0,1,3.18-14.62A18.11,18.11,0,0,1,25,361a9.83,9.83,0,0,1,7-2.68,10,10,0,0,1,7.08,3.2,19.48,19.48,0,0,1,4.9,9.06,56.16,56.16,0,0,1,1.59,14.6q0,12.72-3.88,19.54A15.62,15.62,0,0,1,30.41,412.9Z"/><path class="a" d="M44.84,305.83H8.27l0,19.9H0.81l0.05-53.3H8.31l0,19.86H44.85v13.54Z"/><path class="a" d="M44.88,263.64h-44l0-28.51q0-10.75,1.2-15.63a15.72,15.72,0,0,1,4.22-7.8,9.72,9.72,0,0,1,15.11,1.51q3.22,4.44,4.05,13.27a33.48,33.48,0,0,1,3.7-7.25,57.49,57.49,0,0,1,7.15-7.71l8.59-8.19,0,16.2-9.59,9.79a72.06,72.06,0,0,0-6.48,7.14A11.71,11.71,0,0,0,27,240.54a33.4,33.4,0,0,0-.5,6.82v2.75H44.89v13.54ZM19.49,250.1v-10q0-9.75-.53-12.17a7.79,7.79,0,0,0-1.86-3.8,4.39,4.39,0,0,0-3.3-1.37,4.29,4.29,0,0,0-3.59,1.81,10.23,10.23,0,0,0-1.73,5.1q-0.15,1.65-.16,9.88V250.1H19.49Z"/><path class="a" d="M45,135.53v14.73l-10,5.86,0,26.81,10,5.54v14.37L1,176.71V162.39ZM27.57,160.46l-16.34,9.24,16.32,9.06Z"/><path class="a" d="M28.87,85.43l2.74-13.13a20.39,20.39,0,0,1,10.69,10q3.49,7,3.48,17.82,0,13.36-6,22a18.93,18.93,0,0,1-16.38,8.6q-11,0-17.06-8.65T0.28,99.34q0-12.31,4.79-20a17.35,17.35,0,0,1,8.11-6.86l2.09,13.41a9.71,9.71,0,0,0-5.41,5,19.54,19.54,0,0,0-2,9.17q0,7.46,3.5,12.1t11.37,4.64q8.35,0,11.89-4.58t3.55-11.9A18.22,18.22,0,0,0,36,91,12.63,12.63,0,0,0,28.87,85.43Z"/><path class="a" d="M45.08,60.49h-44V46.95H20.62L1.11,19.58l0-18.21L18.24,26.63,45.13,0l0,17.52L24.45,36l7.34,11h13.3V60.49Z"/></svg>