<!DOCTYPE svg PUBLIC "-//W3C//DTD SVG 1.1//EN" 
"http://www.w3.org/Graphics/SVG/1.1/DTD/svg11.dtd">
<?xml-stylesheet type="text/css" href="../style.css" ?>
<svg preserveAspectRatio="none"  xmlns="http://www.w3.org/2000/svg" viewBox="0 0 47.41 2064.76"><defs>100%</defs><title>!</title><path class="a" d="M30.41,2064.76l-0.83-13.18a10,10,0,0,0,6.4-4.83q2-3.64,2-9.81,0-6.54-1.81-9.86T32,2023.76a3.28,3.28,0,0,0-2.66,1.4,13.11,13.11,0,0,0-1.91,4.87q-0.54,2.38-1.93,10.84-1.78,10.89-4.37,15.28-3.64,6.18-8.86,6.18A8.82,8.82,0,0,1,6,2059.43a18.61,18.61,0,0,1-4.45-8.37A49.48,49.48,0,0,1,0,2037.86q0-12.63,3.65-19t9.7-6.7l0.38,13.54a7.24,7.24,0,0,0-4.88,3.73q-1.49,2.86-1.49,8.58a21.9,21.9,0,0,0,1.58,9.24q1,2.15,2.73,2.15t2.67-2q1.41-2.56,3-12.45a91.42,91.42,0,0,1,3.18-14.62A18.12,18.12,0,0,1,25,2012.9a9.83,9.83,0,0,1,7-2.68,10,10,0,0,1,7.08,3.2,19.47,19.47,0,0,1,4.9,9.06,56.16,56.16,0,0,1,1.59,14.6q0,12.72-3.88,19.54A15.62,15.62,0,0,1,30.41,2064.76Z"/><path class="a" d="M44.79,1999.24h-44v-13.54h44v13.54Z"/><path class="a" d="M44.82,1973.2h-44v-13.54h44v13.54Z"/><path class="a" d="M44.85,1947.17h-44v-13.54h44v13.54Z"/><path class="a" d="M44.87,1921.13h-44v-13.54h44v13.54Z"/><path class="a" d="M44.9,1895.1h-44v-13.54h44v13.54Z"/><path class="a" d="M44.92,1869.06h-44v-13.54h44v13.54Z"/><path class="a" d="M44.95,1843h-44v-13.54H45V1843Z"/><path class="a" d="M45,1817H1v-13.54H45V1817Z"/><path class="a" d="M45,1791H1v-13.54H45V1791Z"/><path class="a" d="M45,1764.15H1.38V1750.6H37.62l0-33.68h7.42Z"/><path class="a" d="M45.09,1697.11l-44,24,0-14.69,32.59-17L1.11,1673v-14.37l44,24v14.46Z"/><path class="a" d="M45.13,1651.73h-44l0-49.74H8.62l0,36.19h9.75l0-33.68h7.42l0,33.68h12l0-37.47h7.41Z"/><path class="a" d="M45.2,1589.18h-44l0-28.51q0-10.75,1.2-15.63a15.72,15.72,0,0,1,4.22-7.8,9.72,9.72,0,0,1,15.11,1.51q3.22,4.44,4.05,13.27a33.44,33.44,0,0,1,3.7-7.25,57.44,57.44,0,0,1,7.15-7.71l8.59-8.19,0,16.2-9.59,9.79a72.19,72.19,0,0,0-6.48,7.14,11.71,11.71,0,0,0-1.83,4.07,33.47,33.47,0,0,0-.5,6.82v2.75H45.21v13.54Zm-25.38-13.54v-10q0-9.75-.53-12.17a7.8,7.8,0,0,0-1.86-3.8,4.39,4.39,0,0,0-3.3-1.37,4.29,4.29,0,0,0-3.59,1.81,10.24,10.24,0,0,0-1.73,5.1q-0.15,1.65-.16,9.88v10.57H19.81Z"/><path class="a" d="M31,1498.95l-0.83-13.18a10,10,0,0,0,6.4-4.83q2-3.64,2.05-9.81,0-6.54-1.81-9.86T32.54,1458a3.28,3.28,0,0,0-2.66,1.4,13.11,13.11,0,0,0-1.91,4.87q-0.54,2.38-1.93,10.84-1.78,10.89-4.37,15.28-3.64,6.18-8.86,6.18a8.82,8.82,0,0,1-6.29-2.91,18.61,18.61,0,0,1-4.45-8.37A49.48,49.48,0,0,1,.55,1472q0-12.63,3.65-19t9.7-6.7l0.38,13.54a7.24,7.24,0,0,0-4.88,3.73q-1.49,2.86-1.49,8.58a21.92,21.92,0,0,0,1.58,9.24q1,2.15,2.73,2.15t2.67-2q1.41-2.56,3-12.45A91.42,91.42,0,0,1,21,1454.5a18.12,18.12,0,0,1,4.48-7.41,9.83,9.83,0,0,1,7-2.68,10,10,0,0,1,7.08,3.2,19.47,19.47,0,0,1,4.9,9.06,56.2,56.2,0,0,1,1.59,14.6q0,12.72-3.88,19.54A15.62,15.62,0,0,1,31,1498.95Z"/><path class="a" d="M1.34,1433.11v-13.54H25.19a32.62,32.62,0,0,0,7.35-.5,7.55,7.55,0,0,0,4.34-4.14,20.26,20.26,0,0,0,1.64-8.95q0-5.77-1.54-8.69a6.33,6.33,0,0,0-3.79-3.52,32.75,32.75,0,0,0-7.47-.59H1.38v-13.54H24.51q7.92,0,11.2,1.1a11.41,11.41,0,0,1,5.52,4,22.7,22.7,0,0,1,3.58,7.89,50.83,50.83,0,0,1,1.32,12.9q0,9.61-1.47,14.57a22.53,22.53,0,0,1-3.79,7.85,11.45,11.45,0,0,1-4.88,3.8q-3.78,1.33-11.17,1.33H1.34Z"/><path class="a" d="M45.42,1365.3h-44l0-28.51q0-10.75,1.2-15.63a15.74,15.74,0,0,1,4.23-7.8A9.72,9.72,0,0,1,22,1314.87q3.22,4.44,4.05,13.27a33.48,33.48,0,0,1,3.7-7.25,57.44,57.44,0,0,1,7.15-7.71l8.59-8.19,0,16.2L35.87,1331a72.19,72.19,0,0,0-6.48,7.14,11.69,11.69,0,0,0-1.83,4.07,33.52,33.52,0,0,0-.5,6.82v2.75H45.43v13.54ZM20,1351.75v-10q0-9.75-.53-12.17a7.77,7.77,0,0,0-1.86-3.8,4.39,4.39,0,0,0-3.3-1.37,4.29,4.29,0,0,0-3.59,1.81A10.23,10.23,0,0,0,9,1331.3q-0.15,1.65-.16,9.88v10.57H20Z"/><path class="a" d="M45.48,1297.58h-44l0-46H9l0,32.44H19.35l0-28h7.44l0,28H45.5v13.54Z"/><path class="a" d="M45.54,1240.34h-44l0-46H9l0,32.44H19.41l0-28h7.44l0,28h18.7v13.54Z"/><path class="a" d="M45.59,1183.1h-44l0-46H9.08l0,32.44H19.46l0-28h7.44l0,28h18.7v13.54Z"/><path class="a" d="M45.65,1125.86h-44l0-46H9.13l0,32.44H19.52l0-28H27l0,28h18.7v13.54Z"/><path class="a" d="M45.71,1068.71H1.7l0-49.74H9.19l0,36.19h9.76l0-33.68h7.41l0,33.68h12l0-37.47h7.42Z"/><path class="a" d="M45.77,1006.21h-44l0-49.74H9.26l0,36.19H19L19,959h7.42l0,33.68h12l0-37.47h7.42Z"/><path class="a" d="M45.83,943.71h-44l0-49.74H9.32l0,36.19H19l0-33.68h7.42l0,33.68h12l0-37.47h7.41Z"/><path class="a" d="M45.89,881.2h-44l0-49.74H9.38l0,36.19H19.1l0-33.68h7.41l0,33.68h12l0-37.47h7.42Z"/><path class="a" d="M46,818.7h-44L2,769H9.44l0,36.19h9.75l0-33.68h7.42l0,33.68h12l0-37.47H46Z"/><path class="a" d="M46,756.15H2l0-28.51Q2,716.9,3.24,712a15.72,15.72,0,0,1,4.22-7.8,9.72,9.72,0,0,1,15.11,1.51q3.22,4.44,4.05,13.27a33.5,33.5,0,0,1,3.7-7.25A57.49,57.49,0,0,1,37.48,704l8.59-8.19,0,16.2-9.59,9.79A72.19,72.19,0,0,0,30,729,11.71,11.71,0,0,0,28.16,733a33.47,33.47,0,0,0-.5,6.82v2.75H46v13.54ZM20.63,742.61v-10q0-9.75-.53-12.17a7.79,7.79,0,0,0-1.86-3.8,4.39,4.39,0,0,0-3.3-1.37,4.3,4.3,0,0,0-3.59,1.81,10.24,10.24,0,0,0-1.73,5.1q-0.15,1.65-.16,9.88v10.57H20.63Z"/><path class="a" d="M46.1,662.9H2.1V649.36h44V662.9Z"/><path class="a" d="M46.13,636.32h-44V623.14l29.42-27.45H2.16V583.11h44V596.7l-28.72,27h28.7v12.58Z"/><path class="a" d="M46.21,553.69H9.65l0,19.9H2.19l0.05-53.3H9.68l0,19.86H46.22v13.54Z"/><path class="a" d="M46.25,511.55h-44l0-49.74H9.74l0,36.19h9.75l0-33.68h7.42l0,33.68h12l0-37.47H46.3Z"/><path class="a" d="M46.31,449h-44l0-28.5q0-10.75,1.2-15.63a15.73,15.73,0,0,1,4.22-7.8,9.72,9.72,0,0,1,15.11,1.51q3.22,4.44,4.05,13.27a33.48,33.48,0,0,1,3.7-7.25,57.44,57.44,0,0,1,7.15-7.71l8.59-8.19,0,16.2-9.59,9.79a72,72,0,0,0-6.47,7.14,11.69,11.69,0,0,0-1.84,4.07,33.47,33.47,0,0,0-.5,6.82v2.75H46.33V449ZM20.93,435.45v-10q0-9.74-.53-12.17a7.79,7.79,0,0,0-1.86-3.8,4.39,4.39,0,0,0-3.3-1.37,4.29,4.29,0,0,0-3.59,1.81A10.23,10.23,0,0,0,9.94,415q-0.15,1.65-.16,9.88v10.57H20.93Z"/><path class="a" d="M46.38,381.55h-44l0-20.27,30-12.17-30-12,0-20.31h44v12.58H11.79l34.63,13.31v13L11.75,369H46.39v12.58Z"/><path class="a" d="M46.46,303.72h-44V290.18h44v13.54Z"/><path class="a" d="M32.16,280.71l-0.83-13.18a10,10,0,0,0,6.4-4.83q2-3.64,2.05-9.81,0-6.54-1.81-9.86t-4.25-3.32a3.28,3.28,0,0,0-2.66,1.4A13.1,13.1,0,0,0,29.16,246q-0.54,2.38-1.93,10.84-1.78,10.89-4.37,15.28-3.64,6.18-8.86,6.18a8.82,8.82,0,0,1-6.29-2.91A18.6,18.6,0,0,1,3.27,267a49.48,49.48,0,0,1-1.52-13.2q0-12.63,3.65-19t9.7-6.7l0.38,13.54a7.23,7.23,0,0,0-4.88,3.73q-1.49,2.86-1.49,8.58a21.9,21.9,0,0,0,1.58,9.24q1,2.15,2.73,2.15t2.67-2q1.41-2.56,3-12.45a91.34,91.34,0,0,1,3.18-14.62,18.12,18.12,0,0,1,4.48-7.41,9.83,9.83,0,0,1,7-2.68,10,10,0,0,1,7.08,3.2,19.46,19.46,0,0,1,4.9,9.06A56.2,56.2,0,0,1,47.29,253q0,12.72-3.88,19.54A15.62,15.62,0,0,1,32.16,280.71Z"/><path class="a" d="M32.22,218.21L31.39,205a10,10,0,0,0,6.4-4.83q2-3.64,2.05-9.81,0-6.54-1.81-9.86t-4.24-3.32a3.28,3.28,0,0,0-2.66,1.4,13.12,13.12,0,0,0-1.91,4.87q-0.54,2.38-1.93,10.84-1.78,10.89-4.37,15.28-3.64,6.18-8.86,6.18a8.82,8.82,0,0,1-6.29-2.91,18.62,18.62,0,0,1-4.45-8.37,49.41,49.41,0,0,1-1.52-13.2q0-12.63,3.65-19t9.7-6.7l0.38,13.54a7.23,7.23,0,0,0-4.88,3.73q-1.49,2.86-1.49,8.58a21.89,21.89,0,0,0,1.58,9.24q1,2.15,2.73,2.15t2.67-2q1.42-2.56,3-12.45a91.31,91.31,0,0,1,3.18-14.62,18.11,18.11,0,0,1,4.48-7.41,9.83,9.83,0,0,1,7-2.68,10,10,0,0,1,7.08,3.2,19.48,19.48,0,0,1,4.9,9.06,56.16,56.16,0,0,1,1.59,14.6q0,12.72-3.88,19.54A15.62,15.62,0,0,1,32.22,218.21Z"/><path class="a" d="M46.6,152.68H2.6V139.14h44v13.54Z"/><path class="a" d="M24.89,129a19.77,19.77,0,0,1-11.28-3.07,22.89,22.89,0,0,1-6-6.25,29.1,29.1,0,0,1-4-8.67A54.22,54.22,0,0,1,1.9,96.54Q1.92,81.72,8,72.82a19.2,19.2,0,0,1,16.79-8.9,19.07,19.07,0,0,1,16.67,8.83q6,8.83,6,23.61,0,15-6,23.79A18.91,18.91,0,0,1,24.89,129Zm-0.29-14q7.48,0,11.34-5.26t3.87-13.36q0-8.1-3.81-13.29T24.52,77.92Q17,77.92,13.23,83T9.5,96.41q0,8.37,3.75,13.5T24.61,115Z"/><path class="a" d="M46.7,53.21H2.7V40L32.12,12.58H2.74V0h44V13.59L18,40.63h28.7V53.21Z"/></svg>