<!DOCTYPE svg PUBLIC "-//W3C//DTD SVG 1.1//EN" 
"http://www.w3.org/Graphics/SVG/1.1/DTD/svg11.dtd">
<?xml-stylesheet type="text/css" href="../style.css" ?>
<svg preserveAspectRatio="none"  xmlns="http://www.w3.org/2000/svg" viewBox="0 0 45.74 460.58"><defs>100%</defs><title>!</title><path class="a" d="M32.85,460.58l-1-12.45a7,7,0,0,0,4.78-3.2,11.57,11.57,0,0,0,1.66-6.31,11.09,11.09,0,0,0-2-6.7A6.27,6.27,0,0,0,31,429.19a5.89,5.89,0,0,0-5,2.61,10.68,10.68,0,0,0-1.87,6.36,33.37,33.37,0,0,0,.63,5.9l-6.87-1.42q0.1-5.21-1.48-8a4.72,4.72,0,0,0-4.18-2.75,4.06,4.06,0,0,0-3.54,2A9.65,9.65,0,0,0,7.3,439.3a10.17,10.17,0,0,0,1.5,5.63,6.23,6.23,0,0,0,4.38,2.84l-1.33,11.85a14.57,14.57,0,0,1-6.37-3.73,17.14,17.14,0,0,1-3.75-7,34.08,34.08,0,0,1-1.36-10q0-9.47,4-15.19Q7.59,419,11.67,419q5.79,0,9.24,9.65a18.33,18.33,0,0,1,3.64-9.22A8.54,8.54,0,0,1,31.37,416q5.79,0,9.87,6.45t4.07,16.06q0,9.11-3.45,15.1T32.85,460.58Z"/><path class="a" d="M0.42,386.27Q0.43,376.52,5,371q5.41-6.54,17.93-6.54t17.94,6.59q4.5,5.45,4.49,15.19t-5,15.79q-4.94,6-17.61,6-12.43,0-17.88-6.59Q0.41,396,.42,386.27Zm7,0a8.71,8.71,0,0,0,1,4.16,6.45,6.45,0,0,0,3.49,2.84q3.27,1.33,11,1.33t10.64-1.19a7.24,7.24,0,0,0,3.86-3,9.4,9.4,0,0,0,0-8.3,6.45,6.45,0,0,0-3.49-2.84q-3.24-1.33-11-1.33t-10.64,1.19a7.33,7.33,0,0,0-3.88,3A8.59,8.59,0,0,0,7.41,386.27Z"/><path class="a" d="M44.66,327h-44V313.42H18l0-26.54H0.69V273.34h44v13.54H25.46l0,26.54H44.67V327Z"/><path class="a" d="M23,262.09A19.77,19.77,0,0,1,11.71,259a22.87,22.87,0,0,1-6-6.25,29.1,29.1,0,0,1-4-8.67A54.22,54.22,0,0,1,0,229.65q0-14.82,6.06-23.72A19.2,19.2,0,0,1,22.85,197a19.07,19.07,0,0,1,16.67,8.83q6,8.83,6,23.61,0,15-6,23.79A18.91,18.91,0,0,1,23,262.09Zm-0.29-14q7.48,0,11.34-5.26t3.87-13.36q0-8.1-3.81-13.29T22.62,211q-7.56,0-11.29,5.06T7.59,229.51q0,8.37,3.75,13.5T22.71,248.13Z"/><path class="a" d="M0.79,186.54V173H24.64a32.63,32.63,0,0,0,7.35-.5,7.55,7.55,0,0,0,4.34-4.14A20.25,20.25,0,0,0,38,159.41q0-5.77-1.54-8.69a6.33,6.33,0,0,0-3.79-3.52,32.75,32.75,0,0,0-7.47-.59H0.83V133.06H24q7.92,0,11.2,1.1a11.41,11.41,0,0,1,5.52,4,22.7,22.7,0,0,1,3.58,7.89A50.89,50.89,0,0,1,45.58,159q0,9.61-1.47,14.57a22.54,22.54,0,0,1-3.79,7.85,11.45,11.45,0,0,1-4.88,3.8q-3.78,1.33-11.17,1.33H0.79Z"/><path class="a" d="M44.87,118.74h-44l0-28.51q0-10.75,1.2-15.62a15.75,15.75,0,0,1,4.23-7.8,9.72,9.72,0,0,1,15.11,1.51q3.22,4.44,4.05,13.27a33.48,33.48,0,0,1,3.7-7.25,57.51,57.51,0,0,1,7.15-7.71l8.59-8.19,0,16.2-9.58,9.79a72.27,72.27,0,0,0-6.48,7.14A11.71,11.71,0,0,0,27,95.63a33.52,33.52,0,0,0-.5,6.82v2.75H44.88v13.54ZM19.48,105.19v-10Q19.5,85.43,19,83a7.76,7.76,0,0,0-1.86-3.8,4.39,4.39,0,0,0-3.3-1.37,4.29,4.29,0,0,0-3.59,1.81,10.23,10.23,0,0,0-1.73,5.1q-0.15,1.65-.16,9.88v10.57H19.48Z"/><path class="a" d="M30.61,54.54L29.78,41.36a10,10,0,0,0,6.4-4.83q2-3.64,2-9.81,0-6.54-1.81-9.86t-4.24-3.32a3.28,3.28,0,0,0-2.66,1.4,13.1,13.1,0,0,0-1.91,4.87q-0.54,2.38-1.93,10.84Q23.9,41.55,21.31,45.94q-3.64,6.18-8.86,6.18a8.82,8.82,0,0,1-6.29-2.91,18.61,18.61,0,0,1-4.45-8.37A49.44,49.44,0,0,1,.2,27.64q0-12.63,3.65-19t9.7-6.7l0.38,13.54A7.23,7.23,0,0,0,9,19.19q-1.49,2.86-1.49,8.58A21.89,21.89,0,0,0,9.13,37q1,2.15,2.73,2.15t2.67-2q1.42-2.56,3-12.45a91.34,91.34,0,0,1,3.18-14.62,18.12,18.12,0,0,1,4.48-7.41,9.83,9.83,0,0,1,7-2.68,10,10,0,0,1,7.08,3.2,19.48,19.48,0,0,1,4.9,9.06,56.16,56.16,0,0,1,1.59,14.6q0,12.72-3.88,19.54A15.62,15.62,0,0,1,30.61,54.54Z"/></svg>