<!DOCTYPE svg PUBLIC "-//W3C//DTD SVG 1.1//EN" 
"http://www.w3.org/Graphics/SVG/1.1/DTD/svg11.dtd">
<?xml-stylesheet type="text/css" href="../style.css" ?>
<svg preserveAspectRatio="none"  xmlns="http://www.w3.org/2000/svg" viewBox="0 0 46.26 1136.29"><defs>100%</defs><title>!</title><path class="a" d="M44.66,1136.29h-44v-13.18l29.41-27.45H0.69v-12.58h44v13.59l-28.72,27h28.7v12.58Z"/><path class="a" d="M23,1071.5a19.77,19.77,0,0,1-11.28-3.07,22.9,22.9,0,0,1-6-6.25,29.08,29.08,0,0,1-4-8.67A54.18,54.18,0,0,1,0,1039.06q0-14.82,6.06-23.72a19.19,19.19,0,0,1,16.79-8.9,19.07,19.07,0,0,1,16.67,8.83q6,8.83,6,23.61,0,15-6,23.79A18.91,18.91,0,0,1,23,1071.5Zm-0.29-14q7.48,0,11.34-5.26t3.87-13.36q0-8.1-3.81-13.29t-11.48-5.19q-7.56,0-11.29,5.06t-3.74,13.43q0,8.37,3.75,13.5T22.71,1057.55Z"/><path class="a" d="M44.82,970h-44l0-20.27,30-12.17-30-12,0-20.32h44v12.58H10.23l34.63,13.31v13L10.2,957.43H44.84V970Z"/><path class="a" d="M23.17,894.52a19.77,19.77,0,0,1-11.28-3.07,22.89,22.89,0,0,1-6-6.25,29.1,29.1,0,0,1-4-8.67A54.22,54.22,0,0,1,.17,862.08q0-14.82,6.06-23.72A19.19,19.19,0,0,1,23,829.46a19.07,19.07,0,0,1,16.67,8.83q6,8.83,6,23.61,0,15-6,23.79A18.91,18.91,0,0,1,23.17,894.52Zm-0.29-14q7.47,0,11.34-5.26t3.87-13.36q0-8.1-3.81-13.29t-11.48-5.19q-7.56,0-11.29,5.06T7.77,861.94q0,8.37,3.75,13.5T22.88,880.56Z"/><path class="a" d="M45,818.84H1l0-28.51q0-10.75,1.2-15.63a15.73,15.73,0,0,1,4.22-7.8,9.72,9.72,0,0,1,15.11,1.51q3.22,4.44,4.05,13.27a33.53,33.53,0,0,1,3.7-7.25,57.46,57.46,0,0,1,7.15-7.71L45,758.54l0,16.2-9.58,9.79A72.24,72.24,0,0,0,29,791.66a11.73,11.73,0,0,0-1.83,4.07,33.47,33.47,0,0,0-.5,6.82v2.75H45v13.54ZM19.59,805.3v-10q0-9.75-.53-12.17a7.77,7.77,0,0,0-1.86-3.8,4.39,4.39,0,0,0-3.3-1.37,4.29,4.29,0,0,0-3.59,1.81,10.23,10.23,0,0,0-1.73,5.1q-0.15,1.65-.16,9.88V805.3H19.59Z"/><path class="a" d="M45,751.21H1l0-49.74H8.53l0,36.19h9.76l0-33.68h7.42l0,33.68h12l0-37.47h7.42Z"/><path class="a" d="M45.13,662.68h-44l0-21.73q0-12.35.68-16.11a19.71,19.71,0,0,1,4.32-9.65,10.76,10.76,0,0,1,8.57-3.89,10.46,10.46,0,0,1,6.81,2.24,15.47,15.47,0,0,1,4.33,5.7,25.59,25.59,0,0,1,2.08,7,117.22,117.22,0,0,1,.62,14v8.83h16.6v13.54ZM8.58,649.13H21.06v-7.41q0-8-.68-10.71a9.32,9.32,0,0,0-2.16-4.23,4.6,4.6,0,0,0-3.42-1.53,4.72,4.72,0,0,0-4,2.15,11.41,11.41,0,0,0-2,5.45q-0.3,2.43-.31,9.75v6.54Z"/><path class="a" d="M45.24,546.64v14.73l-10,5.86,0,26.81,10,5.54v14.37l-44-26.13V573.5ZM27.8,571.58l-16.34,9.24,16.32,9.06Z"/><path class="a" d="M45.25,539.41h-44l0-28.51q0-10.75,1.2-15.63a15.73,15.73,0,0,1,4.23-7.8A9.72,9.72,0,0,1,21.81,489q3.22,4.44,4.05,13.27a33.44,33.44,0,0,1,3.7-7.25,57.49,57.49,0,0,1,7.15-7.71l8.59-8.19,0,16.2-9.58,9.79a72.06,72.06,0,0,0-6.48,7.14,11.69,11.69,0,0,0-1.83,4.07,33.45,33.45,0,0,0-.5,6.82v2.75H45.26v13.54ZM19.86,525.87v-10q0-9.75-.53-12.17a7.78,7.78,0,0,0-1.86-3.8,4.39,4.39,0,0,0-3.3-1.37,4.29,4.29,0,0,0-3.59,1.81,10.24,10.24,0,0,0-1.73,5.1q-0.15,1.65-.16,9.88v10.57H19.86Z"/><path class="a" d="M45.33,456.69H8.77l0,19.9H1.3l0.05-53.3H8.8l0,19.86H45.34v13.54Z"/><path class="a" d="M45.37,415h-44V401.41h44V415Z"/><path class="a" d="M45.39,388.51h-44l0-49.74H8.88l0,36.19H18.6l0-33.68H26L26,375H38l0-37.47h7.42Z"/><path class="a" d="M31.13,329.44l-0.83-13.18a10,10,0,0,0,6.4-4.83q2-3.64,2.05-9.81,0-6.54-1.81-9.86t-4.25-3.32a3.28,3.28,0,0,0-2.66,1.4,13.12,13.12,0,0,0-1.91,4.87q-0.54,2.38-1.93,10.84-1.78,10.89-4.37,15.28Q18.2,327,13,327a8.82,8.82,0,0,1-6.29-2.91,18.62,18.62,0,0,1-4.45-8.37,49.49,49.49,0,0,1-1.52-13.2q0-12.63,3.65-19t9.7-6.7l0.38,13.54a7.23,7.23,0,0,0-4.88,3.73Q8.08,297,8.08,302.67a21.9,21.9,0,0,0,1.58,9.24q1,2.15,2.73,2.15,1.56,0,2.67-2,1.41-2.56,3-12.45A91.42,91.42,0,0,1,21.2,285a18.12,18.12,0,0,1,4.48-7.41,9.83,9.83,0,0,1,7-2.68,10,10,0,0,1,7.08,3.2,19.46,19.46,0,0,1,4.9,9.06,56.2,56.2,0,0,1,1.59,14.6q0,12.72-3.88,19.54A15.62,15.62,0,0,1,31.13,329.44Z"/><path class="a" d="M45.54,237.88h-44V224.34h44v13.54Z"/><path class="a" d="M45.57,211.3h-44V198.12L31,170.67H1.6V158.09h44v13.59l-28.72,27h28.7V211.3Z"/><path class="a" d="M45.66,117.36H2V103.82H38.26l0-33.67h7.42Z"/><path class="a" d="M45.77,0V14.73l-10,5.86,0,26.81,10,5.54V67.31l-44-26.13V26.86ZM28.34,24.94L12,34.18l16.32,9.06Z"/></svg>