<!DOCTYPE svg PUBLIC "-//W3C//DTD SVG 1.1//EN" 
"http://www.w3.org/Graphics/SVG/1.1/DTD/svg11.dtd">
<?xml-stylesheet type="text/css" href="../style.css" ?>
<svg preserveAspectRatio="none"  xmlns="http://www.w3.org/2000/svg" viewBox="0 0 46.7 1457.22"><defs>100%</defs><title>!</title><path class="a" d="M44.61,1457.22H0.6l0-46H8.09l0,32.44H18.48l0-28H26l0,28h18.7v13.54Z"/><path class="a" d="M44.72,1344.75v14.73l-10,5.86,0,26.81,10,5.54v14.37l-44-26.13v-14.32Zm-17.44,24.94-16.34,9.24L27.27,1388Z"/><path class="a" d="M28.59,1294.65l2.74-13.13a20.38,20.38,0,0,1,10.69,10q3.49,7,3.48,17.82,0,13.36-6,22a18.93,18.93,0,0,1-16.38,8.6q-11,0-17.06-8.65T0,1308.56q0-12.31,4.79-20a17.35,17.35,0,0,1,8.11-6.86L15,1295.11a9.71,9.71,0,0,0-5.41,5,19.55,19.55,0,0,0-2,9.17q0,7.46,3.5,12.1T22.47,1326q8.35,0,11.89-4.58t3.55-11.9a18.23,18.23,0,0,0-2.24-9.29A12.63,12.63,0,0,0,28.59,1294.65Z"/><path class="a" d="M44.81,1254.8H8.25l0,19.9H0.78l0.05-53.31H8.28l0,19.86H44.82v13.54Z"/><path class="a" d="M30.53,1216.09l-0.83-13.18a10,10,0,0,0,6.4-4.83q2-3.64,2-9.81,0-6.54-1.81-9.86t-4.24-3.32a3.28,3.28,0,0,0-2.66,1.4,13.1,13.1,0,0,0-1.91,4.87q-0.54,2.38-1.93,10.84-1.78,10.89-4.37,15.28-3.64,6.18-8.86,6.18a8.82,8.82,0,0,1-6.29-2.91,18.61,18.61,0,0,1-4.45-8.37,49.48,49.48,0,0,1-1.52-13.2q0-12.63,3.65-19t9.7-6.7L13.85,1177A7.23,7.23,0,0,0,9,1180.74q-1.49,2.86-1.49,8.58a21.89,21.89,0,0,0,1.58,9.24q1,2.15,2.73,2.15t2.67-2q1.42-2.56,3-12.45a91.32,91.32,0,0,1,3.18-14.62,18.12,18.12,0,0,1,4.48-7.41,9.83,9.83,0,0,1,7-2.68,10,10,0,0,1,7.08,3.2,19.47,19.47,0,0,1,4.9,9.06,56.15,56.15,0,0,1,1.59,14.59q0,12.72-3.88,19.54A15.62,15.62,0,0,1,30.53,1216.09Z"/><path class="a" d="M28.8,1081.2l2.74-13.13a20.39,20.39,0,0,1,10.69,10q3.49,7,3.48,17.82,0,13.36-6,22a18.94,18.94,0,0,1-16.38,8.6q-11,0-17.06-8.65t-6.06-22.74q0-12.31,4.79-20a17.35,17.35,0,0,1,8.11-6.86l2.09,13.41a9.71,9.71,0,0,0-5.41,5,19.53,19.53,0,0,0-2,9.17q0,7.46,3.5,12.1t11.37,4.64q8.35,0,11.89-4.58t3.55-11.9a18.21,18.21,0,0,0-2.24-9.29A12.63,12.63,0,0,0,28.8,1081.2Z"/><path class="a" d="M45,1056.4H1v-13.54H18.33l0-26.54H1v-13.54h44v13.54H25.8l0,26.54H45v13.54Z"/><path class="a" d="M45.13,928.29V943l-10,5.86,0,26.81,10,5.54v14.37l-44-26.13V955.14ZM27.69,953.22l-16.34,9.24,16.32,9.06Z"/><path class="a" d="M45.14,921.06h-44l0-28.5q0-10.75,1.2-15.63a15.73,15.73,0,0,1,4.23-7.8,9.72,9.72,0,0,1,15.11,1.51q3.22,4.44,4.05,13.27a33.53,33.53,0,0,1,3.7-7.25,57.51,57.51,0,0,1,7.15-7.71l8.59-8.19,0,16.2-9.58,9.79a72.39,72.39,0,0,0-6.48,7.14A11.71,11.71,0,0,0,27.28,898a33.45,33.45,0,0,0-.5,6.82v2.75H45.15v13.54ZM19.75,907.51v-10q0-9.74-.53-12.17a7.77,7.77,0,0,0-1.86-3.8,4.39,4.39,0,0,0-3.3-1.37A4.29,4.29,0,0,0,10.49,882a10.23,10.23,0,0,0-1.73,5.1q-0.15,1.65-.16,9.88v10.57H19.75Z"/><path class="a" d="M45.2,853.06H1.56V839.52H37.8l0-33.68h7.41Z"/><path class="a" d="M45.26,796.6h-44V783.06h44V796.6Z"/><path class="a" d="M45.28,770.16h-44l0-49.74H8.77l0,36.19h9.75l0-33.68h7.41l0,33.68h12l0-37.47h7.42Z"/><path class="a" d="M45.37,681.57h-44V668H18.7l0-26.54H1.4V627.95h44v13.54H26.17l0,26.54H45.38v13.54Z"/><path class="a" d="M45.44,613.95h-44l0-49.74H8.92l0,36.19h9.75l0-33.68h7.42l0,33.68H38l0-37.47h7.41Z"/><path class="a" d="M45.56,491v14.73l-10,5.86,0,26.81,10,5.54v14.37l-44-26.13V517.81ZM28.12,515.89l-16.34,9.24,16.32,9.06Z"/><path class="a" d="M45.57,475.63H9l0,19.9H1.55L1.6,442.23H9l0,19.86H45.59v13.54Z"/><path class="a" d="M45.66,390.34l-44,24V399.63l32.59-17L1.67,366.23V351.86l44,24v14.46Z"/><path class="a" d="M45.7,345h-44l0-49.74H9.19l0,36.19h9.75l0-33.68h7.42l0,33.68h12l0-37.47h7.41Z"/><path class="a" d="M45.76,282.4h-44l0-28.51q0-10.75,1.2-15.63a15.74,15.74,0,0,1,4.22-7.8A9.72,9.72,0,0,1,22.32,232q3.22,4.44,4.05,13.27a33.44,33.44,0,0,1,3.7-7.25,57.42,57.42,0,0,1,7.15-7.71l8.59-8.19,0,16.2-9.59,9.79a72.13,72.13,0,0,0-6.47,7.14,11.69,11.69,0,0,0-1.84,4.07,33.47,33.47,0,0,0-.5,6.82v2.75H45.78V282.4ZM20.38,268.86v-10q0-9.75-.53-12.17a7.79,7.79,0,0,0-1.86-3.8,4.39,4.39,0,0,0-3.3-1.37,4.29,4.29,0,0,0-3.59,1.81,10.23,10.23,0,0,0-1.73,5.1q-0.15,1.65-.16,9.88v10.57H20.38Z"/><path class="a" d="M31.51,218.21L30.68,205a10,10,0,0,0,6.4-4.83q2-3.64,2.05-9.81,0-6.54-1.81-9.86t-4.24-3.32a3.28,3.28,0,0,0-2.66,1.4,13.11,13.11,0,0,0-1.91,4.87q-0.54,2.38-1.93,10.84-1.78,10.89-4.37,15.28-3.64,6.18-8.86,6.18a8.82,8.82,0,0,1-6.29-2.91,18.61,18.61,0,0,1-4.45-8.37,49.48,49.48,0,0,1-1.52-13.2q0-12.63,3.65-19t9.7-6.7l0.38,13.54a7.24,7.24,0,0,0-4.88,3.73q-1.49,2.86-1.49,8.58A21.92,21.92,0,0,0,10,200.68q1,2.15,2.73,2.15t2.67-2q1.41-2.56,3-12.45a91.42,91.42,0,0,1,3.18-14.62A18.12,18.12,0,0,1,26,166.34a9.83,9.83,0,0,1,7-2.68,10,10,0,0,1,7.08,3.2,19.47,19.47,0,0,1,4.9,9.06,56.16,56.16,0,0,1,1.59,14.6q0,12.72-3.88,19.54A15.62,15.62,0,0,1,31.51,218.21Z"/><path class="a" d="M45.89,152.68h-44V139.14h44v13.54Z"/><path class="a" d="M24.18,129a19.78,19.78,0,0,1-11.28-3.07,22.93,22.93,0,0,1-6-6.25,29.13,29.13,0,0,1-4-8.67A54.22,54.22,0,0,1,1.19,96.54q0-14.82,6.06-23.72A19.19,19.19,0,0,1,24,63.92,19.07,19.07,0,0,1,40.7,72.75q6,8.83,6,23.61,0,15-6,23.79A18.91,18.91,0,0,1,24.18,129Zm-0.29-14q7.47,0,11.34-5.26T39.1,96.41q0-8.1-3.81-13.29T23.81,77.92q-7.56,0-11.29,5.06T8.78,96.41q0,8.37,3.75,13.5T23.89,115Z"/><path class="a" d="M46,53.21H2V40L31.41,12.58H2V0H46V13.59l-28.72,27H46V53.21Z"/></svg>