<!DOCTYPE svg PUBLIC "-//W3C//DTD SVG 1.1//EN" 
"http://www.w3.org/Graphics/SVG/1.1/DTD/svg11.dtd">
<?xml-stylesheet type="text/css" href="../style.css" ?>
<svg preserveAspectRatio="none"  xmlns="http://www.w3.org/2000/svg" viewBox="0 0 44.24 238.34"><defs>100%</defs><title>!</title><path class="a" d="M44,238.34H0l0-46H7.49l0,32.44H17.88l0-28h7.44l0,28H44v13.54Z"/><path class="a" d="M44.12,125.87v14.73l-10,5.86,0,26.81,10,5.54v14.37l-44-26.13V152.73ZM26.68,150.81l-16.34,9.24,16.32,9.06Z"/><path class="a" d="M0.12,118.74L0.14,94A72.9,72.9,0,0,1,1,81.22,26.38,26.38,0,0,1,5.06,71.1a19.69,19.69,0,0,1,7.14-6.41,22.36,22.36,0,0,1,10.4-2.2A20,20,0,0,1,32,64.56a20.19,20.19,0,0,1,7.77,7.18,28.79,28.79,0,0,1,3.5,9.52,61.47,61.47,0,0,1,.92,12l0,25.49h-44Zm7.46-13.54H36.72V95.08a55.66,55.66,0,0,0-.41-8.19,15.6,15.6,0,0,0-1.83-5.47,9.26,9.26,0,0,0-4.24-3.55,19.46,19.46,0,0,0-8.06-1.37,17.88,17.88,0,0,0-7.84,1.37,10.39,10.39,0,0,0-4.27,3.84A16.16,16.16,0,0,0,8,88a93,93,0,0,0-.43,11.12v6.09Z"/><path class="a" d="M44.19,51h-44l0-49.74H7.68l0,36.19H17.4l0-33.68h7.41l0,33.68h12L36.83,0h7.41Z"/></svg>