<?xml version="1.0" encoding="utf-8"?>
<!-- Generator: Adobe Illustrator 19.2.1, SVG Export Plug-In . SVG Version: 6.00 Build 0)  -->
<!DOCTYPE svg PUBLIC "-//W3C//DTD SVG 1.1//EN" "http://www.w3.org/Graphics/SVG/1.1/DTD/svg11.dtd">

<svg preserveAspectRatio="none" version="1.1" id="Layer_1" xmlns="http://www.w3.org/2000/svg" xmlns:xlink="http://www.w3.org/1999/xlink" x="0px" y="0px"
	 viewBox="0 0 117.2 29.4" style="enable-background:new 0 0 117.2 29.4;" xml:space="preserve">
<style type="text/css">
	.st0{fill:none;stroke:#FFFFFF;stroke-miterlimit:10;}
</style>
<g>
	<path class="st0" d="M0.5,28.4V1.2h2.7v22.6h6.7v4.6H0.5z"/>
	<path class="st0" d="M11.8,28.4V1h2.7v27.5H11.8z"/>
	<path class="st0" d="M16.4,19.5L19,19c0.2,1.8,0.5,3.1,1,4s1.1,1.3,2,1.3c0.9,0,1.5-0.4,2-1.1s0.7-1.6,0.7-2.7
		c0-0.6-0.1-1.2-0.3-1.7s-0.5-0.9-1-1.2c-0.3-0.2-1-0.6-2.2-1.2c-1.5-0.7-2.5-1.6-3.1-2.7c-0.8-1.5-1.2-3.4-1.2-5.5
		c0-1.4,0.2-2.7,0.6-3.9c0.4-1.2,0.9-2.1,1.7-2.8c0.7-0.6,1.6-1,2.6-1c1.7,0,3,0.8,3.8,2.3c0.9,1.5,1.3,3.5,1.3,6.1l-2.7,0.2
		c-0.1-1.4-0.4-2.4-0.7-3c-0.4-0.6-1-0.9-1.7-0.9c-0.8,0-1.4,0.3-1.8,1c-0.3,0.4-0.4,1-0.4,1.7c0,0.7,0.1,1.2,0.4,1.7
		c0.3,0.6,1.2,1.2,2.5,1.8c1.3,0.6,2.3,1.3,2.9,2s1.1,1.6,1.5,2.8c0.4,1.2,0.5,2.6,0.5,4.4c0,1.6-0.2,3-0.6,4.4
		c-0.4,1.4-1,2.4-1.8,3.1c-0.8,0.7-1.8,1-2.9,1c-1.7,0-3-0.8-3.9-2.4C17.1,24.9,16.6,22.6,16.4,19.5z"/>
	<path class="st0" d="M32.6,28.4V5.6h-4V1h10.7v4.6h-4v22.8H32.6z"/>
	<path class="st0" d="M41,28.4V1H51v4.6h-7.2v6.1h6.7v4.6h-6.7v7.5h7.5v4.6H41z"/>
	<path class="st0" d="M53.5,28.4V1h2.6l5.5,18.3V1h2.5v27.5h-2.7l-5.4-17.9v17.9H53.5z"/>
	<path class="st0" d="M72.3,28.4V1h2.6l5.5,18.3V1h2.5v27.5h-2.7l-5.4-17.9v17.9H72.3z"/>
	<path class="st0" d="M85.2,14.9c0-2.8,0.2-5.1,0.6-7c0.3-1.4,0.7-2.7,1.2-3.8s1.1-1.9,1.7-2.5c0.8-0.7,1.8-1.1,2.9-1.1
		c2,0,3.6,1.3,4.7,3.8s1.8,6,1.8,10.5c0,4.4-0.6,7.9-1.8,10.4s-2.8,3.8-4.7,3.8c-2,0-3.6-1.2-4.8-3.7C85.8,22.7,85.2,19.2,85.2,14.9
		z M88,14.7c0,3.1,0.4,5.5,1.1,7.1s1.6,2.4,2.7,2.4c1.1,0,2-0.8,2.7-2.4c0.7-1.6,1-4,1-7.2c0-3.1-0.3-5.5-1-7
		c-0.7-1.5-1.6-2.3-2.7-2.3c-1.1,0-2,0.8-2.7,2.4S88,11.5,88,14.7z"/>
	<path class="st0" d="M102.3,28.4L99.1,1h2.8l2,18.9L106.3,1h3.2l2.4,19.2L113.9,1h2.7l-3.3,27.5h-2.9l-2.7-20.5l-2.7,20.5H102.3z"
		/>
</g>
<g>
</g>
<g>
</g>
<g>
</g>
<g>
</g>
<g>
</g>
<g>
</g>
</svg>
