<svg preserveAspectRatio="none" xmlns="http://www.w3.org/2000/svg" viewBox="0 0 349.32 349.32"><defs><style>.a{fill:#fff;}</style></defs><title>v3</title><path class="a" d="M262.46,184.42l86.86-36.36-93.75-8.85,57-74.92L227,103.5,239,10.1,184.42,86.86,148.06,0l-8.85,93.75-74.92-57,39.21,85.61L10.1,110.37l76.76,54.54L0,201.26l93.75,8.85L36.7,285l85.61-39.21-11.95,93.4,54.54-76.76,36.36,86.86,8.85-93.75,74.92,57L245.82,227,339.22,239Zm-107.8,19.46h-17.1l-28.5-59h17.4l20.1,43.65,19.6-43.65h17Zm77.9-4.58c-5.1,3.7-11.5,5.46-19.1,5.46-7.2,0-13.2-1.58-17.9-4.58a17.23,17.23,0,0,1-8.1-12l14.8-1.41a9.06,9.06,0,0,0,3.8,6.34,13.25,13.25,0,0,0,7.5,2.29,12.47,12.47,0,0,0,8-2.64,8.74,8.74,0,0,0,3.2-7.22,7.93,7.93,0,0,0-3.1-6.69,12.16,12.16,0,0,0-7.5-2.46,37.83,37.83,0,0,0-7,.88l1.7-9.15c4.1,0,7.3-.53,9.4-1.94a6.49,6.49,0,0,0,3.3-5.63,5.74,5.74,0,0,0-2.4-4.75,10.14,10.14,0,0,0-6.4-1.76,12,12,0,0,0-6.7,1.94,9,9,0,0,0-3.4,5.81l-14.1-1.76a23.14,23.14,0,0,1,4.4-8.63,20.14,20.14,0,0,1,8.3-5.1,35.9,35.9,0,0,1,11.9-1.76q11.25,0,18,5.28c3.7,2.82,5.6,6.16,5.6,9.86,0,5.1-3.8,9.33-11.5,12.32,4.6,0.7,8.2,2.29,10.9,4.93a12.12,12.12,0,0,1,4.1,9.15C240.26,191.21,237.66,195.61,232.56,199.3Z"/></svg>