<svg preserveAspectRatio="none" xmlns="http://www.w3.org/2000/svg" viewBox="0 0 244.95 244.69"><defs><style>.a{fill:#fff;}</style></defs><title>v3</title><path class="a" d="M233.76,99.83l-24.1-5.33A14.28,14.28,0,0,1,200,74.13l11.1-22C217.33,39.71,204,26.6,191.74,33l-21.89,11.4A14.28,14.28,0,0,1,149.36,35l-5.67-24C140.51-2.49,121.9-4,116.6,8.82l-9.44,22.81a14.28,14.28,0,0,1-21.73,6L65.65,22.85C54.54,14.56,39.32,25.38,43.49,38.6l7.43,23.54a14.28,14.28,0,0,1-12.8,18.55L13.48,82.1C-0.36,82.89-5.06,101,6.63,108.4l20.82,13.25a14.28,14.28,0,0,1,2.12,22.44L11.6,161c-10.09,9.5-2.09,26.37,11.66,24.55l24.47-3.23a14.28,14.28,0,0,1,16,15.83l-2.89,24.51C59.26,236.44,76.23,244.21,85.6,234l16.67-18.2a14.28,14.28,0,0,1,22.47,1.81l13.54,20.63c7.61,11.59,25.6,6.63,26.2-7.22l1.07-24.66a14.28,14.28,0,0,1,18.37-13.06l23.64,7.1c13.28,4,23.88-11.38,15.43-22.37l-15-19.58a14.28,14.28,0,0,1,5.68-21.81l22.67-9.75C249,121.41,247.29,102.82,233.76,99.83Zm-134,61.28H82.65l-28.5-59h17.4l20.1,43.65,19.6-43.65h17Zm77.9-4.58c-5.1,3.7-11.5,5.46-19.1,5.46-7.2,0-13.2-1.58-17.9-4.58a17.23,17.23,0,0,1-8.1-12l14.8-1.41a9.06,9.06,0,0,0,3.8,6.34,13.25,13.25,0,0,0,7.5,2.29,12.47,12.47,0,0,0,8-2.64,8.74,8.74,0,0,0,3.2-7.22,7.93,7.93,0,0,0-3.1-6.69,12.16,12.16,0,0,0-7.5-2.46,37.83,37.83,0,0,0-7,.88l1.7-9.15c4.1,0,7.3-.53,9.4-1.94a6.49,6.49,0,0,0,3.3-5.63,5.74,5.74,0,0,0-2.4-4.75,10.14,10.14,0,0,0-6.4-1.76,12,12,0,0,0-6.7,1.94,9,9,0,0,0-3.4,5.81l-14.1-1.76a23.14,23.14,0,0,1,4.4-8.63,20.14,20.14,0,0,1,8.3-5.1,35.9,35.9,0,0,1,11.9-1.76q11.25,0,18,5.28c3.7,2.82,5.6,6.16,5.6,9.86,0,5.1-3.8,9.33-11.5,12.32,4.6,0.7,8.2,2.29,10.9,4.93a12.12,12.12,0,0,1,4.1,9.15C185.35,148.43,182.75,152.83,177.65,156.53Z"/></svg>