<?xml version="1.0" encoding="utf-8"?>
<!-- Generator: Adobe Illustrator 19.2.1, SVG Export Plug-In . SVG Version: 6.00 Build 0)  -->
<svg version="1.1" id="Layer_1" xmlns="http://www.w3.org/2000/svg" xmlns:xlink="http://www.w3.org/1999/xlink" x="0px" y="0px"
	 viewBox="0 0 100 125" style="enable-background:new 0 0 100 125;" xml:space="preserve">
<path d="M96.5,20H92c0-1.7-1.3-3-3-3H57.5c-4.1,0-7.5,3.4-7.5,7.5c0-4.1-3.4-7.5-7.5-7.5H11c-1.7,0-3,1.3-3,3H3.5
	C2.7,20,2,20.7,2,21.5V80c0,1.7,1.3,3,3,3h3h39h3h3h39h3c1.7,0,3-1.3,3-3V21.5C98,20.7,97.3,20,96.5,20z M53,24.5
	c0-2.5,2-4.5,4.5-4.5H89v3v51H57.5c-1.7,0-3.2,0.6-4.5,1.5V24.5z M10.1,19.6h31.5c2.5,0,4.5,2,4.5,4.5v52c-1.3-0.9-2.8-1.5-4.5-1.5
	H10.1 M5,80v-3V23h3v51c0,1.7,1.3,3,3,3h31.5c2,0,3.6,1.3,4.2,3H8H5z M95,80h-3H53.3c0.6-1.7,2.3-3,4.2-3H89c1.7,0,3-1.3,3-3V23h3
	v54V80z"/>
</svg>
