<?xml version="1.0" encoding="utf-8"?>
<!-- Generator: Adobe Illustrator 19.2.1, SVG Export Plug-In . SVG Version: 6.00 Build 0)  -->
<svg version="1.1" xmlns="http://www.w3.org/2000/svg" xmlns:xlink="http://www.w3.org/1999/xlink" x="0px" y="0px"
	 viewBox="0 0 100 125" style="enable-background:new 0 0 100 125;" xml:space="preserve">
<style type="text/css">
	.st0{display:none;}
	.st1{display:inline;opacity:0.5;}
	.st2{fill:#FFFFFF;}
</style>
<g id="Layer_1">
	<path d="M96.5,20H92c0-1.7-1.3-3-3-3H57.5c-4.1,0-7.5,3.4-7.5,7.5c0-4.1-3.4-7.5-7.5-7.5H11c-1.7,0-3,1.3-3,3H3.5
		C2.7,20,2,20.7,2,21.5V80c0,1.7,1.3,3,3,3h3h39h3h3h39h3.4c2,0,2.6-0.7,2.6-2.6V21.5C98,20.7,97.3,20,96.5,20z M52.2,24.5
		c0-3.3,2.4-5.5,5.3-5.5H90v4v52H57.5c-1.7,0-4,0.6-5.3,1.5V24.5z M10.2,19h31.5c4,0,5.6,2.4,5.6,5v52c-1.3-0.9-4-1.4-5.7-1.4H10.1
		 M4,81v-4V22h4v52c0,1.7,1.3,3,3,3h31.5c3.3,0,5.4,1.8,5.4,4H8H4z M96,81h-4H51.8c0-1.9,2.9-4,5.7-4H89c1.7,0,3-1.3,3-3V22h4v55V81
		z"/>
</g>
<g id="Layer_2" class="st0">
	<g class="st1">
		<path d="M95.9,80.9c0-0.3,0-0.6,0-0.8c0-19,0-38,0-57c0-0.2,0.1-1.2,0.1-1.4c0-0.8,0.4-1.2,1-1.2c0.6,0,1,0.5,1,1.2
			c0,19.4-0.1,39.7-0.1,59.1c0,1.3-0.9,2.2-2.2,2.2c-14,0-28,0-42,0c-2.8,0-5.1-2.3-5.1-5.1c0-18.5,0-36.9,0-55.4
			c0-3,2.2-5.2,5.3-5.2c12.6,0,25.1,0,37.7,0c1.4,0,2.2,0.9,2.2,2.3c0,13.1,0,26.2,0,39.4c0,4.5,0,9,0,13.5c0,1.6-0.8,2.4-2.4,2.4
			c-12.5,0-25,0-37.5,0c-1.9,0-3.3,1.3-3.3,3.1c0,1.6,1.3,2.9,2.9,3c0.2,0,0.3,0,0.5,0c13.7,0,27.4,0,41.1,0
			C95.5,80.9,95.7,80.9,95.9,80.9z M91.8,19.3c-0.2,0-0.3,0-0.5,0c-12.5,0-24.9,0-37.4,0c-1.9,0-3.2,1.3-3.2,3.2
			c0,16.9,0,33.8,0,50.7c0,0.1,0,0.3,0,0.5c1.1-0.8,2.4-1,3.7-1c12.2,0,24.4,0,36.6,0c0.2,0,0.4,0,0.7,0
			C91.8,54.9,91.8,37.2,91.8,19.3z"/>
		<path d="M73.8,76.7c6.4,0,12.7,0,19.1,0c0.2,0,0.3,0,0.5,0c0.6,0.1,1,0.5,1,1c0,0.5-0.4,1-1,1c-0.1,0-0.2,0-0.3,0
			c-12.8,0-25.6,0-38.4,0c-0.1,0-0.3,0-0.4,0c-0.5-0.1-0.9-0.5-0.9-1.1c0-0.5,0.4-0.9,0.9-1c0.2,0,0.3,0,0.5,0
			C61,76.7,67.4,76.7,73.8,76.7z"/>
		<path d="M77.5,20c6.4,0,12.5,0,18.9,0c0.2,0,0.2,0,0.4,0c0.6,0.1,1,0.5,1,1c0,0.5-0.4,1-1,1c-0.1,0,0.1,0,0,0
			c-12.8,0-25.6,0-38.4,0c-0.1,0-0.3,0-0.4,0c-0.5-0.1-0.9-0.5-0.9-1.1c0-0.5,0.4-0.9,0.9-1c0.2,0,0.3,0,0.5,0
			C64.7,20,71.1,20,77.5,20z"/>
		<path class="st2" d="M92.2,19.2c0,17.8,0,35.6,0,53.4c-0.2,0-0.5,0-0.7,0c-12.2,0-24.4,0-36.6,0c-1.3,0-2.5,0.2-3.7,1
			c0-0.2,0-0.3,0-0.5c0-16.9,0-33.8,0-50.7c0-1.9,1.3-3.2,3.2-3.2c12.5,0,24.9,0,37.4,0C91.9,19.2,92,19.2,92.2,19.2z"/>
	</g>
</g>
</svg>
