<svg xmlns="http://www.w3.org/2000/svg" xmlns:xlink="http://www.w3.org/1999/xlink" version="1.1" x="0px" y="0px" viewBox="0 0 100 125" enable-background="new 0 0 100 100" xml:space="preserve"><g><path fill-rule="evenodd" clip-rule="evenodd" d="M84.5,8C83.672,8,83,8.671,83,9.5v82.501V95H21.5c-2.485,0-4.5-2.015-4.5-4.5   s2.015-4.5,4.5-4.5H23v3c0,1.657,1.343,3.001,3,3.001h6c1.657,0,3-1.344,3-3.001v-3h42c1.657,0,3-1.343,3-3V5c0-1.657-1.343-3-3-3   H21.5C17.357,2,14,5.358,14,9.5v81c0,4.143,3.357,7.5,7.5,7.5H83c1.657,0,3-1.343,3-3V9.5C86,8.671,85.328,8,84.5,8z M32,89h-6v-3   h6V89z M17,9.5C17,7.014,19.014,5,21.5,5H77v78H35h-3h-6h-3h-1.5c-1.688,0-3.246,0.559-4.5,1.5V9.5z"/><path fill-rule="evenodd" clip-rule="evenodd" d="M39.5,89c-0.826,0-1.5,0.674-1.5,1.5c0,0.827,0.674,1.501,1.5,1.501h39   c0.826,0,1.5-0.674,1.5-1.501c0-0.826-0.674-1.5-1.5-1.5H39.5z"/></g><text x="0" y="115" fill="#000000" font-size="5px" font-weight="bold" font-family="'Helvetica Neue', Helvetica, Arial-Unicode, Arial, Sans-serif">Created by Stanislav Levin</text><text x="0" y="120" fill="#000000" font-size="5px" font-weight="bold" font-family="'Helvetica Neue', Helvetica, Arial-Unicode, Arial, Sans-serif">from the Noun Project</text></svg>