<svg xmlns="http://www.w3.org/2000/svg" xmlns:xlink="http://www.w3.org/1999/xlink" version="1.1" x="0px" y="0px" viewBox="0 0 100 125" enable-background="new 0 0 100 100" xml:space="preserve"><path d="M95.549,16.37H54.768c-0.469,0-0.923,0.169-1.277,0.476l-3.241,2.807l-3.241-2.807c-0.354-0.307-0.809-0.476-1.277-0.476  H4.951C3.873,16.37,3,17.244,3,18.321v59.266c0,1.077,0.873,1.951,1.951,1.951h39.846l4.176,3.616  c0.366,0.317,0.822,0.476,1.277,0.476s0.91-0.158,1.277-0.476l4.176-3.616h39.846c1.077,0,1.951-0.874,1.951-1.951V18.321  C97.5,17.244,96.626,16.37,95.549,16.37z M45.524,75.636H6.902V20.272h38.1l3.296,2.854v54.283l-1.497-1.298  C46.446,75.805,45.994,75.636,45.524,75.636z M93.598,75.636H54.975c-0.469,0-0.922,0.169-1.276,0.476l-1.497,1.297V23.125  l3.295-2.853h38.102V75.636z"/><path d="M14.305,57.059h12.469c1.078,0,1.951-0.874,1.951-1.951V27.513c0-1.077-0.874-1.95-1.951-1.95H14.305  c-1.078,0-1.951,0.873-1.951,1.95v27.595C12.354,56.185,13.227,57.059,14.305,57.059z M16.256,29.464h8.567v23.692h-8.567V29.464z"/><path d="M60.019,63.464h26.045c1.077,0,1.951-0.873,1.951-1.951v-34c0-1.077-0.874-1.95-1.951-1.95H60.019  c-1.077,0-1.951,0.873-1.951,1.95v34C58.067,62.591,58.941,63.464,60.019,63.464z M61.97,29.464h22.143v30.098H61.97V29.464z"/><path d="M42.566,28.686h-8.035c-1.078,0-1.951,0.874-1.951,1.951s0.873,1.951,1.951,1.951h8.035c1.077,0,1.951-0.874,1.951-1.951  S43.644,28.686,42.566,28.686z"/><path d="M42.566,36.176h-8.035c-1.078,0-1.951,0.874-1.951,1.951s0.873,1.951,1.951,1.951h8.035c1.077,0,1.951-0.874,1.951-1.951  S43.644,36.176,42.566,36.176z"/><path d="M42.566,43.667h-8.035c-1.078,0-1.951,0.874-1.951,1.951s0.873,1.951,1.951,1.951h8.035c1.077,0,1.951-0.873,1.951-1.951  S43.644,43.667,42.566,43.667z"/><path d="M42.566,51.156h-8.035c-1.078,0-1.951,0.873-1.951,1.95c0,1.078,0.873,1.951,1.951,1.951h8.035  c1.077,0,1.951-0.873,1.951-1.951C44.517,52.029,43.644,51.156,42.566,51.156z"/><path d="M42.288,60.17H14.304c-1.078,0-1.951,0.874-1.951,1.951s0.873,1.951,1.951,1.951h27.984c1.078,0,1.951-0.874,1.951-1.951  S43.366,60.17,42.288,60.17z"/><path d="M60.019,70.976h26.045c1.077,0,1.951-0.873,1.951-1.951c0-1.077-0.874-1.95-1.951-1.95H60.019  c-1.077,0-1.951,0.873-1.951,1.95C58.067,70.103,58.941,70.976,60.019,70.976z"/><path d="M42.288,67.074H14.304c-1.078,0-1.951,0.873-1.951,1.95c0,1.078,0.873,1.951,1.951,1.951h27.984  c1.078,0,1.951-0.873,1.951-1.951C44.239,67.947,43.366,67.074,42.288,67.074z"/><text x="0" y="115" fill="#000000" font-size="5px" font-weight="bold" font-family="'Helvetica Neue', Helvetica, Arial-Unicode, Arial, Sans-serif">Created by Andrey Vasiliev</text><text x="0" y="120" fill="#000000" font-size="5px" font-weight="bold" font-family="'Helvetica Neue', Helvetica, Arial-Unicode, Arial, Sans-serif">from the Noun Project</text></svg>