<svg xmlns="http://www.w3.org/2000/svg" xmlns:xlink="http://www.w3.org/1999/xlink" version="1.1" x="0px" y="0px" viewBox="0 0 100 125" enable-background="new 0 0 100 100" xml:space="preserve"><g><path fill-rule="evenodd" clip-rule="evenodd" d="M39.5,17h9c0.826,0,1.5-0.674,1.5-1.5S49.326,14,48.5,14h-9   c-0.826,0-1.5,0.673-1.5,1.5S38.674,17,39.5,17z"/><path fill-rule="evenodd" clip-rule="evenodd" d="M53,5H35c-1.656,0-3,1.343-3,3v84c0,1.656,1.344,3,3,3h18   c1.657,0,2.999-1.344,2.999-3V8C55.999,6.343,54.657,5,53,5z M53,92H35V8h18V92z"/><path fill-rule="evenodd" clip-rule="evenodd" d="M39.5,23h9c0.826,0,1.5-0.674,1.5-1.5S49.326,20,48.5,20h-9   c-0.826,0-1.5,0.674-1.5,1.5S38.674,23,39.5,23z"/><path fill-rule="evenodd" clip-rule="evenodd" d="M39.5,29h9c0.826,0,1.5-0.674,1.5-1.5S49.326,26,48.5,26h-9   c-0.826,0-1.5,0.674-1.5,1.5S38.674,29,39.5,29z"/><path fill-rule="evenodd" clip-rule="evenodd" d="M44,86c3.313,0,6-2.687,6-6c0-3.314-2.687-6-6-6s-6,2.686-6,6   C38,83.313,40.687,86,44,86z M44,77c1.657,0,2.999,1.343,2.999,3c0,1.656-1.342,3-2.999,3c-1.656,0-3-1.344-3-3   C41,78.343,42.344,77,44,77z"/><path fill-rule="evenodd" clip-rule="evenodd" d="M12.5,17h9c0.826,0,1.5-0.674,1.5-1.5S22.326,14,21.5,14h-9   c-0.826,0-1.5,0.673-1.5,1.5S11.674,17,12.5,17z"/><path fill-rule="evenodd" clip-rule="evenodd" d="M26,5H8C6.344,5,5,6.343,5,8v84c0,1.656,1.344,3,3,3h18c1.657,0,3-1.344,3-3V8   C29,6.343,27.657,5,26,5z M26,92H8V8h18V92z"/><path fill-rule="evenodd" clip-rule="evenodd" d="M12.5,23h9c0.826,0,1.5-0.674,1.5-1.5S22.326,20,21.5,20h-9   c-0.826,0-1.5,0.674-1.5,1.5S11.674,23,12.5,23z"/><path fill-rule="evenodd" clip-rule="evenodd" d="M12.5,29h9c0.826,0,1.5-0.674,1.5-1.5S22.326,26,21.5,26h-9   c-0.826,0-1.5,0.674-1.5,1.5S11.674,29,12.5,29z"/><path fill-rule="evenodd" clip-rule="evenodd" d="M17,86c3.313,0,6-2.687,6-6c0-3.314-2.687-6-6-6c-3.314,0-6,2.686-6,6   C11,83.313,13.686,86,17,86z M17,77c1.657,0,3,1.343,3,3c0,1.656-1.343,3-3,3c-1.656,0-3-1.344-3-3C14,78.343,15.344,77,17,77z"/><path fill-rule="evenodd" clip-rule="evenodd" d="M66.838,18.282l8.863-1.563c0.815-0.144,1.36-0.922,1.217-1.738   c-0.144-0.815-0.922-1.36-1.737-1.216l-8.863,1.563c-0.815,0.144-1.361,0.922-1.218,1.738   C65.244,17.881,66.022,18.426,66.838,18.282z"/><path fill-rule="evenodd" clip-rule="evenodd" d="M96.11,89.277L81.524,6.554c-0.287-1.631-1.844-2.721-3.476-2.434L60.322,7.246   c-1.632,0.288-2.721,1.844-2.434,3.475l14.586,82.724c0.289,1.631,1.844,2.721,3.477,2.434l17.727-3.127   C95.31,92.465,96.398,90.908,96.11,89.277z M75.43,92.924L60.844,10.201l17.726-3.126l14.588,82.724L75.43,92.924z"/><path fill-rule="evenodd" clip-rule="evenodd" d="M67.88,24.191l8.863-1.563c0.815-0.145,1.36-0.922,1.217-1.738   s-0.922-1.36-1.737-1.217l-8.863,1.563c-0.815,0.144-1.361,0.922-1.217,1.738C66.286,23.79,67.064,24.335,67.88,24.191z"/><path fill-rule="evenodd" clip-rule="evenodd" d="M77.265,25.583L68.4,27.146c-0.815,0.144-1.359,0.922-1.216,1.737   c0.144,0.816,0.922,1.36,1.737,1.217l8.863-1.563c0.815-0.145,1.36-0.922,1.217-1.738C78.858,25.983,78.08,25.439,77.265,25.583z"/><path fill-rule="evenodd" clip-rule="evenodd" d="M76.301,80.586c0.575,3.264,3.687,5.441,6.951,4.867   c3.263-0.576,5.442-3.688,4.866-6.951c-0.575-3.264-3.688-5.442-6.95-4.867C77.904,74.211,75.726,77.322,76.301,80.586z    M81.688,76.59c1.631-0.288,3.188,0.801,3.476,2.434c0.288,1.631-0.803,3.188-2.434,3.475c-1.632,0.287-3.188-0.802-3.476-2.434   C78.968,78.434,80.057,76.877,81.688,76.59z"/></g><text x="0" y="115" fill="#000000" font-size="5px" font-weight="bold" font-family="'Helvetica Neue', Helvetica, Arial-Unicode, Arial, Sans-serif">Created by Stanislav Levin</text><text x="0" y="120" fill="#000000" font-size="5px" font-weight="bold" font-family="'Helvetica Neue', Helvetica, Arial-Unicode, Arial, Sans-serif">from the Noun Project</text></svg>