<svg xmlns="http://www.w3.org/2000/svg" xmlns:xlink="http://www.w3.org/1999/xlink" version="1.1" x="0px" y="0px" viewBox="0 0 100 125" enable-background="new 0 0 100 100" xml:space="preserve"><path fill-rule="evenodd" clip-rule="evenodd" d="M96.5,20.001H92C92,18.343,90.657,17,89,17H57.499C53.358,17,50,20.358,50,24.5  c0-4.142-3.357-7.5-7.5-7.5H11c-1.657,0-3,1.343-3,3.001H3.5c-0.828,0-1.5,0.67-1.5,1.499V80c0,1.657,1.343,3,3,3h3h39h3h3.001H92h3  c1.657,0,3-1.343,3-3V21.5C98,20.671,97.328,20.001,96.5,20.001z M53.001,24.5c0-2.486,2.013-4.499,4.498-4.499H89V23v51H57.499  c-1.688,0-3.245,0.559-4.498,1.5V24.5z M42.5,20.001c2.486,0,4.5,2.013,4.5,4.499v51c-1.254-0.941-2.812-1.5-4.5-1.5H11V23v-2.999  H42.5z M5,80v-3V23h3v51c0,1.657,1.343,3,3,3h31.5c1.956,0,3.604,1.257,4.224,3H8H5z M95,80h-3H53.276c0.619-1.743,2.267-3,4.223-3  H89c1.657,0,3-1.343,3-3V23h3v54V80z"/><text x="0" y="115" fill="#000000" font-size="5px" font-weight="bold" font-family="'Helvetica Neue', Helvetica, Arial-Unicode, Arial, Sans-serif">Created by Stanislav Levin</text><text x="0" y="120" fill="#000000" font-size="5px" font-weight="bold" font-family="'Helvetica Neue', Helvetica, Arial-Unicode, Arial, Sans-serif">from the Noun Project</text></svg>