<svg xmlns="http://www.w3.org/2000/svg" xmlns:xlink="http://www.w3.org/1999/xlink" version="1.1" x="0px" y="0px" viewBox="0 0 100 125" enable-background="new 0 0 100 100" xml:space="preserve"><path d="M82.076,10.31H73.83c-1.391-4.9-5.896-8.504-11.236-8.504c-1.375,0-2.488,1.114-2.488,2.489v6.015H23.673  c-1.375,0-2.489,1.114-2.489,2.489v81.214c0,1.374,1.114,2.488,2.489,2.488h38.482c0.003,0,0.007,0.001,0.01,0.001h19.911  c1.374,0,2.488-1.114,2.488-2.488V12.799C84.564,11.424,83.45,10.31,82.076,10.31z M69.305,13.494v61.762  c-1.25-0.881-2.679-1.525-4.223-1.861V7.267C67.555,8.258,69.305,10.673,69.305,13.494z M60.105,15.286v60.326  c0,1.374,1.113,2.488,2.488,2.488c0.004,0,0.008-0.001,0.012-0.001c3.696,0.007,6.699,3.014,6.699,6.711  c0,3.699-3.01,6.712-6.711,6.712H26.161V15.286H60.105z M79.586,91.523h-7.438c1.34-1.901,2.135-4.216,2.135-6.713V15.287h5.303  V91.523z"/><text x="0" y="115" fill="#000000" font-size="5px" font-weight="bold" font-family="'Helvetica Neue', Helvetica, Arial-Unicode, Arial, Sans-serif">Created by Andrey Vasiliev</text><text x="0" y="120" fill="#000000" font-size="5px" font-weight="bold" font-family="'Helvetica Neue', Helvetica, Arial-Unicode, Arial, Sans-serif">from the Noun Project</text></svg>