<?xml version="1.0" encoding="utf-8"?>
<!-- Generator: Adobe Illustrator 19.2.1, SVG Export Plug-In . SVG Version: 6.00 Build 0)  -->
<!DOCTYPE svg PUBLIC "-//W3C//DTD SVG 1.1//EN" "http://www.w3.org/Graphics/SVG/1.1/DTD/svg11.dtd">
<svg preserveAspectRatio="none" version="1.1" id="Layer_1" xmlns="http://www.w3.org/2000/svg" xmlns:xlink="http://www.w3.org/1999/xlink" x="0px" y="0px"
	 viewBox="0 0 35.4 78.2" style="enable-background:new 0 0 35.4 78.2;" xml:space="preserve">
<g>
	<path d="M0,78.2l0-42.9l0-6.5l0.5-8.3C1.1,16.4,2.2,13,4,10.4c1.8-2.6,3.8-3.9,6.2-3.9c4.5,0,7.3,5.1,8.5,15.4
		c0.9-3.5,2.1-6.1,3.7-8c1.6-1.9,4.2-3.6,7.9-5.3L35.4,0v25.1c-5.1,2.1-8.9,4.1-11.3,5.8c-1.5,1.1-2.3,3.5-2.3,7.4v8.6h5.4l8.2-13
		v44.2l-8.2-13H8.3L0,78.2z M14.8,46.9V35.3l-0.1-3.6c0-3.9-1.3-5.9-3.9-5.9c-1.7,0-2.8,0.6-3.4,1.9s-0.9,3.8-0.9,7.5v11.6H14.8z"/>
</g>
</svg>
