<?xml version="1.0" encoding="utf-8"?>
<!-- Generator: Adobe Illustrator 19.2.1, SVG Export Plug-In . SVG Version: 6.00 Build 0)  -->
<!DOCTYPE svg PUBLIC "-//W3C//DTD SVG 1.1//EN" "http://www.w3.org/Graphics/SVG/1.1/DTD/svg11.dtd">
<svg preserveAspectRatio="none" version="1.1" id="Layer_1" xmlns="http://www.w3.org/2000/svg" xmlns:xlink="http://www.w3.org/1999/xlink" x="0px" y="0px"
	 viewBox="0 0 78.2 35.4" style="enable-background:new 0 0 78.2 35.4;" xml:space="preserve">
<g>
	<path d="M0,0l42.9,0l6.5,0l8.3,0.5c4.1,0.6,7.5,1.7,10.1,3.5s3.9,3.8,3.9,6.2c0,4.5-5.1,7.3-15.4,8.5c3.5,0.9,6.1,2.1,8,3.7
		c1.9,1.6,3.6,4.2,5.3,7.9l8.6,5.1H53.1c-2.1-5.1-4.1-8.9-5.8-11.3c-1.1-1.5-3.5-2.3-7.4-2.3h-8.6v5.4l13,8.2H0.1l13-8.2V8.3L0,0z
		 M31.3,14.8h11.6l3.6-0.1c3.9,0,5.9-1.3,5.9-3.9c0-1.7-0.6-2.8-1.9-3.4S46.7,6.5,43,6.5H31.4v8.3H31.3z"/>
</g>
</svg>
